<svg fill="white" xmlns="http://www.w3.org/2000/svg" xmlns:xlink="http://www.w3.org/1999/xlink" width="0.208in" height="0.139in"><path fill-rule="evenodd"  fill="rgb(248, 248, 248)" d="M14.142,1.020 C14.142,1.019 14.142,1.019 14.142,1.018 C14.136,0.990 14.127,0.964 14.112,0.940 C14.111,0.940 14.111,0.939 14.111,0.939 C14.111,0.939 14.111,0.939 14.111,0.938 C14.096,0.916 14.079,0.896 14.058,0.881 C14.053,0.877 14.049,0.875 14.044,0.871 C14.027,0.860 14.010,0.851 13.990,0.845 C13.977,0.840 13.965,0.839 13.952,0.837 C13.941,0.835 13.933,0.831 13.922,0.831 L13.921,0.831 C13.912,0.831 13.906,0.832 13.900,0.832 C13.898,0.832 13.896,0.832 13.894,0.832 C13.892,0.833 13.890,0.832 13.887,0.833 C13.881,0.834 13.875,0.835 13.869,0.836 L0.650,3.574 C0.556,3.593 0.484,3.670 0.470,3.765 C0.457,3.861 0.505,3.954 0.590,3.999 L4.377,6.001 L5.041,9.695 C5.041,9.698 5.041,9.701 5.041,9.704 C5.039,9.722 5.039,9.740 5.041,9.758 C5.042,9.767 5.043,9.776 5.045,9.784 C5.051,9.806 5.059,9.827 5.070,9.846 C5.073,9.849 5.073,9.854 5.075,9.857 C5.076,9.858 5.077,9.860 5.078,9.860 C5.081,9.864 5.085,9.868 5.088,9.873 C5.099,9.885 5.110,9.898 5.123,9.908 C5.125,9.910 5.126,9.912 5.129,9.914 C5.132,9.916 5.136,9.917 5.139,9.919 C5.153,9.928 5.168,9.936 5.183,9.942 C5.189,9.944 5.195,9.947 5.201,9.948 C5.222,9.955 5.243,9.959 5.264,9.959 C5.264,9.959 5.265,9.959 5.265,9.959 L5.265,9.959 L5.265,9.959 C5.266,9.959 5.267,9.958 5.268,9.958 C5.271,9.959 5.275,9.959 5.279,9.959 C5.342,9.959 5.399,9.930 5.441,9.887 L7.964,8.202 L10.606,9.922 C10.643,9.946 10.686,9.959 10.730,9.959 C10.754,9.959 10.778,9.955 10.801,9.947 C10.867,9.925 10.919,9.874 10.943,9.809 L14.117,1.177 C14.138,1.143 14.150,1.102 14.150,1.059 C14.150,1.045 14.144,1.033 14.142,1.020 ZM11.504,2.554 L6.040,6.581 C6.032,6.587 6.025,6.595 6.017,6.603 C6.014,6.606 6.011,6.608 6.008,6.611 C6.004,6.616 5.999,6.621 5.995,6.627 C5.991,6.633 5.988,6.638 5.984,6.644 C5.976,6.658 5.969,6.672 5.963,6.687 C5.962,6.690 5.960,6.692 5.959,6.695 C5.959,6.696 5.958,6.696 5.958,6.697 L5.332,8.737 L4.835,5.978 L11.504,2.554 ZM5.685,9.176 L6.305,7.121 L7.272,7.751 L7.548,7.931 L6.609,8.559 L5.685,9.176 Z"/>
</svg>