<svg 
 xmlns="http://www.w3.org/2000/svg"
 xmlns:xlink="http://www.w3.org/1999/xlink"
 width="0.167in" height="0.111in">
<path fill-rule="evenodd"  fill="rgb(48, 60, 90)"
 d="M11.398,6.832 C11.302,6.899 11.190,6.933 11.077,6.933 C10.976,6.933 10.875,6.906 10.786,6.851 C9.646,6.150 8.044,6.006 6.932,6.005 L6.932,7.247 C6.932,7.515 6.767,7.756 6.517,7.858 C6.434,7.892 6.347,7.908 6.261,7.908 C6.086,7.908 5.914,7.841 5.786,7.713 L2.827,4.778 C2.481,4.435 2.481,3.881 2.827,3.539 L5.786,0.603 C5.915,0.476 6.086,0.409 6.261,0.409 C6.347,0.409 6.434,0.425 6.517,0.459 C6.767,0.561 6.932,0.802 6.932,1.070 L6.932,2.353 C10.184,2.782 11.267,4.810 11.613,6.266 C11.664,6.480 11.579,6.704 11.398,6.832 ZM2.342,5.255 L4.560,7.455 C4.499,7.634 4.362,7.784 4.178,7.859 C3.928,7.960 3.638,7.903 3.448,7.714 L0.489,4.778 C0.143,4.435 0.143,3.881 0.489,3.539 L3.448,0.604 C3.639,0.414 3.928,0.357 4.178,0.459 C4.362,0.533 4.499,0.683 4.560,0.863 L2.342,3.063 C1.733,3.667 1.733,4.650 2.342,5.255 Z"/>
</svg>