<svg xmlns="http://www.w3.org/2000/svg" xmlns:xlink="http://www.w3.org/1999/xlink" width="0.208in" height="0.208in"> <path fill-rule="evenodd"  fill="rgb(13, 20, 37)" d="M14.098,9.079 C13.998,9.180 13.883,9.230 13.752,9.230 C13.622,9.230 13.507,9.180 13.407,9.079 L7.500,3.173 L1.593,9.079 C1.493,9.180 1.378,9.230 1.248,9.230 C1.117,9.230 1.002,9.180 0.902,9.079 L0.151,8.328 C0.050,8.227 0.000,8.112 0.000,7.982 C0.000,7.852 0.050,7.737 0.151,7.636 L7.154,0.632 C7.254,0.532 7.370,0.483 7.500,0.483 C7.630,0.483 7.745,0.532 7.846,0.632 L14.850,7.636 C14.950,7.737 15.000,7.852 15.000,7.982 C15.000,8.112 14.950,8.227 14.850,8.328 L14.098,9.079 ZM7.154,6.404 C7.254,6.304 7.370,6.254 7.500,6.254 C7.630,6.254 7.745,6.304 7.846,6.404 L14.850,13.408 C14.950,13.508 15.000,13.623 15.000,13.754 C15.000,13.884 14.950,13.999 14.850,14.099 L14.098,14.850 C13.998,14.951 13.883,15.001 13.752,15.001 C13.622,15.001 13.507,14.951 13.407,14.850 L7.500,8.944 L1.593,14.850 C1.493,14.951 1.378,15.001 1.248,15.001 C1.117,15.001 1.002,14.951 0.902,14.850 L0.151,14.099 C0.050,13.999 0.000,13.884 0.000,13.754 C0.000,13.623 0.050,13.508 0.151,13.407 L7.154,6.404 Z"/> </svg>