<svg 
 xmlns="http://www.w3.org/2000/svg"
 xmlns:xlink="http://www.w3.org/1999/xlink"
 width="0.292in" height="0.222in">
<path fill-rule="evenodd"  fill="rgb(213, 213, 214)"
 d="M19.694,-0.000 L1.735,-0.000 C1.013,-0.000 0.429,0.585 0.429,1.306 L0.429,14.694 C0.429,15.415 1.013,16.000 1.735,16.000 L19.694,16.000 C20.415,16.000 21.000,15.415 21.000,14.694 L21.000,1.306 C21.000,0.585 20.415,-0.000 19.694,-0.000 ZM19.694,1.306 L19.694,10.805 L17.120,8.465 C16.733,8.113 16.138,8.127 15.768,8.497 L13.163,11.102 L8.027,4.967 C7.638,4.503 6.927,4.498 6.533,4.956 L1.735,10.533 L1.735,1.306 L19.694,1.306 ZM14.143,4.735 C14.143,3.743 14.947,2.939 15.939,2.939 C16.931,2.939 17.735,3.743 17.735,4.735 C17.735,5.727 16.931,6.530 15.939,6.530 C14.947,6.530 14.143,5.727 14.143,4.735 Z"/>
</svg>