<svg 
 xmlns="http://www.w3.org/2000/svg"
 xmlns:xlink="http://www.w3.org/1999/xlink"
 width="0.208in" height="0.194in">
<path fill-rule="evenodd"  fill="rgb(249, 249, 250)"
 d="M1.284,6.225 C1.375,6.134 1.479,6.089 1.597,6.089 C1.714,6.089 1.819,6.134 1.909,6.225 L7.249,11.565 L12.589,6.225 C12.680,6.134 12.784,6.089 12.902,6.089 C13.020,6.089 13.124,6.134 13.214,6.225 L13.894,6.904 C13.984,6.995 14.030,7.099 14.030,7.216 C14.030,7.334 13.984,7.439 13.894,7.529 L7.562,13.861 C7.471,13.952 7.367,13.997 7.249,13.997 C7.131,13.997 7.027,13.952 6.937,13.861 L0.605,7.529 C0.514,7.439 0.469,7.334 0.469,7.216 C0.469,7.099 0.514,6.995 0.605,6.904 L1.284,6.225 ZM7.562,8.643 C7.471,8.734 7.367,8.779 7.249,8.779 C7.131,8.779 7.027,8.734 6.937,8.643 L0.605,2.311 C0.514,2.221 0.469,2.116 0.469,1.999 C0.469,1.881 0.514,1.777 0.605,1.686 L1.284,1.007 C1.375,0.916 1.479,0.871 1.597,0.871 C1.714,0.871 1.819,0.916 1.909,1.007 L7.249,6.347 L12.589,1.007 C12.680,0.916 12.784,0.871 12.902,0.871 C13.020,0.871 13.124,0.916 13.214,1.007 L13.894,1.686 C13.984,1.777 14.030,1.881 14.030,1.999 C14.030,2.116 13.984,2.221 13.894,2.311 L7.562,8.643 Z"/>
</svg>