<svg 
 xmlns="http://www.w3.org/2000/svg"
 xmlns:xlink="http://www.w3.org/1999/xlink"
 width="0.333in" height="0.222in">
<path fill-rule="evenodd"  fill="rgb(245, 43, 76)"
 d="M22.529,5.646 C22.513,5.628 22.500,5.611 22.482,5.593 L21.668,4.810 C22.343,4.657 23.070,4.092 23.070,3.513 C23.070,2.839 22.132,2.600 21.331,2.600 C20.494,2.600 20.397,3.172 20.387,3.576 L18.287,1.557 C17.860,1.135 17.051,0.804 16.447,0.804 L12.357,0.804 L12.356,0.804 L8.266,0.804 C7.661,0.804 6.853,1.135 6.425,1.557 L4.326,3.576 C4.316,3.172 4.218,2.600 3.382,2.600 C2.581,2.600 1.643,2.839 1.643,3.513 C1.643,4.092 2.370,4.657 3.045,4.810 L2.231,5.593 C2.213,5.611 2.200,5.628 2.184,5.646 C1.313,6.389 0.744,7.766 0.744,8.766 L0.744,11.735 C0.744,12.457 1.029,13.111 1.489,13.599 L1.489,14.750 C1.489,15.423 2.055,15.972 2.749,15.972 L4.273,15.972 C4.968,15.972 5.532,15.424 5.532,14.750 L5.532,14.455 L12.356,14.455 L12.357,14.455 L19.180,14.455 L19.180,14.750 C19.180,15.424 19.745,15.972 20.440,15.972 L21.963,15.972 C22.659,15.972 23.223,15.423 23.223,14.750 L23.223,13.599 C23.683,13.111 23.968,12.457 23.968,11.735 L23.968,8.766 C23.968,7.766 23.400,6.389 22.529,5.646 ZM7.197,2.454 C7.492,2.209 8.008,2.022 8.266,2.022 L12.356,2.022 L12.357,2.022 L16.447,2.022 C16.705,2.022 17.221,2.209 17.516,2.454 L20.269,5.117 L12.357,5.117 L12.356,5.117 L4.444,5.117 L7.197,2.454 ZM1.689,8.316 C1.689,7.585 2.263,6.991 2.971,6.991 C3.678,6.991 5.991,8.346 5.991,9.077 C5.991,9.808 3.678,9.639 2.971,9.639 C2.263,9.639 1.689,9.047 1.689,8.316 ZM5.533,13.152 L5.288,13.152 L5.044,13.152 L3.596,13.155 C3.194,13.031 2.911,12.884 2.711,12.728 C2.609,12.649 2.531,12.566 2.471,12.485 C2.410,12.402 2.365,12.321 2.336,12.240 C2.156,11.732 2.528,11.265 2.528,11.265 L4.999,11.265 L6.647,13.152 L5.533,13.152 L5.533,13.152 ZM15.910,13.153 L12.357,13.153 L12.356,13.153 L8.803,13.153 C8.062,13.153 7.461,12.554 7.461,11.814 L12.356,11.814 L12.357,11.814 L17.252,11.814 C17.252,12.554 16.650,13.153 15.910,13.153 ZM16.222,10.901 L12.357,10.901 L12.356,10.901 L8.491,10.901 C7.685,10.901 7.031,9.910 7.031,8.687 L12.356,8.687 L12.357,8.687 L17.682,8.687 C17.682,9.910 17.027,10.901 16.222,10.901 ZM22.377,12.240 C22.348,12.321 22.303,12.403 22.242,12.485 C22.182,12.567 22.104,12.649 22.002,12.728 C21.802,12.884 21.518,13.031 21.116,13.155 L19.668,13.153 L19.424,13.153 L19.180,13.153 L18.065,13.153 L19.714,11.266 L22.185,11.266 C22.185,11.265 22.557,11.732 22.377,12.240 ZM21.742,9.639 C21.035,9.639 18.722,9.808 18.722,9.077 C18.722,8.346 21.035,6.991 21.742,6.991 C22.450,6.991 23.024,7.585 23.024,8.316 C23.024,9.047 22.450,9.639 21.742,9.639 Z"/>
</svg>