<svg xmlns="http://www.w3.org/2000/svg" xmlns:xlink="http://www.w3.org/1999/xlink" width="0.370in" height="0.400in"><path fill-rule="evenodd"  fill="rgb(157, 157, 157)" d="M35.472,10.638 C34.520,10.638 33.746,11.412 33.746,12.364 C33.746,12.656 33.509,12.892 33.217,12.892 C32.925,12.892 32.689,12.656 32.689,12.364 C32.689,11.412 31.914,10.638 30.963,10.638 C30.671,10.638 30.434,10.401 30.434,10.109 C30.434,9.817 30.671,9.581 30.963,9.581 C31.915,9.581 32.689,8.806 32.689,7.855 C32.689,7.563 32.925,7.326 33.217,7.326 C33.509,7.326 33.746,7.563 33.746,7.855 C33.746,8.807 34.520,9.581 35.472,9.581 C35.763,9.581 36.000,9.817 36.000,10.109 C36.000,10.401 35.763,10.638 35.472,10.638 ZM33.217,9.484 C33.043,9.724 32.832,9.935 32.593,10.109 C32.832,10.283 33.043,10.494 33.217,10.734 C33.391,10.494 33.602,10.283 33.842,10.109 C33.602,9.935 33.391,9.724 33.217,9.484 ZM31.507,17.308 C31.566,17.073 31.777,16.907 32.020,16.907 L34.838,16.907 C35.129,16.907 35.366,17.144 35.366,17.436 L35.366,19.690 C35.366,19.982 35.129,20.219 34.837,20.219 L31.919,20.219 L33.720,22.741 C34.059,23.215 34.239,23.775 34.239,24.358 L34.239,30.962 C34.239,31.877 33.794,32.691 33.110,33.198 C33.111,33.204 33.111,33.211 33.111,33.217 L33.111,34.907 C33.111,35.510 32.622,36.000 32.019,36.000 L28.638,36.000 C28.036,36.000 27.546,35.510 27.546,34.907 L27.546,33.745 L8.313,33.745 L8.313,34.907 C8.313,35.510 7.823,36.000 7.221,36.000 L3.840,36.000 C3.237,36.000 2.748,35.510 2.748,34.907 L2.748,33.217 C2.748,33.211 2.748,33.204 2.748,33.198 C2.065,32.691 1.620,31.877 1.620,30.962 L1.620,24.358 C1.620,23.775 1.800,23.215 2.139,22.741 L3.940,20.219 L1.022,20.219 C0.730,20.219 0.493,19.982 0.493,19.690 L0.493,17.436 C0.493,17.144 0.730,16.907 1.022,16.907 L3.840,16.907 C4.082,16.907 4.293,17.073 4.352,17.308 L4.723,18.792 L7.319,11.438 C7.711,10.327 8.766,9.581 9.943,9.581 L25.916,9.581 C27.093,9.581 28.148,10.327 28.540,11.437 L31.136,18.792 L31.507,17.308 ZM34.309,19.162 L34.309,17.964 L32.432,17.964 L32.133,19.162 L34.309,19.162 ZM3.427,17.964 L1.550,17.964 L1.550,19.162 L3.726,19.162 L3.427,17.964 ZM28.603,34.907 C28.603,34.927 28.619,34.943 28.638,34.943 L32.020,34.943 C32.039,34.943 32.055,34.927 32.055,34.907 L32.055,33.745 L31.456,33.745 L28.603,33.745 L28.603,34.907 ZM3.804,34.907 C3.804,34.927 3.820,34.943 3.840,34.943 L7.221,34.943 C7.241,34.943 7.256,34.927 7.256,34.907 L7.256,33.745 L4.403,33.745 L3.804,33.745 L3.804,34.907 ZM4.403,32.688 L31.456,32.688 C32.223,32.688 32.875,32.185 33.099,31.491 L2.760,31.491 C2.984,32.185 3.636,32.688 4.403,32.688 ZM13.386,26.982 L13.386,28.179 L22.474,28.179 L22.474,26.982 L13.386,26.982 ZM22.391,25.925 C22.167,25.231 21.515,24.728 20.748,24.728 L15.112,24.728 C14.344,24.728 13.692,25.231 13.469,25.925 L22.391,25.925 ZM13.386,29.237 L13.386,30.434 L22.474,30.434 L22.474,29.237 L13.386,29.237 ZM26.947,19.162 L30.146,19.162 L27.543,11.789 C27.300,11.100 26.646,10.638 25.916,10.638 L9.943,10.638 C9.213,10.638 8.559,11.100 8.316,11.789 L5.714,19.162 L24.693,19.162 C24.985,19.162 25.221,19.399 25.221,19.690 C25.221,19.982 24.985,20.219 24.693,20.219 L5.239,20.219 L2.999,23.355 C2.788,23.649 2.677,23.996 2.677,24.358 L2.677,30.434 L12.329,30.434 L12.329,26.453 C12.329,24.919 13.577,23.671 15.112,23.671 L20.748,23.671 C22.282,23.671 23.530,24.919 23.530,26.453 L23.530,30.434 L33.182,30.434 L33.182,24.358 C33.182,23.996 33.071,23.649 32.861,23.355 L30.620,20.219 L26.947,20.219 C26.655,20.219 26.419,19.982 26.419,19.690 C26.419,19.399 26.655,19.162 26.947,19.162 ZM30.294,23.635 C30.294,23.927 30.057,24.164 29.765,24.164 L26.384,24.164 C26.092,24.164 25.855,23.927 25.855,23.635 C25.855,23.343 26.092,23.107 26.384,23.107 L29.765,23.107 C30.057,23.107 30.294,23.343 30.294,23.635 ZM6.858,17.823 L8.914,12.000 C9.067,11.564 9.481,11.272 9.943,11.272 L25.916,11.272 C26.378,11.272 26.792,11.564 26.945,12.000 L29.001,17.823 C29.058,17.985 29.033,18.164 28.934,18.305 C28.835,18.445 28.674,18.528 28.503,18.528 L7.357,18.528 C6.998,18.528 6.739,18.162 6.858,17.823 ZM27.756,17.471 L25.949,12.352 C25.944,12.338 25.930,12.328 25.916,12.328 L9.943,12.328 C9.929,12.328 9.915,12.338 9.910,12.352 L8.103,17.471 L27.756,17.471 ZM28.074,24.798 C29.951,24.798 31.421,25.773 31.421,27.018 C31.421,28.261 29.951,29.237 28.074,29.237 C26.198,29.237 24.728,28.261 24.728,27.018 C24.728,25.773 26.198,24.798 28.074,24.798 ZM28.074,28.179 C29.385,28.179 30.364,27.566 30.364,27.018 C30.364,26.468 29.385,25.855 28.074,25.855 C26.764,25.855 25.785,26.468 25.785,27.018 C25.785,27.566 26.764,28.179 28.074,28.179 ZM7.785,29.237 C5.908,29.237 4.438,28.261 4.438,27.018 C4.438,25.773 5.908,24.798 7.785,24.798 C9.661,24.798 11.131,25.773 11.131,27.018 C11.131,28.261 9.661,29.237 7.785,29.237 ZM7.785,25.855 C6.474,25.855 5.495,26.468 5.495,27.018 C5.495,27.566 6.474,28.179 7.785,28.179 C9.095,28.179 10.074,27.566 10.074,27.018 C10.074,26.468 9.095,25.855 7.785,25.855 ZM9.476,24.164 L6.094,24.164 C5.802,24.164 5.566,23.927 5.566,23.635 C5.566,23.343 5.802,23.107 6.094,23.107 L9.476,23.107 C9.767,23.107 10.004,23.343 10.004,23.635 C10.004,23.927 9.767,24.164 9.476,24.164 ZM20.818,3.874 C19.556,3.874 18.528,4.902 18.528,6.164 C18.528,6.456 18.292,6.692 18.000,6.692 C17.708,6.692 17.472,6.456 17.472,6.164 C17.472,4.902 16.444,3.874 15.182,3.874 C14.890,3.874 14.654,3.638 14.654,3.346 C14.654,3.054 14.890,2.818 15.182,2.818 C16.444,2.818 17.472,1.790 17.472,0.528 C17.472,0.236 17.708,-0.001 18.000,-0.001 C18.292,-0.001 18.528,0.236 18.528,0.528 C18.528,1.790 19.555,2.817 20.818,2.817 C21.110,2.817 21.346,3.054 21.346,3.346 C21.346,3.638 21.110,3.874 20.818,3.874 ZM18.000,2.331 C17.739,2.738 17.392,3.085 16.985,3.346 C17.392,3.607 17.739,3.954 18.000,4.361 C18.261,3.954 18.608,3.607 19.015,3.346 C18.608,3.085 18.261,2.738 18.000,2.331 ZM5.037,10.638 C4.086,10.638 3.311,11.412 3.311,12.364 C3.311,12.656 3.075,12.892 2.783,12.892 C2.491,12.892 2.254,12.656 2.254,12.364 C2.254,11.412 1.480,10.638 0.528,10.638 C0.237,10.638 -0.000,10.401 -0.000,10.109 C-0.000,9.817 0.237,9.581 0.528,9.581 C1.480,9.581 2.254,8.806 2.254,7.855 C2.254,7.563 2.491,7.326 2.783,7.326 C3.075,7.326 3.311,7.563 3.311,7.855 C3.311,8.807 4.086,9.581 5.037,9.581 C5.329,9.581 5.566,9.817 5.566,10.109 C5.566,10.401 5.329,10.638 5.037,10.638 ZM2.783,9.484 C2.609,9.724 2.398,9.935 2.158,10.109 C2.398,10.283 2.609,10.494 2.783,10.734 C2.957,10.494 3.168,10.283 3.407,10.109 C3.168,9.935 2.957,9.724 2.783,9.484 Z"/></svg>