<svg 
 xmlns="http://www.w3.org/2000/svg"
 xmlns:xlink="http://www.w3.org/1999/xlink"
 width="0.222in" height="0.222in">
<path fill-rule="evenodd"  fill="rgb(27, 40, 50)"
 d="M15.005,12.536 L12.108,12.536 C11.644,14.519 9.861,16.000 7.739,16.000 C5.615,16.000 3.833,14.519 3.369,12.536 L0.472,12.536 C0.211,12.536 -0.000,12.325 -0.000,12.065 L-0.000,1.408 C-0.000,1.148 0.211,0.936 0.472,0.936 L3.682,0.936 L3.682,0.471 C3.682,0.211 3.893,-0.001 4.154,-0.001 C4.415,-0.001 4.626,0.211 4.626,0.471 L4.626,0.936 L7.266,0.936 L7.266,0.471 C7.266,0.211 7.478,-0.001 7.739,-0.001 C7.999,-0.001 8.210,0.211 8.210,0.471 L8.210,0.936 L10.968,0.936 L10.968,0.471 C10.968,0.211 11.179,-0.001 11.440,-0.001 C11.701,-0.001 11.912,0.211 11.912,0.471 L11.912,0.936 L15.005,0.936 C15.266,0.936 15.477,1.148 15.477,1.408 L15.477,12.065 C15.477,12.325 15.266,12.536 15.005,12.536 ZM7.739,15.056 C9.693,15.056 11.283,13.467 11.283,11.515 C11.283,9.562 9.693,7.973 7.739,7.973 C5.784,7.973 4.194,9.562 4.194,11.515 C4.194,13.467 5.784,15.056 7.739,15.056 ZM0.944,11.593 L3.252,11.593 C3.252,11.567 3.250,11.541 3.250,11.515 C3.250,9.042 5.264,7.030 7.739,7.030 C10.213,7.030 12.227,9.042 12.227,11.515 C12.227,11.541 12.225,11.567 12.225,11.593 L14.533,11.593 L14.533,4.752 L0.944,4.752 L0.944,11.593 ZM14.533,1.880 L11.912,1.880 L11.912,2.306 C11.912,2.566 11.701,2.777 11.440,2.777 C11.179,2.777 10.968,2.566 10.968,2.306 L10.968,1.880 L8.210,1.880 L8.210,2.306 C8.210,2.566 7.999,2.777 7.739,2.777 C7.478,2.777 7.266,2.566 7.266,2.306 L7.266,1.880 L4.626,1.880 L4.626,2.306 C4.626,2.566 4.415,2.777 4.154,2.777 C3.893,2.777 3.682,2.566 3.682,2.306 L3.682,1.880 L0.944,1.880 L0.944,3.808 L14.533,3.808 L14.533,1.880 ZM7.739,8.880 C7.999,8.880 8.210,9.092 8.210,9.352 L8.210,11.634 L9.157,12.580 C9.341,12.764 9.341,13.062 9.157,13.247 C9.065,13.339 8.944,13.385 8.823,13.385 C8.703,13.385 8.582,13.339 8.490,13.247 L7.405,12.163 C7.316,12.074 7.266,11.954 7.266,11.829 L7.266,9.352 C7.266,9.092 7.478,8.880 7.739,8.880 Z"/>
</svg>