<svg 
 xmlns="http://www.w3.org/2000/svg"
 xmlns:xlink="http://www.w3.org/1999/xlink"
 width="0.278in" height="0.208in">
<path fill-rule="evenodd"  fill="rgb(27, 40, 50)"
 d="M18.564,14.999 L12.284,14.999 C12.027,14.999 11.816,14.789 11.816,14.532 L11.816,10.476 C11.816,10.218 12.027,10.008 12.284,10.008 L12.970,10.008 L12.970,8.916 C12.970,7.563 14.073,6.460 15.426,6.460 C16.779,6.460 17.882,7.563 17.882,8.916 L17.882,10.008 L18.568,10.008 C18.826,10.008 19.036,10.215 19.032,10.476 L19.032,14.532 C19.032,14.789 18.822,14.999 18.564,14.999 ZM16.947,8.913 C16.947,8.074 16.264,7.392 15.426,7.392 C14.588,7.392 13.906,8.074 13.906,8.913 L13.906,10.005 L16.947,10.005 L16.947,8.913 ZM18.097,10.940 L12.752,10.940 L12.752,14.060 L18.097,14.060 L18.097,10.940 ZM3.275,9.225 L5.524,9.225 C5.781,9.225 5.992,9.435 5.992,9.692 C5.992,9.950 5.781,10.160 5.524,10.160 L3.275,10.160 C3.017,10.160 2.807,9.950 2.807,9.692 C2.807,9.435 3.017,9.225 3.275,9.225 ZM8.842,6.787 L3.220,6.787 C2.959,6.787 2.752,6.577 2.752,6.319 C2.752,6.062 2.963,5.852 3.220,5.852 L8.842,5.852 C9.099,5.852 9.309,6.062 9.309,6.319 C9.309,6.577 9.099,6.787 8.842,6.787 ZM8.896,8.483 L3.275,8.483 C3.017,8.483 2.807,8.273 2.807,8.015 C2.807,7.758 3.017,7.548 3.275,7.548 L8.896,7.548 C9.154,7.548 9.364,7.758 9.364,8.015 C9.364,8.273 9.157,8.483 8.896,8.483 ZM17.329,5.945 C17.071,5.945 16.861,5.734 16.861,5.477 L16.861,4.541 L0.936,4.541 L0.936,11.662 C0.936,11.869 1.103,12.036 1.310,12.036 L10.339,12.036 C10.600,12.036 10.810,12.247 10.810,12.504 C10.810,12.761 10.600,12.972 10.343,12.972 L1.310,12.972 C0.589,12.972 -0.000,12.383 -0.000,11.662 L-0.000,2.104 C-0.000,1.383 0.585,0.794 1.310,0.794 L16.487,0.794 C17.208,0.794 17.796,1.383 17.796,2.104 L17.796,5.477 C17.796,5.734 17.586,5.945 17.329,5.945 ZM16.861,2.104 C16.861,1.897 16.693,1.730 16.487,1.730 L1.310,1.730 C1.103,1.730 0.932,1.897 0.932,2.104 L0.932,3.605 L16.861,3.605 L16.861,2.104 Z"/>
</svg>