<svg 
 xmlns="http://www.w3.org/2000/svg"
 xmlns:xlink="http://www.w3.org/1999/xlink"
 width="0.700in" height="0.778in">
<path fill-rule="evenodd"  fill="rgb(147, 162, 216)"
 d="M40.250,31.501 C31.565,31.501 24.500,24.435 24.500,15.750 C24.500,7.065 31.565,-0.000 40.250,-0.000 C48.935,-0.000 56.000,7.065 56.000,15.750 C56.000,24.435 48.935,31.501 40.250,31.501 ZM40.250,1.750 C32.530,1.750 26.250,8.030 26.250,15.750 C26.250,23.470 32.530,29.750 40.250,29.750 C47.970,29.750 54.250,23.470 54.250,15.750 C54.250,8.030 47.970,1.750 40.250,1.750 ZM49.000,14.875 C48.517,14.875 48.125,14.483 48.125,14.000 L48.125,10.862 L40.869,18.119 C40.869,18.119 40.869,18.119 40.869,18.119 C40.740,18.247 40.583,18.327 40.417,18.359 C40.362,18.370 40.306,18.375 40.250,18.375 C40.194,18.375 40.138,18.370 40.083,18.359 C39.917,18.327 39.759,18.247 39.631,18.119 L37.625,16.112 L31.244,22.494 C31.073,22.665 30.849,22.750 30.625,22.750 C30.401,22.750 30.177,22.665 30.006,22.494 C29.665,22.152 29.665,21.599 30.006,21.256 L37.006,14.256 C37.348,13.914 37.902,13.914 38.244,14.256 L40.250,16.263 L46.888,9.625 L43.750,9.625 C43.267,9.625 42.875,9.233 42.875,8.750 C42.875,8.267 43.267,7.875 43.750,7.875 L49.000,7.875 C49.029,7.875 49.057,7.876 49.086,7.879 C49.099,7.880 49.111,7.883 49.123,7.885 C49.139,7.887 49.155,7.888 49.171,7.892 C49.185,7.894 49.199,7.899 49.213,7.902 C49.227,7.906 49.241,7.908 49.254,7.912 C49.268,7.917 49.281,7.922 49.295,7.927 C49.308,7.931 49.322,7.936 49.335,7.942 C49.348,7.946 49.360,7.953 49.373,7.959 C49.386,7.965 49.399,7.971 49.412,7.978 C49.425,7.984 49.436,7.992 49.448,8.000 C49.461,8.007 49.473,8.014 49.486,8.022 C49.499,8.031 49.512,8.041 49.524,8.050 C49.534,8.058 49.545,8.065 49.554,8.073 C49.599,8.110 49.640,8.151 49.677,8.195 C49.685,8.205 49.692,8.215 49.699,8.226 C49.709,8.238 49.719,8.251 49.728,8.264 C49.736,8.276 49.743,8.289 49.751,8.302 C49.758,8.314 49.765,8.325 49.772,8.338 C49.779,8.350 49.784,8.364 49.791,8.377 C49.797,8.390 49.803,8.402 49.808,8.415 C49.814,8.428 49.818,8.441 49.823,8.455 C49.828,8.468 49.833,8.482 49.837,8.496 C49.841,8.509 49.844,8.522 49.847,8.536 C49.851,8.550 49.855,8.564 49.858,8.579 C49.861,8.594 49.863,8.611 49.865,8.627 C49.867,8.639 49.869,8.651 49.871,8.664 C49.873,8.692 49.875,8.721 49.875,8.750 L49.875,14.000 C49.875,14.483 49.483,14.875 49.000,14.875 ZM24.480,23.221 C24.390,23.630 24.028,23.908 23.626,23.908 C23.564,23.908 23.500,23.902 23.437,23.887 C20.263,23.187 16.876,23.038 13.363,23.441 C12.812,24.479 11.358,27.422 11.358,29.586 L11.358,30.636 C11.358,33.278 12.320,35.954 13.997,37.976 C15.691,40.019 17.867,41.144 20.122,41.144 C22.377,41.144 24.549,40.020 26.238,37.979 C27.909,35.960 28.868,33.285 28.868,30.642 L28.868,30.626 C28.868,30.142 29.259,29.751 29.743,29.751 C30.226,29.751 30.618,30.142 30.618,30.626 L30.618,30.642 C30.618,33.686 29.513,36.767 27.586,39.095 C25.558,41.545 22.908,42.894 20.122,42.894 C17.337,42.894 14.683,41.544 12.650,39.093 C10.717,36.762 9.608,33.680 9.608,30.636 L9.608,30.636 L9.608,29.216 C9.419,28.412 8.257,23.363 8.257,20.631 C8.257,18.964 8.774,17.432 9.713,16.319 C10.730,15.114 12.205,14.450 13.866,14.450 C13.892,14.450 13.918,14.452 13.944,14.454 C16.362,12.777 19.375,13.001 22.022,13.451 C22.499,13.532 22.819,13.984 22.738,14.460 C22.657,14.937 22.205,15.257 21.729,15.177 C19.244,14.754 16.681,14.565 14.762,16.022 C14.604,16.142 14.418,16.200 14.234,16.200 C14.172,16.200 14.110,16.193 14.050,16.180 C13.991,16.192 13.929,16.200 13.866,16.200 C11.945,16.200 10.007,17.570 10.007,20.631 C10.007,21.867 10.281,23.690 10.580,25.311 C11.239,23.610 12.001,22.281 12.057,22.184 C12.211,21.916 12.486,21.762 12.773,21.748 C16.618,21.266 20.332,21.410 23.814,22.178 C24.286,22.283 24.584,22.750 24.480,23.221 ZM11.669,41.641 C11.678,41.627 11.689,41.613 11.699,41.598 C11.949,41.265 12.330,41.044 12.744,40.994 C13.159,40.944 13.581,41.066 13.904,41.330 C13.910,41.335 13.915,41.340 13.921,41.345 L20.111,46.673 L26.301,41.345 C26.306,41.340 26.312,41.335 26.317,41.330 C26.640,41.066 27.063,40.944 27.477,40.994 C27.891,41.044 28.272,41.265 28.522,41.598 C28.533,41.613 28.543,41.627 28.553,41.641 L29.929,43.728 L35.135,44.817 C35.154,44.821 35.173,44.826 35.192,44.832 C36.705,45.256 37.993,46.194 38.916,47.546 C39.758,48.778 40.221,50.267 40.221,51.737 L40.221,53.382 C40.221,54.825 38.936,55.999 37.356,55.999 L22.103,55.999 C22.102,55.999 22.100,55.999 22.099,55.999 C22.098,55.999 22.097,55.999 22.096,55.999 L18.125,55.999 C18.124,55.999 18.123,55.999 18.122,55.999 C18.120,55.999 18.119,55.999 18.118,55.999 L2.865,55.999 C1.285,55.999 -0.000,54.825 -0.000,53.382 L-0.000,51.737 C-0.000,50.267 0.464,48.778 1.305,47.546 C2.228,46.194 3.516,45.255 5.029,44.832 C5.048,44.826 5.067,44.821 5.086,44.817 L10.292,43.728 L11.669,41.641 ZM20.985,50.277 L20.985,49.940 L20.111,49.065 L19.236,49.940 L19.236,50.277 C19.236,50.565 19.411,50.756 19.527,50.756 L20.694,50.756 C20.810,50.756 20.986,50.565 20.986,50.277 L20.985,50.277 ZM22.818,54.250 L37.356,54.250 C37.961,54.250 38.471,53.852 38.471,53.382 L38.471,51.737 C38.471,49.672 37.192,47.225 34.747,46.525 L29.772,45.483 L24.798,52.323 C24.648,52.529 24.414,52.660 24.159,52.680 C24.136,52.682 24.113,52.683 24.090,52.683 C23.859,52.683 23.636,52.591 23.472,52.427 L22.451,51.406 C22.405,51.492 22.354,51.574 22.298,51.651 L22.818,54.250 ZM23.985,50.465 L28.333,44.487 L27.246,42.840 L21.396,47.876 L23.985,50.465 ZM21.033,54.250 L20.685,52.507 L19.537,52.507 L19.188,54.250 L21.033,54.250 ZM18.825,47.876 L12.975,42.840 L11.889,44.487 L16.236,50.465 L18.825,47.876 ZM1.750,51.737 L1.750,53.382 C1.750,53.852 2.261,54.249 2.865,54.249 L17.403,54.249 L17.923,51.651 C17.867,51.574 17.816,51.492 17.770,51.406 L16.750,52.427 C16.585,52.591 16.362,52.683 16.131,52.683 C16.108,52.683 16.085,52.682 16.062,52.680 C15.807,52.660 15.574,52.529 15.423,52.322 L10.450,45.483 L5.475,46.524 C3.029,47.225 1.750,49.672 1.750,51.737 Z"/>
</svg>