<svg 
 xmlns="http://www.w3.org/2000/svg"
 xmlns:xlink="http://www.w3.org/1999/xlink"
 width="6.944in" height="4.625in">
<path fill-rule="evenodd"  fill="rgb(191, 206, 220)"
 d="M499.705,6.910 C499.705,6.893 499.697,6.868 499.697,6.851 C499.506,5.811 499.149,4.862 498.600,3.996 C498.592,3.988 498.592,3.971 498.592,3.962 C498.584,3.946 498.567,3.937 498.559,3.921 C498.035,3.105 497.404,2.406 496.631,1.815 C496.474,1.690 496.307,1.598 496.141,1.481 C495.518,1.074 494.879,0.733 494.156,0.507 C493.699,0.349 493.234,0.299 492.760,0.224 C492.395,0.175 492.071,0.008 491.689,0.008 L491.655,0.008 C491.331,-0.001 491.107,0.033 490.875,0.058 C490.800,0.066 490.733,0.058 490.659,0.066 C490.584,0.074 490.501,0.066 490.418,0.083 C490.193,0.116 489.969,0.149 489.753,0.200 L7.496,100.077 C4.066,100.793 1.440,103.582 0.950,107.062 C0.460,110.542 2.196,113.955 5.295,115.595 L143.460,188.632 L167.692,323.392 C167.675,323.492 167.700,323.600 167.692,323.700 C167.609,324.366 167.601,325.015 167.684,325.673 C167.725,326.006 167.767,326.323 167.850,326.647 C168.041,327.438 168.348,328.179 168.764,328.878 C168.847,329.012 168.847,329.169 168.938,329.303 C168.963,329.345 169.005,329.378 169.038,329.411 C169.146,329.569 169.295,329.694 169.420,329.853 C169.810,330.335 170.217,330.777 170.683,331.151 C170.757,331.209 170.807,331.301 170.890,331.359 C171.015,331.451 171.156,331.475 171.281,331.559 C171.788,331.892 172.311,332.167 172.867,332.383 C173.092,332.466 173.299,332.567 173.532,332.633 C174.280,332.849 175.052,332.999 175.833,332.999 C175.841,332.999 175.850,332.999 175.858,332.999 L175.858,332.999 L175.858,332.999 C175.891,332.999 175.924,332.982 175.958,332.982 C176.099,332.991 176.240,332.999 176.381,332.999 C178.682,332.999 180.759,331.967 182.296,330.377 L274.331,268.887 L370.695,331.659 C372.057,332.541 373.635,332.999 375.222,332.999 C376.094,332.999 376.983,332.858 377.839,332.575 C380.231,331.776 382.142,329.928 383.014,327.547 L498.783,12.645 C499.556,11.389 499.996,9.898 499.996,8.308 C499.988,7.825 499.788,7.384 499.705,6.910 ZM403.466,62.880 L204.152,209.753 C203.828,209.994 203.571,210.294 203.288,210.577 C203.180,210.677 203.072,210.761 202.981,210.868 C202.806,211.060 202.649,211.251 202.491,211.459 C202.341,211.660 202.225,211.868 202.092,212.076 C201.785,212.575 201.527,213.092 201.328,213.641 C201.286,213.749 201.220,213.832 201.187,213.941 C201.178,213.974 201.145,213.991 201.137,214.024 L178.292,288.426 L160.191,187.767 L403.466,62.880 ZM191.168,304.444 L213.814,229.484 L249.069,252.453 L259.154,259.022 L224.895,281.907 L191.168,304.444 Z"/>
</svg>