<svg fill="white"
 xmlns="http://www.w3.org/2000/svg"
 xmlns:xlink="http://www.w3.org/1999/xlink"
 width="0.181in" height="0.181in">
<path fill-rule="evenodd"
 d="M11.770,10.267 L9.565,10.267 C9.212,11.775 7.855,12.902 6.240,12.902 C4.624,12.902 3.267,11.775 2.914,10.267 L0.709,10.267 C0.511,10.267 0.350,10.106 0.350,9.907 L0.350,1.797 C0.350,1.599 0.511,1.438 0.709,1.438 L3.152,1.438 L3.152,1.084 C3.152,0.886 3.313,0.725 3.511,0.725 C3.710,0.725 3.871,0.886 3.871,1.084 L3.871,1.438 L5.880,1.438 L5.880,1.084 C5.880,0.886 6.041,0.725 6.240,0.725 C6.438,0.725 6.599,0.886 6.599,1.084 L6.599,1.438 L8.698,1.438 L8.698,1.084 C8.698,0.886 8.858,0.725 9.057,0.725 C9.255,0.725 9.416,0.886 9.416,1.084 L9.416,1.438 L11.770,1.438 C11.968,1.438 12.129,1.599 12.129,1.797 L12.129,9.907 C12.129,10.106 11.968,10.267 11.770,10.267 ZM6.240,12.184 C7.727,12.184 8.937,10.975 8.937,9.489 C8.937,8.003 7.727,6.793 6.240,6.793 C4.752,6.793 3.542,8.003 3.542,9.489 C3.542,10.975 4.752,12.184 6.240,12.184 ZM1.068,9.549 L2.825,9.549 C2.825,9.529 2.823,9.509 2.823,9.489 C2.823,7.607 4.356,6.076 6.240,6.076 C8.123,6.076 9.656,7.607 9.656,9.489 C9.656,9.509 9.654,9.529 9.654,9.549 L11.411,9.549 L11.411,4.342 L1.068,4.342 L1.068,9.549 ZM11.411,2.156 L9.416,2.156 L9.416,2.480 C9.416,2.678 9.255,2.839 9.057,2.839 C8.858,2.839 8.698,2.678 8.698,2.480 L8.698,2.156 L6.599,2.156 L6.599,2.480 C6.599,2.678 6.438,2.839 6.240,2.839 C6.041,2.839 5.880,2.678 5.880,2.480 L5.880,2.156 L3.871,2.156 L3.871,2.480 C3.871,2.678 3.710,2.839 3.511,2.839 C3.313,2.839 3.152,2.678 3.152,2.480 L3.152,2.156 L1.068,2.156 L1.068,3.624 L11.411,3.624 L11.411,2.156 ZM6.240,7.484 C6.438,7.484 6.599,7.645 6.599,7.843 L6.599,9.580 L7.319,10.299 C7.459,10.440 7.459,10.667 7.319,10.807 C7.249,10.877 7.157,10.912 7.065,10.912 C6.973,10.912 6.881,10.877 6.811,10.807 L5.986,9.982 C5.918,9.915 5.880,9.823 5.880,9.728 L5.880,7.843 C5.880,7.645 6.041,7.484 6.240,7.484 Z"/>
</svg>
