<svg 
 xmlns="http://www.w3.org/2000/svg"
 xmlns:xlink="http://www.w3.org/1999/xlink"
 width="0.153in" height="0.153in">
<path fill-rule="evenodd"  fill="rgb(213, 213, 214)"
 d="M10.435,6.713 L9.032,5.311 C8.655,4.934 8.197,4.745 7.657,4.745 C7.109,4.745 6.642,4.942 6.255,5.338 L5.662,4.745 C6.057,4.358 6.255,3.889 6.255,3.336 C6.255,2.796 6.069,2.340 5.695,1.967 L4.307,0.572 C3.934,0.190 3.475,-0.001 2.931,-0.001 C2.392,-0.001 1.936,0.185 1.563,0.558 L0.572,1.542 C0.190,1.916 -0.001,2.372 -0.001,2.911 C-0.001,3.451 0.188,3.909 0.565,4.286 L1.967,5.689 C2.345,6.066 2.803,6.255 3.343,6.255 C3.891,6.255 4.358,6.057 4.745,5.662 L5.338,6.255 C4.943,6.641 4.745,7.111 4.745,7.664 C4.745,8.203 4.931,8.659 5.304,9.032 L6.693,10.428 C7.066,10.810 7.525,11.001 8.068,11.001 C8.608,11.001 9.064,10.814 9.437,10.441 L10.428,9.457 C10.810,9.084 11.001,8.628 11.001,8.089 C11.001,7.549 10.812,7.091 10.435,6.713 ZM4.745,3.828 C4.731,3.815 4.690,3.772 4.620,3.700 C4.551,3.628 4.502,3.580 4.475,3.555 C4.448,3.530 4.406,3.497 4.347,3.454 C4.289,3.411 4.231,3.382 4.175,3.366 C4.119,3.350 4.057,3.343 3.990,3.343 C3.810,3.343 3.657,3.406 3.531,3.531 C3.406,3.657 3.343,3.810 3.343,3.990 C3.343,4.057 3.351,4.119 3.366,4.175 C3.382,4.231 3.411,4.289 3.454,4.347 C3.497,4.406 3.530,4.448 3.555,4.475 C3.580,4.502 3.628,4.551 3.700,4.620 C3.772,4.690 3.814,4.731 3.828,4.745 C3.693,4.884 3.531,4.954 3.343,4.954 C3.158,4.954 3.006,4.893 2.884,4.772 L1.482,3.370 C1.356,3.244 1.293,3.091 1.293,2.911 C1.293,2.736 1.356,2.585 1.482,2.459 L2.473,1.475 C2.603,1.354 2.756,1.293 2.931,1.293 C3.111,1.293 3.264,1.356 3.390,1.482 L4.779,2.877 C4.904,3.003 4.967,3.156 4.967,3.336 C4.967,3.524 4.893,3.689 4.745,3.828 ZM9.518,8.540 L8.527,9.524 C8.401,9.641 8.248,9.700 8.069,9.700 C7.884,9.700 7.732,9.639 7.610,9.518 L6.222,8.122 C6.096,7.996 6.033,7.844 6.033,7.664 C6.033,7.475 6.107,7.311 6.255,7.172 C6.269,7.185 6.310,7.228 6.380,7.300 C6.450,7.372 6.498,7.420 6.525,7.445 C6.552,7.470 6.595,7.503 6.653,7.546 C6.712,7.589 6.769,7.618 6.825,7.634 C6.881,7.649 6.943,7.657 7.010,7.657 C7.190,7.657 7.343,7.594 7.469,7.469 C7.595,7.343 7.658,7.190 7.658,7.010 C7.658,6.943 7.650,6.881 7.634,6.825 C7.618,6.769 7.589,6.711 7.546,6.653 C7.503,6.594 7.470,6.552 7.445,6.525 C7.420,6.498 7.372,6.449 7.300,6.380 C7.228,6.310 7.186,6.269 7.172,6.255 C7.307,6.111 7.469,6.039 7.657,6.039 C7.837,6.039 7.990,6.102 8.116,6.228 L9.518,7.630 C9.644,7.756 9.707,7.909 9.707,8.089 C9.707,8.264 9.644,8.415 9.518,8.540 Z"/>
</svg>