<svg 
 xmlns="http://www.w3.org/2000/svg"
 xmlns:xlink="http://www.w3.org/1999/xlink"
 width="0.278in" height="0.194in">
<path fill-rule="evenodd"  fill="rgb(244, 244, 244)"
 d="M19.252,9.856 C19.247,9.975 19.148,10.068 19.031,10.068 C19.027,10.068 19.024,10.068 19.020,10.067 L16.360,9.944 C16.301,9.942 16.246,9.916 16.207,9.873 C16.167,9.829 16.146,9.772 16.149,9.713 C16.153,9.613 16.156,9.520 16.156,9.430 C16.156,8.813 16.063,8.205 15.881,7.624 C15.844,7.507 15.909,7.382 16.026,7.346 L18.567,6.550 C18.684,6.514 18.809,6.579 18.845,6.696 C19.122,7.578 19.262,8.498 19.262,9.430 C19.262,9.569 19.259,9.708 19.252,9.856 ZM17.895,5.053 L15.610,6.418 C15.574,6.439 15.535,6.449 15.496,6.449 C15.421,6.449 15.347,6.411 15.306,6.341 C14.941,5.732 14.477,5.196 13.925,4.748 C13.880,4.711 13.850,4.657 13.844,4.599 C13.838,4.540 13.856,4.481 13.893,4.436 L15.573,2.372 C15.610,2.326 15.664,2.297 15.723,2.291 C15.781,2.285 15.840,2.303 15.885,2.340 C16.719,3.018 17.421,3.828 17.972,4.748 C18.002,4.799 18.011,4.859 17.997,4.916 C17.982,4.973 17.946,5.022 17.895,5.053 ZM13.033,3.890 C13.007,3.943 12.962,3.983 12.906,4.003 C12.883,4.011 12.858,4.015 12.833,4.015 C12.800,4.015 12.767,4.008 12.737,3.993 C12.099,3.686 11.418,3.496 10.711,3.427 C10.589,3.415 10.500,3.307 10.512,3.185 L10.768,0.537 C10.774,0.478 10.803,0.424 10.848,0.387 C10.894,0.350 10.952,0.332 11.011,0.337 C12.083,0.441 13.117,0.730 14.086,1.197 C14.196,1.250 14.242,1.382 14.189,1.493 L13.033,3.890 ZM11.584,9.568 C11.977,9.961 12.194,10.483 12.194,11.039 C12.194,11.594 11.977,12.116 11.584,12.509 C11.191,12.902 10.668,13.118 10.112,13.118 C9.556,13.118 9.034,12.902 8.641,12.509 C8.248,12.116 8.031,11.594 8.031,11.039 C8.031,10.966 8.035,10.895 8.042,10.824 L6.076,7.141 C6.028,7.051 6.046,6.940 6.120,6.869 C6.193,6.798 6.305,6.785 6.394,6.837 L9.998,8.962 C10.036,8.960 10.074,8.959 10.112,8.959 C10.668,8.959 11.191,9.175 11.584,9.568 ZM9.300,3.454 C8.597,3.549 7.923,3.766 7.297,4.098 C7.264,4.115 7.228,4.123 7.193,4.123 C7.114,4.123 7.037,4.081 6.997,4.006 L5.749,1.655 C5.692,1.547 5.733,1.412 5.841,1.355 C6.792,0.851 7.815,0.522 8.882,0.378 C9.003,0.361 9.115,0.446 9.132,0.568 L9.490,3.204 C9.506,3.326 9.421,3.438 9.300,3.454 ZM6.213,4.746 C6.209,4.804 6.182,4.859 6.138,4.898 C5.603,5.367 5.160,5.921 4.820,6.542 C4.780,6.616 4.703,6.658 4.625,6.658 C4.589,6.658 4.552,6.649 4.519,6.630 L2.182,5.354 C2.131,5.326 2.092,5.279 2.076,5.222 C2.059,5.166 2.066,5.105 2.094,5.053 C2.609,4.113 3.279,3.276 4.087,2.566 C4.131,2.528 4.189,2.508 4.248,2.512 C4.306,2.516 4.361,2.542 4.400,2.587 L6.158,4.585 C6.197,4.629 6.216,4.687 6.213,4.746 ZM4.295,7.846 C4.155,8.359 4.085,8.892 4.085,9.430 C4.085,9.521 4.087,9.613 4.092,9.713 C4.094,9.772 4.074,9.829 4.034,9.873 C3.994,9.916 3.939,9.942 3.880,9.945 L1.220,10.067 C1.217,10.068 1.213,10.068 1.210,10.068 C1.092,10.068 0.994,9.975 0.989,9.856 C0.982,9.708 0.978,9.569 0.978,9.430 C0.978,8.617 1.085,7.811 1.297,7.033 C1.312,6.976 1.349,6.928 1.400,6.898 C1.452,6.869 1.512,6.862 1.569,6.877 L4.139,7.573 C4.257,7.606 4.327,7.727 4.295,7.846 Z"/>
</svg>