<svg 
 xmlns="http://www.w3.org/2000/svg"
 xmlns:xlink="http://www.w3.org/1999/xlink"
 width="0.222in" height="0.236in">
<path fill-rule="evenodd"  fill="rgb(255, 255, 255)"
 d="M8.571,16.872 C8.474,16.900 8.375,16.914 8.276,16.914 C8.176,16.914 8.077,16.900 7.980,16.872 C3.532,15.578 0.875,12.828 0.875,9.515 L0.876,1.058 C0.876,0.651 1.110,0.280 1.477,0.104 C1.842,-0.072 2.278,-0.021 2.596,0.234 C3.914,1.295 6.293,1.296 7.613,0.234 C8.000,-0.077 8.551,-0.077 8.938,0.234 C10.257,1.295 12.634,1.296 13.955,0.234 C14.273,-0.021 14.708,-0.072 15.075,0.104 C15.442,0.280 15.675,0.651 15.675,1.058 L15.675,9.515 C15.675,12.828 13.020,15.578 8.571,16.872 ZM11.447,8.457 C11.447,7.873 10.974,7.400 10.390,7.400 L10.390,6.343 C10.390,5.178 9.442,4.229 8.276,4.229 C7.109,4.229 6.161,5.178 6.161,6.343 L6.161,7.400 C5.577,7.400 5.104,7.873 5.104,8.457 L5.104,10.572 C5.104,11.156 5.577,11.628 6.161,11.628 L10.390,11.628 C10.974,11.628 11.447,11.156 11.447,10.572 L11.447,8.457 ZM7.218,6.343 C7.218,5.760 7.693,5.286 8.276,5.286 C8.858,5.286 9.333,5.760 9.333,6.343 L9.333,7.400 L7.218,7.400 L7.218,6.343 ZM8.276,8.986 C8.567,8.986 8.804,9.222 8.804,9.514 C8.804,9.807 8.567,10.043 8.276,10.043 C7.984,10.043 7.747,9.807 7.747,9.514 C7.747,9.222 7.984,8.986 8.276,8.986 Z"/>
</svg>