<svg 
 xmlns="http://www.w3.org/2000/svg"
 xmlns:xlink="http://www.w3.org/1999/xlink"
 width="0.278in" height="0.181in">
<path fill-rule="evenodd"  fill="rgb(255, 255, 255)"
 d="M17.869,4.429 C17.856,4.414 17.846,4.400 17.831,4.386 L17.163,3.743 C17.717,3.617 18.313,3.155 18.313,2.680 C18.313,2.127 17.544,1.930 16.887,1.930 C16.200,1.930 16.121,2.400 16.112,2.731 L14.390,1.075 C14.040,0.729 13.376,0.456 12.880,0.456 L9.525,0.456 L9.525,0.456 L6.169,0.456 C5.674,0.456 5.010,0.729 4.660,1.075 L2.938,2.731 C2.929,2.400 2.849,1.930 2.164,1.930 C1.506,1.930 0.737,2.127 0.737,2.680 C0.737,3.155 1.334,3.617 1.887,3.743 L1.220,4.386 C1.204,4.400 1.194,4.414 1.181,4.429 C0.467,5.039 -0.000,6.168 -0.000,6.988 L-0.000,9.424 C-0.000,10.016 0.234,10.552 0.611,10.952 L0.611,11.897 C0.611,12.449 1.075,12.899 1.645,12.899 L2.894,12.899 C3.464,12.899 3.927,12.450 3.927,11.897 L3.927,11.655 L9.525,11.655 L9.525,11.655 L15.123,11.655 L15.123,11.897 C15.123,12.450 15.586,12.899 16.156,12.899 L17.405,12.899 C17.976,12.899 18.438,12.449 18.438,11.897 L18.438,10.952 C18.816,10.552 19.050,10.016 19.050,9.424 L19.050,6.988 C19.050,6.168 18.584,5.039 17.869,4.429 ZM5.293,1.811 C5.535,1.610 5.958,1.457 6.169,1.457 L9.525,1.457 L9.525,1.457 L12.881,1.457 C13.092,1.457 13.515,1.610 13.757,1.811 L16.016,3.995 L9.525,3.995 L9.525,3.995 L3.035,3.995 L5.293,1.811 ZM0.775,6.619 C0.775,6.019 1.245,5.532 1.826,5.532 C2.407,5.532 4.303,6.643 4.303,7.243 C4.303,7.843 2.407,7.705 1.826,7.705 C1.245,7.705 0.775,7.219 0.775,6.619 ZM3.928,10.586 L3.727,10.586 L3.527,10.586 L2.339,10.588 C2.010,10.486 1.777,10.366 1.613,10.238 C1.530,10.173 1.466,10.106 1.416,10.039 C1.366,9.971 1.329,9.904 1.306,9.838 C1.158,9.421 1.463,9.038 1.463,9.038 L3.490,9.038 L4.842,10.586 L3.928,10.586 L3.928,10.586 ZM12.440,10.587 L9.525,10.587 L9.525,10.587 L6.610,10.587 C6.003,10.587 5.509,10.095 5.509,9.489 L9.525,9.489 L9.525,9.489 L13.541,9.489 C13.541,10.095 13.047,10.587 12.440,10.587 ZM12.696,8.740 L9.525,8.740 L9.525,8.740 L6.355,8.740 C5.693,8.740 5.157,7.927 5.157,6.924 L9.525,6.924 L9.525,6.924 L13.893,6.924 C13.893,7.927 13.356,8.740 12.696,8.740 ZM17.745,9.838 C17.721,9.904 17.684,9.972 17.634,10.039 C17.585,10.106 17.521,10.173 17.437,10.238 C17.273,10.367 17.041,10.487 16.711,10.589 L15.523,10.587 L15.323,10.587 L15.123,10.587 L14.208,10.587 L15.560,9.039 L17.587,9.039 C17.587,9.038 17.892,9.421 17.745,9.838 ZM17.224,7.705 C16.644,7.705 14.747,7.843 14.747,7.243 C14.747,6.644 16.644,5.532 17.224,5.532 C17.805,5.532 18.275,6.019 18.275,6.619 C18.275,7.219 17.805,7.705 17.224,7.705 Z"/>
</svg>