<svg 
 xmlns="http://www.w3.org/2000/svg"
 xmlns:xlink="http://www.w3.org/1999/xlink"
 width="0.25in" height="0.236in">
<path fill-rule="evenodd"  fill="rgb(255, 255, 255)"
 d="M17.184,16.528 C17.184,16.794 16.969,17.010 16.702,17.010 L10.886,17.010 C10.620,17.010 10.404,16.794 10.404,16.528 C10.404,14.668 11.918,13.122 13.778,13.122 C15.638,13.122 17.184,14.668 17.184,16.528 ZM11.850,11.194 C11.850,10.130 12.715,9.266 13.778,9.266 C14.841,9.266 15.706,10.130 15.706,11.194 C15.706,12.257 14.841,13.122 13.778,13.122 C12.715,13.122 11.850,12.257 11.850,11.194 ZM11.850,8.301 L6.066,8.301 C5.800,8.301 5.584,8.086 5.584,7.820 C5.584,5.960 7.098,4.446 8.958,4.446 C10.818,4.446 12.332,5.960 12.332,7.820 C12.332,8.086 12.116,8.301 11.850,8.301 ZM7.030,2.518 C7.030,1.454 7.895,0.558 8.958,0.558 C10.021,0.558 10.886,1.454 10.886,2.518 C10.886,3.581 10.021,4.446 8.958,4.446 C7.895,4.446 7.030,3.581 7.030,2.518 ZM4.138,13.122 C3.075,13.122 2.210,12.257 2.210,11.194 C2.210,10.130 3.075,9.266 4.138,9.266 C5.201,9.266 6.066,10.130 6.066,11.194 C6.066,12.257 5.201,13.122 4.138,13.122 ZM7.512,16.528 C7.512,16.794 7.296,17.010 7.030,17.010 L1.214,17.010 C0.947,17.010 0.732,16.794 0.732,16.528 C0.732,14.668 2.278,13.122 4.138,13.122 C5.998,13.122 7.512,14.668 7.512,16.528 ZM8.958,9.266 C9.224,9.266 9.440,9.481 9.440,9.748 L9.440,11.378 L11.102,12.209 C11.340,12.328 11.436,12.617 11.317,12.855 C11.199,13.092 10.911,13.191 10.670,13.071 L8.958,12.215 L7.246,13.071 C7.005,13.191 6.717,13.092 6.599,12.855 C6.480,12.617 6.576,12.328 6.814,12.209 L8.476,11.378 L8.476,9.748 C8.476,9.481 8.692,9.266 8.958,9.266 Z"/>
</svg>