<svg 
 xmlns="http://www.w3.org/2000/svg"
 xmlns:xlink="http://www.w3.org/1999/xlink"
 width="0.25in" height="0.167in">
<path fill-rule="evenodd"  fill="rgb(248, 248, 248)"
 d="M17.971,0.249 C17.971,0.248 17.971,0.247 17.971,0.247 C17.964,0.209 17.951,0.175 17.932,0.144 C17.931,0.143 17.931,0.143 17.931,0.142 C17.931,0.142 17.930,0.141 17.930,0.141 C17.911,0.112 17.888,0.086 17.861,0.065 C17.855,0.061 17.849,0.057 17.843,0.053 C17.820,0.039 17.797,0.026 17.771,0.018 C17.755,0.012 17.738,0.010 17.721,0.007 C17.708,0.006 17.696,-0.000 17.682,-0.000 L17.681,-0.000 C17.670,-0.001 17.661,0.001 17.653,0.002 C17.650,0.002 17.648,0.002 17.645,0.002 C17.643,0.002 17.640,0.002 17.637,0.003 C17.629,0.004 17.621,0.005 17.613,0.006 L0.234,3.606 C0.110,3.632 0.016,3.732 -0.002,3.858 C-0.019,3.983 0.043,4.106 0.155,4.165 L5.134,6.797 L6.007,11.653 C6.006,11.657 6.007,11.661 6.007,11.664 C6.004,11.688 6.004,11.712 6.007,11.736 C6.008,11.747 6.010,11.759 6.013,11.771 C6.019,11.799 6.031,11.826 6.046,11.851 C6.048,11.856 6.048,11.861 6.052,11.867 C6.053,11.868 6.054,11.869 6.055,11.870 C6.059,11.876 6.065,11.881 6.069,11.886 C6.083,11.904 6.098,11.919 6.115,11.933 C6.117,11.935 6.119,11.939 6.122,11.940 C6.127,11.944 6.132,11.945 6.136,11.947 C6.154,11.960 6.173,11.969 6.193,11.977 C6.201,11.980 6.209,11.984 6.217,11.986 C6.244,11.994 6.272,12.000 6.300,12.000 C6.301,12.000 6.301,12.000 6.301,12.000 L6.301,12.000 L6.301,12.000 C6.302,12.000 6.304,11.999 6.305,11.999 C6.310,11.999 6.315,12.000 6.320,12.000 C6.403,12.000 6.478,11.963 6.533,11.905 L9.850,9.689 L13.322,11.951 C13.371,11.983 13.428,12.000 13.485,12.000 C13.517,12.000 13.549,11.995 13.580,11.984 C13.666,11.955 13.735,11.889 13.766,11.803 L17.938,0.455 C17.966,0.410 17.982,0.356 17.982,0.299 C17.982,0.282 17.974,0.265 17.971,0.249 ZM14.503,2.265 L7.321,7.558 C7.309,7.567 7.300,7.578 7.290,7.588 C7.286,7.592 7.282,7.594 7.279,7.599 C7.272,7.605 7.267,7.612 7.261,7.620 C7.256,7.627 7.251,7.634 7.247,7.642 C7.235,7.660 7.226,7.679 7.219,7.698 C7.217,7.702 7.215,7.705 7.214,7.709 C7.214,7.710 7.212,7.711 7.212,7.712 L6.389,10.393 L5.737,6.766 L14.503,2.265 ZM6.853,10.971 L7.669,8.270 L8.939,9.097 L9.303,9.334 L8.068,10.158 L6.853,10.971 Z"/>
</svg>