<svg 
 xmlns="http://www.w3.org/2000/svg"
 xmlns:xlink="http://www.w3.org/1999/xlink"
 width="0.25in" height="0.25in">
<path fill-rule="evenodd"  fill="rgb(255, 255, 255)"
 d="M16.481,6.944 L14.963,8.130 C14.982,8.312 14.998,8.523 14.998,8.748 C14.998,8.761 14.995,8.820 14.993,8.833 C14.982,8.932 14.929,9.043 14.849,9.103 C14.768,9.163 14.663,9.206 14.566,9.189 C13.782,9.047 13.090,9.097 12.388,9.306 C12.275,9.338 12.154,9.317 12.062,9.243 C11.970,9.171 11.919,9.058 11.925,8.941 C11.927,8.902 11.932,8.863 11.937,8.825 C11.943,6.971 10.483,5.511 8.688,5.511 C6.893,5.511 5.433,6.972 5.433,8.766 C5.433,10.561 6.893,12.021 8.688,12.021 C8.786,12.008 8.825,12.004 8.864,12.001 C8.981,11.998 9.093,12.046 9.166,12.138 C9.239,12.231 9.262,12.352 9.229,12.465 C9.099,12.903 9.033,13.352 9.033,13.801 C9.033,14.764 9.325,15.690 9.878,16.481 C9.954,16.592 9.964,16.735 9.902,16.854 C9.839,16.973 9.717,17.048 9.582,17.048 L7.095,17.048 C6.715,17.048 6.394,16.769 6.347,16.399 L6.076,14.501 C5.706,14.334 5.349,14.126 5.009,13.882 L3.220,14.600 C2.830,14.745 2.456,14.579 2.284,14.264 L0.700,11.526 C0.515,11.188 0.595,10.782 0.884,10.554 L2.401,9.368 C2.378,9.139 2.367,8.939 2.367,8.750 C2.367,8.560 2.378,8.360 2.402,8.131 L0.886,6.946 C0.589,6.712 0.511,6.293 0.702,5.970 L2.287,3.227 C2.459,2.913 2.873,2.764 3.216,2.897 L5.010,3.617 C5.366,3.364 5.717,3.160 6.075,2.998 L6.347,1.094 C6.394,0.730 6.715,0.451 7.094,0.451 L10.270,0.451 C10.650,0.451 10.971,0.730 11.017,1.101 L11.290,2.998 C11.659,3.164 12.017,3.373 12.356,3.617 L14.146,2.898 C14.535,2.754 14.909,2.920 15.081,3.235 L16.665,5.973 C16.849,6.311 16.769,6.717 16.481,6.944 ZM13.724,9.832 C15.913,9.832 17.694,11.612 17.694,13.801 C17.694,15.989 15.913,17.770 13.724,17.770 C11.535,17.770 9.754,15.989 9.754,13.801 C9.754,11.612 11.535,9.832 13.724,9.832 ZM13.472,16.217 C13.537,16.289 13.631,16.326 13.725,16.326 C13.819,16.326 13.913,16.289 13.978,16.217 C14.043,16.153 14.086,16.060 14.086,15.965 C14.086,15.871 14.042,15.777 13.978,15.712 C13.840,15.575 13.602,15.575 13.472,15.712 C13.400,15.777 13.364,15.871 13.364,15.965 C13.364,16.059 13.400,16.153 13.472,16.217 ZM12.251,13.009 C12.449,13.032 12.624,12.879 12.641,12.680 C12.672,12.304 13.158,11.998 13.723,11.998 C14.310,11.998 14.807,12.328 14.807,12.719 C14.807,13.071 14.465,13.298 13.731,13.433 L13.652,13.449 C13.485,13.484 13.364,13.631 13.364,13.802 L13.363,14.523 C13.363,14.722 13.525,14.884 13.724,14.884 C13.923,14.884 14.085,14.723 14.085,14.523 L14.086,14.095 C15.043,13.870 15.529,13.408 15.528,12.718 C15.528,11.923 14.718,11.276 13.723,11.276 C12.760,11.276 11.985,11.853 11.922,12.620 C11.905,12.818 12.052,12.993 12.251,13.009 Z"/>
</svg>