<svg 
 xmlns="http://www.w3.org/2000/svg"
 xmlns:xlink="http://www.w3.org/1999/xlink"
 width="0.264in" height="0.236in">
<path fill-rule="evenodd"  fill="rgb(248, 246, 245)"
 d="M14.650,13.380 C14.052,12.241 13.218,11.466 11.926,11.243 C10.920,11.070 9.884,11.211 8.879,11.310 C7.877,11.409 6.831,11.530 5.839,11.295 C5.136,11.128 4.589,10.784 4.146,10.311 L1.757,16.783 L0.732,16.403 L3.386,9.212 C4.369,6.548 5.352,3.884 6.336,1.221 C6.486,0.814 6.636,0.407 6.786,-0.001 C7.332,1.039 8.071,1.806 9.239,2.083 C10.232,2.318 11.278,2.197 12.279,2.098 C13.284,1.998 14.320,1.857 15.326,2.031 C16.618,2.253 17.453,3.028 18.050,4.168 C16.917,7.238 15.783,10.309 14.650,13.380 ZM14.404,4.886 C14.604,4.343 14.804,3.801 15.004,3.259 C14.338,3.152 13.688,3.152 13.015,3.193 C12.815,3.735 12.615,4.278 12.415,4.820 C13.087,4.779 13.738,4.778 14.404,4.886 C14.186,5.477 13.968,6.068 13.749,6.659 C13.083,6.552 12.433,6.552 11.760,6.593 C11.979,6.002 12.197,5.411 12.415,4.820 C11.719,4.876 11.026,4.956 10.331,5.012 C10.531,4.470 10.731,3.928 10.931,3.386 C10.259,3.427 9.608,3.427 8.942,3.320 C8.742,3.862 8.542,4.404 8.342,4.947 C7.687,4.820 7.145,4.535 6.639,4.108 C6.421,4.699 6.203,5.290 5.985,5.881 C6.490,6.308 7.033,6.594 7.687,6.720 C7.905,6.129 8.123,5.538 8.342,4.947 C9.008,5.054 9.658,5.053 10.331,5.012 C10.113,5.603 9.894,6.195 9.676,6.786 C9.004,6.827 8.353,6.828 7.687,6.720 C7.469,7.311 7.251,7.902 7.032,8.494 C6.378,8.368 5.835,8.082 5.330,7.654 C5.130,8.197 4.930,8.739 4.730,9.281 C5.235,9.709 5.778,9.994 6.432,10.120 C6.632,9.578 6.832,9.036 7.032,8.494 C7.699,8.601 8.349,8.601 9.021,8.560 C8.821,9.101 8.621,9.644 8.421,10.186 C9.117,10.130 9.810,10.050 10.505,9.993 C10.706,9.451 10.906,8.909 11.106,8.367 C11.778,8.325 12.428,8.325 13.095,8.433 C12.895,8.975 12.694,9.517 12.494,10.059 C13.149,10.185 13.691,10.471 14.197,10.898 C14.397,10.356 14.597,9.814 14.797,9.272 C14.292,8.844 13.749,8.559 13.095,8.433 C13.313,7.842 13.531,7.250 13.749,6.659 C14.404,6.785 14.946,7.071 15.452,7.498 C15.670,6.907 15.888,6.316 16.107,5.725 C15.601,5.297 15.058,5.012 14.404,4.886 ZM9.021,8.560 C9.240,7.968 9.458,7.377 9.676,6.786 C10.372,6.730 11.065,6.649 11.760,6.593 C11.542,7.184 11.324,7.776 11.106,8.367 C10.410,8.423 9.717,8.503 9.021,8.560 Z"/>
</svg>