<svg 
 xmlns="http://www.w3.org/2000/svg"
 xmlns:xlink="http://www.w3.org/1999/xlink"
 width="0.278in" height="0.278in">
<path fill-rule="evenodd"  fill="rgb(24, 39, 50)"
 d="M20.000,19.414 C20.000,19.738 19.738,20.000 19.414,20.000 L12.344,20.000 C12.020,20.000 11.758,19.738 11.758,19.414 C11.758,17.153 13.598,15.273 15.859,15.273 C18.121,15.273 20.000,17.153 20.000,19.414 ZM13.516,12.930 C13.516,11.637 14.567,10.586 15.859,10.586 C17.152,10.586 18.203,11.637 18.203,12.930 C18.203,14.222 17.152,15.273 15.859,15.273 C14.567,15.273 13.516,14.222 13.516,12.930 ZM13.516,9.414 L6.484,9.414 C6.160,9.414 5.898,9.152 5.898,8.828 C5.898,6.567 7.739,4.726 10.000,4.726 C12.261,4.726 14.102,6.567 14.102,8.828 C14.102,9.152 13.839,9.414 13.516,9.414 ZM7.656,2.383 C7.656,1.090 8.707,-0.000 10.000,-0.000 C11.293,-0.000 12.344,1.090 12.344,2.383 C12.344,3.675 11.293,4.726 10.000,4.726 C8.707,4.726 7.656,3.675 7.656,2.383 ZM4.141,15.273 C2.848,15.273 1.797,14.222 1.797,12.930 C1.797,11.637 2.848,10.586 4.141,10.586 C5.433,10.586 6.484,11.637 6.484,12.930 C6.484,14.222 5.433,15.273 4.141,15.273 ZM8.242,19.414 C8.242,19.738 7.980,20.000 7.656,20.000 L0.586,20.000 C0.262,20.000 -0.000,19.738 -0.000,19.414 C-0.000,17.153 1.879,15.273 4.141,15.273 C6.402,15.273 8.242,17.153 8.242,19.414 ZM10.000,10.586 C10.324,10.586 10.586,10.848 10.586,11.172 L10.586,13.153 L12.606,14.163 C12.895,14.308 13.013,14.660 12.868,14.949 C12.724,15.237 12.374,15.357 12.082,15.211 L10.000,14.171 L7.918,15.211 C7.626,15.357 7.276,15.237 7.132,14.949 C6.987,14.660 7.105,14.308 7.394,14.163 L9.414,13.153 L9.414,11.172 C9.414,10.848 9.676,10.586 10.000,10.586 Z"/>
</svg>