<svg 
 xmlns="http://www.w3.org/2000/svg"
 xmlns:xlink="http://www.w3.org/1999/xlink"
 width="0.278in" height="0.194in">
<path fill-rule="evenodd"  fill="rgb(255, 255, 255)"
 d="M19.605,10.225 C19.037,10.849 15.995,12.939 14.893,13.274 C14.123,13.508 8.381,12.850 7.715,12.745 C7.291,12.678 6.860,13.013 6.556,13.309 C6.279,13.580 6.218,13.225 6.218,13.199 C6.216,11.939 6.206,9.526 6.204,8.346 C6.204,8.092 6.370,8.086 6.631,8.025 C7.394,7.848 8.972,7.497 9.618,7.473 C10.991,7.422 14.279,8.382 14.835,8.469 C15.394,8.557 15.601,9.495 14.606,9.833 C13.310,10.274 11.074,9.644 11.089,9.869 C11.129,10.460 13.652,10.793 14.961,10.497 C16.433,10.164 17.887,9.510 18.931,8.840 C19.691,8.351 20.486,9.257 19.605,10.225 ZM18.202,5.059 C18.509,5.232 18.680,5.590 18.598,5.951 C18.499,6.391 18.061,6.668 17.621,6.568 L11.037,5.081 C10.878,5.045 10.809,5.158 10.775,5.214 C10.098,6.312 8.774,6.915 7.447,6.615 C5.777,6.237 4.726,4.572 5.103,2.902 C5.480,1.233 7.146,0.181 8.816,0.559 C10.085,0.845 10.996,1.876 11.195,3.088 C11.215,3.207 11.234,3.450 11.398,3.487 L13.730,4.014 C13.730,4.014 13.910,4.083 13.952,3.901 C14.010,3.641 14.187,2.861 14.187,2.861 C14.286,2.421 14.724,2.145 15.164,2.244 C15.604,2.344 15.880,2.781 15.781,3.221 C15.781,3.221 15.604,4.001 15.545,4.261 C15.505,4.440 15.683,4.455 15.683,4.455 C15.683,4.455 16.079,4.545 16.212,4.575 C16.404,4.618 16.425,4.448 16.425,4.448 L16.585,3.738 C16.685,3.298 17.122,3.022 17.563,3.121 C18.003,3.221 18.279,3.658 18.179,4.098 L18.016,4.822 C17.989,4.941 18.135,5.021 18.202,5.059 ZM8.576,1.621 C7.492,1.376 6.410,2.059 6.165,3.143 C5.920,4.226 6.603,5.307 7.687,5.552 C8.771,5.797 9.852,5.115 10.097,4.031 C10.342,2.947 9.660,1.866 8.576,1.621 ZM4.986,13.275 C4.984,13.505 4.794,13.699 4.564,13.705 L1.271,13.926 C1.041,13.932 0.887,13.753 0.929,13.527 L1.140,8.586 C1.183,8.360 1.405,8.171 1.635,8.167 L4.617,8.114 C4.847,8.110 5.033,8.295 5.031,8.525 L4.986,13.275 ZM3.087,11.501 C2.633,11.531 2.290,11.924 2.320,12.378 C2.350,12.831 2.743,13.174 3.197,13.144 C3.650,13.113 3.994,12.721 3.963,12.268 C3.933,11.813 3.540,11.471 3.087,11.501 Z"/>
</svg>