<svg 
 xmlns="http://www.w3.org/2000/svg"
 xmlns:xlink="http://www.w3.org/1999/xlink"
 width="0.650in" height="0.75in">
<path fill-rule="evenodd"  fill="rgb(147, 162, 216)"
 d="M43.062,39.597 C42.916,39.704 42.743,39.758 42.569,39.758 C42.399,39.758 42.229,39.707 42.084,39.603 C41.831,39.422 35.892,35.116 35.892,29.738 C35.892,26.055 38.887,23.059 42.569,23.059 C46.251,23.059 49.247,26.055 49.247,29.738 C49.247,35.007 43.315,39.412 43.062,39.597 ZM42.569,24.729 C39.808,24.729 37.561,26.976 37.561,29.738 C37.561,33.440 41.216,36.762 42.564,37.862 C43.911,36.743 47.578,33.364 47.578,29.738 C47.578,26.976 45.331,24.729 42.569,24.729 ZM42.569,33.079 C40.728,33.079 39.231,31.580 39.231,29.738 C39.231,27.897 40.728,26.399 42.569,26.399 C43.030,26.399 43.404,26.773 43.404,27.234 C43.404,27.695 43.030,28.068 42.569,28.068 C41.649,28.068 40.900,28.818 40.900,29.738 C40.900,30.659 41.649,31.408 42.569,31.408 C43.490,31.408 44.239,30.659 44.239,29.738 C44.239,29.277 44.613,28.903 45.073,28.903 C45.534,28.903 45.908,29.277 45.908,29.738 C45.908,31.580 44.410,33.079 42.569,33.079 ZM41.753,21.276 C41.621,21.351 41.477,21.388 41.335,21.388 C41.047,21.388 40.767,21.238 40.612,20.971 C40.531,20.831 40.446,20.692 40.362,20.554 L37.179,20.554 C37.474,21.281 37.741,22.035 37.978,22.814 C38.113,23.255 37.864,23.721 37.423,23.856 C37.342,23.881 37.260,23.892 37.180,23.892 C36.822,23.892 36.491,23.661 36.382,23.300 C36.089,22.341 35.750,21.425 35.368,20.554 L29.159,20.554 C29.703,23.679 30.002,27.144 30.043,30.573 L34.222,30.573 C34.683,30.573 35.057,30.948 35.057,31.408 C35.057,31.870 34.683,32.244 34.222,32.244 L30.043,32.244 C30.005,35.370 29.754,38.527 29.297,41.428 L35.709,41.428 C36.157,40.300 36.530,39.118 36.819,37.896 C36.925,37.447 37.374,37.169 37.823,37.275 C38.271,37.381 38.549,37.831 38.443,38.280 C38.187,39.368 37.872,40.419 37.503,41.428 L40.847,41.428 C40.898,41.336 40.948,41.244 40.997,41.151 C41.212,40.743 41.717,40.587 42.125,40.803 C42.532,41.019 42.688,41.523 42.473,41.931 C38.554,49.346 30.915,53.953 22.537,53.953 C16.517,53.953 10.857,51.608 6.601,47.350 C2.344,43.092 -0.000,37.430 -0.000,31.408 C-0.000,27.218 1.175,23.117 3.351,19.582 C3.388,19.354 3.518,19.157 3.700,19.031 C4.160,18.329 4.661,17.652 5.201,17.002 C5.496,16.647 6.022,16.599 6.376,16.894 C6.731,17.189 6.779,17.715 6.484,18.070 C6.263,18.336 6.050,18.608 5.843,18.884 L8.989,18.884 C9.114,18.854 9.247,18.853 9.377,18.884 L16.232,18.884 C16.954,15.490 17.999,12.573 19.362,10.776 C18.810,10.860 18.261,10.965 17.720,11.093 C17.272,11.199 16.822,10.921 16.716,10.472 C16.610,10.023 16.887,9.574 17.336,9.467 C19.030,9.067 20.780,8.864 22.537,8.864 C26.563,8.864 30.515,9.940 33.964,11.974 C36.940,13.728 39.479,16.152 41.374,19.032 C41.554,19.157 41.682,19.350 41.721,19.575 C41.836,19.760 41.948,19.946 42.057,20.134 C42.288,20.534 42.152,21.045 41.753,21.276 ZM39.829,43.098 L36.826,43.098 C35.728,45.550 34.286,47.705 32.552,49.460 C32.351,49.664 32.147,49.860 31.940,50.050 C35.083,48.466 37.809,46.089 39.829,43.098 ZM31.364,48.286 C32.773,46.860 33.995,45.092 34.971,43.098 L29.006,43.098 C28.312,46.709 27.279,49.799 25.925,51.748 C27.873,51.123 29.715,49.957 31.364,48.286 ZM13.097,50.022 C12.227,49.214 11.407,48.290 10.649,47.252 C9.721,45.982 8.919,44.588 8.250,43.098 L5.257,43.098 C7.236,46.017 9.935,48.411 13.097,50.022 ZM4.235,41.428 L7.569,41.428 C6.529,38.596 5.942,35.478 5.855,32.244 L1.687,32.244 C1.819,35.561 2.727,38.681 4.235,41.428 ZM4.713,20.554 C2.880,23.569 1.830,27.023 1.687,30.573 L5.855,30.573 C5.950,27.048 6.650,23.624 7.898,20.554 L4.713,20.554 ZM16.816,27.283 C16.788,27.744 16.394,28.094 15.933,28.067 C15.472,28.039 15.122,27.644 15.149,27.184 C15.284,24.932 15.538,22.676 15.909,20.554 L9.710,20.554 C8.376,23.583 7.627,27.020 7.525,30.573 L9.182,30.573 C9.642,30.573 10.016,30.948 10.016,31.408 C10.016,31.870 9.642,32.244 9.182,32.244 L7.525,32.244 C7.620,35.561 8.273,38.681 9.360,41.428 L10.016,41.428 C10.477,41.428 10.851,41.802 10.851,42.263 C10.851,42.698 10.518,43.055 10.093,43.094 C12.190,47.390 15.408,50.548 19.158,51.750 C18.625,50.988 18.093,49.981 17.584,48.655 C17.419,48.224 17.634,47.741 18.064,47.576 C18.494,47.411 18.977,47.626 19.142,48.056 C20.173,50.742 21.410,52.282 22.537,52.282 C23.883,52.282 25.350,50.126 26.461,46.513 C26.784,45.461 27.070,44.316 27.315,43.098 L24.206,43.098 C23.745,43.098 23.371,42.724 23.371,42.263 C23.371,41.802 23.745,41.428 24.206,41.428 L27.619,41.428 C28.077,38.623 28.336,35.499 28.374,32.244 L24.206,32.244 C23.745,32.244 23.371,31.869 23.371,31.408 C23.371,30.948 23.745,30.573 24.206,30.573 L28.374,30.573 C28.332,26.991 28.022,23.569 27.475,20.554 L17.601,20.554 C17.226,22.624 16.959,24.900 16.816,27.283 ZM22.537,10.534 C21.387,10.534 20.084,12.207 19.049,15.009 C18.628,16.148 18.255,17.453 17.937,18.884 L27.138,18.884 C26.935,17.975 26.709,17.112 26.461,16.304 C25.350,12.691 23.883,10.534 22.537,10.534 ZM25.926,11.070 C27.174,12.867 28.149,15.634 28.838,18.884 L34.555,18.884 C32.432,14.947 29.376,12.177 25.926,11.070 ZM33.117,13.412 C32.744,13.192 32.363,12.986 31.978,12.790 C33.722,14.400 35.238,16.460 36.432,18.884 L39.229,18.884 C37.576,16.683 35.497,14.816 33.117,13.412 ZM17.187,46.277 C17.040,46.384 16.867,46.438 16.694,46.438 C16.524,46.438 16.354,46.386 16.209,46.282 C15.956,46.102 10.016,41.796 10.016,36.418 C10.016,32.735 13.012,29.738 16.694,29.738 C20.376,29.738 23.371,32.735 23.371,36.418 C23.371,41.687 17.439,46.091 17.187,46.277 ZM16.694,31.408 C13.932,31.408 11.686,33.655 11.686,36.418 C11.686,40.119 15.341,43.442 16.688,44.541 C18.035,43.423 21.702,40.044 21.702,36.418 C21.702,33.655 19.455,31.408 16.694,31.408 ZM16.694,39.758 C14.853,39.758 13.355,38.260 13.355,36.418 C13.355,34.577 14.853,33.079 16.694,33.079 C17.155,33.079 17.528,33.452 17.528,33.913 C17.528,34.375 17.155,34.748 16.694,34.748 C15.773,34.748 15.024,35.498 15.024,36.418 C15.024,37.339 15.773,38.089 16.694,38.089 C17.614,38.089 18.363,37.339 18.363,36.418 C18.363,35.957 18.737,35.583 19.198,35.583 C19.659,35.583 20.033,35.957 20.033,36.418 C20.033,38.260 18.535,39.758 16.694,39.758 ZM9.675,17.053 C9.528,17.160 9.355,17.214 9.182,17.214 C9.012,17.214 8.842,17.162 8.696,17.058 C8.444,16.878 2.504,12.572 2.504,7.194 C2.504,3.511 5.500,0.515 9.182,0.515 C12.864,0.515 15.859,3.511 15.859,7.194 C15.859,12.463 9.927,16.868 9.675,17.053 ZM9.182,2.185 C6.420,2.185 4.173,4.432 4.173,7.194 C4.173,10.896 7.829,14.218 9.176,15.317 C10.523,14.199 14.190,10.819 14.190,7.194 C14.190,4.432 11.943,2.185 9.182,2.185 ZM5.843,7.194 C5.843,5.353 7.341,3.854 9.182,3.854 C9.642,3.854 10.016,4.228 10.016,4.689 C10.016,5.150 9.642,5.524 9.182,5.524 C8.261,5.524 7.512,6.274 7.512,7.194 C7.512,8.115 8.261,8.864 9.182,8.864 C10.102,8.864 10.851,8.115 10.851,7.194 C10.851,6.733 11.225,6.359 11.686,6.359 C12.147,6.359 12.520,6.733 12.520,7.194 C12.520,9.036 11.023,10.534 9.182,10.534 C7.341,10.534 5.843,9.036 5.843,7.194 Z"/>
</svg>