<svg 
 xmlns="http://www.w3.org/2000/svg"
 xmlns:xlink="http://www.w3.org/1999/xlink"
 width="0.222in" height="0.222in">
<path fill-rule="evenodd"  fill="rgb(48, 60, 90)"
 d="M8.000,16.000 C3.606,16.000 -0.000,12.394 -0.000,8.000 C-0.000,5.885 0.897,3.857 2.377,2.372 L1.672,2.372 C1.413,2.372 1.203,2.165 1.203,1.906 C1.203,1.647 1.413,1.437 1.672,1.437 L3.547,1.437 C3.806,1.437 4.031,1.647 4.031,1.906 L4.031,3.781 C4.031,4.040 3.822,4.250 3.562,4.250 C3.303,4.250 3.094,4.040 3.094,3.781 L3.094,2.995 C1.763,4.309 0.937,6.115 0.937,8.000 C0.937,11.877 4.123,15.062 8.000,15.062 C11.877,15.062 15.062,11.877 15.062,8.000 C15.062,4.123 11.877,0.937 8.000,0.937 C7.741,0.937 7.531,0.728 7.531,0.469 C7.531,0.210 7.741,-0.000 8.000,-0.000 C12.394,-0.000 16.000,3.606 16.000,8.000 C16.000,12.394 12.394,16.000 8.000,16.000 ZM4.703,4.040 C5.484,3.388 6.461,2.964 7.531,2.867 L7.531,3.312 C7.531,3.572 7.741,3.781 8.000,3.781 C8.259,3.781 8.469,3.572 8.469,3.312 L8.469,2.867 C9.539,2.964 10.515,3.388 11.297,4.040 L10.983,4.354 C10.800,4.537 10.800,4.834 10.983,5.017 C11.166,5.200 11.463,5.200 11.646,5.017 L11.960,4.703 C12.612,5.484 13.035,6.461 13.132,7.531 L12.687,7.531 C12.428,7.531 12.219,7.741 12.219,8.000 C12.219,8.259 12.428,8.469 12.687,8.469 L13.132,8.469 C13.035,9.539 12.612,10.515 11.960,11.297 L11.646,10.983 C11.463,10.800 11.166,10.800 10.983,10.983 C10.800,11.166 10.800,11.463 10.983,11.646 L11.297,11.960 C10.515,12.612 9.539,13.035 8.469,13.132 L8.469,12.687 C8.469,12.428 8.259,12.219 8.000,12.219 C7.741,12.219 7.531,12.428 7.531,12.687 L7.531,13.132 C6.461,13.035 5.484,12.612 4.703,11.960 L5.017,11.646 C5.200,11.463 5.200,11.166 5.017,10.983 C4.834,10.800 4.537,10.800 4.354,10.983 L4.040,11.297 C3.388,10.515 2.965,9.539 2.867,8.469 L3.312,8.469 C3.572,8.469 3.781,8.259 3.781,8.000 C3.781,7.741 3.572,7.531 3.312,7.531 L2.867,7.531 C2.965,6.461 3.388,5.484 4.040,4.703 L4.354,5.017 C4.537,5.200 4.834,5.200 5.017,5.017 C5.200,4.834 5.200,4.537 5.017,4.354 L4.703,4.040 ZM7.531,8.000 C7.531,8.124 7.581,8.243 7.669,8.331 L8.606,9.269 C8.789,9.452 9.086,9.452 9.269,9.269 C9.452,9.086 9.452,8.789 9.269,8.606 L8.469,7.806 L8.469,6.125 C8.469,5.866 8.259,5.656 8.000,5.656 C7.741,5.656 7.531,5.866 7.531,6.125 L7.531,8.000 Z"/>
</svg>