<svg 
 xmlns="http://www.w3.org/2000/svg"
 xmlns:xlink="http://www.w3.org/1999/xlink"
 width="0.278in" height="0.278in">
<path fill-rule="evenodd"  fill="rgb(255, 255, 255)"
 d="M18.645,15.409 L15.176,15.409 C14.620,17.783 12.485,19.556 9.943,19.556 C7.401,19.556 5.266,17.783 4.710,15.409 L1.241,15.409 C0.929,15.409 0.675,15.156 0.675,14.845 L0.675,2.082 C0.675,1.770 0.929,1.517 1.241,1.517 L5.085,1.517 L5.085,0.960 C5.085,0.648 5.338,0.395 5.650,0.395 C5.962,0.395 6.216,0.648 6.216,0.960 L6.216,1.517 L9.378,1.517 L9.378,0.960 C9.378,0.648 9.631,0.395 9.943,0.395 C10.255,0.395 10.508,0.648 10.508,0.960 L10.508,1.517 L13.811,1.517 L13.811,0.960 C13.811,0.648 14.064,0.395 14.376,0.395 C14.688,0.395 14.941,0.648 14.941,0.960 L14.941,1.517 L18.645,1.517 C18.958,1.517 19.211,1.770 19.211,2.082 L19.211,14.845 C19.211,15.156 18.958,15.409 18.645,15.409 ZM9.943,18.427 C12.284,18.427 14.188,16.524 14.188,14.185 C14.188,11.847 12.284,9.944 9.943,9.944 C7.603,9.944 5.698,11.847 5.698,14.185 C5.698,16.524 7.603,18.427 9.943,18.427 ZM1.806,14.280 L4.570,14.280 C4.570,14.248 4.568,14.217 4.568,14.185 C4.568,11.224 6.979,8.815 9.943,8.815 C12.907,8.815 15.318,11.224 15.318,14.185 C15.318,14.217 15.316,14.248 15.316,14.280 L18.080,14.280 L18.080,6.086 L1.806,6.086 L1.806,14.280 ZM18.080,2.647 L14.941,2.647 L14.941,3.157 C14.941,3.469 14.688,3.722 14.376,3.722 C14.064,3.722 13.811,3.469 13.811,3.157 L13.811,2.647 L10.508,2.647 L10.508,3.157 C10.508,3.469 10.255,3.722 9.943,3.722 C9.631,3.722 9.378,3.469 9.378,3.157 L9.378,2.647 L6.216,2.647 L6.216,3.157 C6.216,3.469 5.962,3.722 5.650,3.722 C5.338,3.722 5.085,3.469 5.085,3.157 L5.085,2.647 L1.806,2.647 L1.806,4.957 L18.080,4.957 L18.080,2.647 ZM9.943,11.030 C10.255,11.030 10.508,11.283 10.508,11.596 L10.508,14.328 L11.642,15.461 C11.863,15.682 11.863,16.039 11.642,16.260 C11.532,16.370 11.387,16.425 11.242,16.425 C11.098,16.425 10.953,16.370 10.842,16.260 L9.543,14.961 C9.437,14.855 9.378,14.712 9.378,14.562 L9.378,11.596 C9.378,11.283 9.631,11.030 9.943,11.030 Z"/>
</svg>