<svg xmlns="http://www.w3.org/2000/svg" xmlns:xlink="http://www.w3.org/1999/xlink" width="0.400in" height="0.400in"><path fill-rule="evenodd"  fill="rgb(157, 157, 157)" d="M14.541,18.669 C14.541,18.971 14.295,19.217 13.993,19.217 L11.654,19.217 C11.352,19.217 11.106,18.971 11.106,18.669 L11.106,11.654 C11.106,11.351 11.352,11.106 11.654,11.106 L13.993,11.106 C14.295,11.106 14.541,11.351 14.541,11.654 L14.541,18.669 ZM13.445,12.202 L12.202,12.202 L12.202,18.121 L13.445,18.121 L13.445,12.202 ZM14.541,9.316 C14.541,9.619 14.295,9.864 13.993,9.864 L11.654,9.864 C11.352,9.864 11.106,9.619 11.106,9.316 L11.106,6.978 C11.106,6.675 11.352,6.430 11.654,6.430 L13.993,6.430 C14.295,6.430 14.541,6.675 14.541,6.978 L14.541,9.316 ZM13.445,7.525 L12.202,7.525 L12.202,8.768 L13.445,8.768 L13.445,7.525 ZM6.430,6.978 C6.430,6.675 6.675,6.430 6.978,6.430 L9.316,6.430 C9.619,6.430 9.864,6.675 9.864,6.978 L9.864,9.316 C9.864,9.619 9.619,9.864 9.316,9.864 L6.978,9.864 C6.675,9.864 6.430,9.619 6.430,9.316 L6.430,6.978 ZM7.526,8.768 L8.768,8.768 L8.768,7.525 L7.526,7.525 L7.526,8.768 ZM6.978,15.782 L9.316,15.782 C9.619,15.782 9.864,16.028 9.864,16.331 L9.864,18.669 C9.864,18.971 9.619,19.217 9.316,19.217 L6.978,19.217 C6.675,19.217 6.430,18.971 6.430,18.669 L6.430,16.331 C6.430,16.028 6.675,15.782 6.978,15.782 ZM7.526,18.121 L8.768,18.121 L8.768,16.879 L7.526,16.879 L7.526,18.121 ZM6.430,11.654 C6.430,11.351 6.675,11.106 6.978,11.106 L9.316,11.106 C9.619,11.106 9.864,11.351 9.864,11.654 L9.864,13.992 C9.864,14.295 9.619,14.541 9.316,14.541 L6.978,14.541 C6.675,14.541 6.430,14.295 6.430,13.992 L6.430,11.654 ZM7.526,13.444 L8.768,13.444 L8.768,12.202 L7.526,12.202 L7.526,13.444 ZM1.754,2.301 C1.754,1.998 1.999,1.753 2.302,1.753 L13.993,1.753 C14.295,1.753 14.541,1.998 14.541,2.301 L14.541,5.224 C14.541,5.527 14.295,5.772 13.993,5.772 L2.302,5.772 C1.999,5.772 1.754,5.527 1.754,5.224 L1.754,2.301 ZM2.850,4.676 L13.445,4.676 L13.445,4.676 L13.445,2.849 L2.850,2.849 L2.850,4.676 ZM1.754,6.978 C1.754,6.675 1.999,6.430 2.302,6.430 L4.640,6.430 C4.943,6.430 5.188,6.675 5.188,6.978 L5.188,9.316 C5.188,9.619 4.943,9.864 4.640,9.864 L2.302,9.864 C1.999,9.864 1.754,9.619 1.754,9.316 L1.754,6.978 ZM2.850,8.768 L4.092,8.768 L4.092,7.525 L2.850,7.525 L2.850,8.768 ZM2.302,15.782 L4.640,15.782 C4.943,15.782 5.188,16.028 5.188,16.331 L5.188,18.669 C5.188,18.971 4.943,19.217 4.640,19.217 L2.302,19.217 C1.999,19.217 1.754,18.971 1.754,18.669 L1.754,16.331 C1.754,16.028 1.999,15.782 2.302,15.782 ZM2.850,18.121 L4.092,18.121 L4.092,16.879 L2.850,16.879 L2.850,18.121 ZM1.754,11.654 C1.754,11.351 1.999,11.106 2.302,11.106 L4.640,11.106 C4.943,11.106 5.188,11.351 5.188,11.654 L5.188,13.992 C5.188,14.295 4.943,14.541 4.640,14.541 L2.302,14.541 C1.999,14.541 1.754,14.295 1.754,13.992 L1.754,11.654 ZM2.850,13.444 L4.092,13.444 L4.092,12.202 L2.850,12.202 L2.850,13.444 ZM9.901,26.232 C9.598,26.232 9.353,25.986 9.353,25.683 C9.353,25.380 9.598,25.135 9.901,25.135 L13.554,25.135 C13.857,25.135 14.102,25.380 14.102,25.683 C14.102,25.986 13.857,26.232 13.554,26.232 L9.901,26.232 ZM13.554,29.154 L9.901,29.154 C9.598,29.154 9.353,28.909 9.353,28.606 C9.353,28.303 9.598,28.058 9.901,28.058 L13.554,28.058 C13.857,28.058 14.102,28.303 14.102,28.606 C14.102,28.909 13.857,29.154 13.554,29.154 ZM23.263,25.646 C22.361,25.642 21.628,24.906 21.628,24.003 L21.628,22.103 C21.628,21.196 22.366,20.459 23.272,20.459 L23.820,20.459 L23.820,19.838 C23.820,19.535 24.066,19.289 24.368,19.289 C24.671,19.289 24.916,19.535 24.916,19.838 L24.916,20.459 L26.853,20.459 C27.155,20.459 27.401,20.704 27.401,21.007 C27.401,21.310 27.155,21.554 26.853,21.554 L24.916,21.554 L24.916,24.599 L25.766,24.623 C26.668,24.629 27.401,25.364 27.401,26.268 L27.401,28.095 C27.401,29.001 26.663,29.739 25.757,29.739 L24.916,29.739 L24.916,30.360 C24.916,30.662 24.671,30.907 24.368,30.907 C24.066,30.907 23.820,30.662 23.820,30.360 L23.820,29.739 L22.176,29.739 C21.874,29.739 21.628,29.493 21.628,29.190 C21.628,28.888 21.874,28.642 22.176,28.642 L23.820,28.642 L23.820,25.663 L23.263,25.646 ZM24.916,28.643 L25.757,28.643 C26.059,28.643 26.305,28.397 26.305,28.095 L26.305,26.268 C26.305,25.966 26.059,25.720 25.757,25.720 C25.751,25.720 25.746,25.720 25.741,25.720 L24.916,25.695 L24.916,28.643 ZM23.820,24.566 L23.820,24.566 L23.820,21.554 L23.272,21.554 C22.970,21.554 22.724,21.800 22.724,22.103 L22.724,24.003 C22.724,24.305 22.970,24.550 23.272,24.550 C23.278,24.550 23.283,24.551 23.289,24.551 L23.820,24.566 ZM24.515,33.246 C20.022,33.246 16.367,29.591 16.367,25.099 C16.367,23.791 16.685,22.491 17.286,21.338 C17.425,21.070 17.757,20.966 18.025,21.106 C18.293,21.246 18.397,21.576 18.258,21.845 C17.731,22.856 17.463,23.950 17.463,25.099 C17.463,28.986 20.627,32.150 24.515,32.150 C28.403,32.150 31.566,28.986 31.566,25.099 C31.566,21.211 28.403,18.048 24.515,18.048 C22.576,18.048 20.769,18.818 19.426,20.218 C19.217,20.436 18.870,20.443 18.652,20.233 C18.433,20.024 18.426,19.677 18.636,19.458 C20.187,17.842 22.275,16.951 24.515,16.951 C29.007,16.951 32.662,20.606 32.662,25.099 C32.662,29.591 29.007,33.246 24.515,33.246 ZM28.731,10.107 C28.940,9.888 29.286,9.879 29.506,10.087 L32.491,12.923 C32.711,13.132 32.716,13.492 32.501,13.707 L31.649,14.560 L31.726,14.637 C32.367,15.278 32.367,16.321 31.726,16.962 L31.623,17.066 C31.623,17.066 31.623,17.066 31.623,17.066 C31.302,17.386 30.881,17.546 30.460,17.546 C30.039,17.546 29.618,17.386 29.298,17.066 L20.566,8.334 C20.489,8.257 20.437,8.160 20.416,8.053 L20.058,6.265 C20.021,6.240 18.894,5.007 18.894,5.007 C18.691,4.783 18.708,4.437 18.932,4.233 C19.156,4.030 19.503,4.047 19.706,4.271 L20.684,5.349 L22.714,5.755 C22.821,5.776 22.918,5.829 22.995,5.905 L30.874,13.784 L31.328,13.329 L28.751,10.883 C28.532,10.674 28.523,10.327 28.731,10.107 ZM22.337,6.797 L21.239,6.578 L21.458,7.676 L26.740,12.958 L27.619,12.080 L22.337,6.797 ZM30.951,15.412 L28.394,12.854 L27.516,13.733 L30.073,16.291 C30.287,16.504 30.634,16.504 30.848,16.291 L30.951,16.187 C31.165,15.973 31.165,15.626 30.951,15.412 ZM34.452,29.811 C34.755,29.811 35.000,30.057 35.000,30.360 L35.000,34.451 C35.000,34.754 34.755,35.000 34.452,35.000 L6.393,35.000 C6.091,35.000 5.845,34.754 5.845,34.451 L5.845,20.970 L1.644,20.970 C0.737,20.970 -0.000,20.233 -0.000,19.326 L-0.000,1.644 C-0.000,0.737 0.737,-0.001 1.644,-0.001 L14.650,-0.001 C15.557,-0.001 16.294,0.737 16.294,1.644 L16.294,1.753 L28.607,1.753 C28.752,1.753 28.891,1.811 28.994,1.914 L34.839,7.759 C34.942,7.862 35.000,8.002 35.000,8.147 L35.000,27.437 C35.000,27.740 34.755,27.985 34.452,27.985 C34.149,27.985 33.904,27.740 33.904,27.437 L33.904,8.693 C33.892,8.694 33.880,8.695 33.867,8.695 L28.607,8.695 C28.304,8.695 28.059,8.449 28.059,8.147 L28.059,2.886 C28.059,2.873 28.059,2.861 28.060,2.849 L16.294,2.849 L16.294,6.978 C16.294,7.281 16.049,7.525 15.746,7.525 C15.444,7.525 15.198,7.281 15.198,6.978 L15.198,1.644 C15.198,1.341 14.953,1.096 14.650,1.096 L1.644,1.096 C1.342,1.096 1.096,1.341 1.096,1.644 L1.096,19.326 C1.096,19.628 1.342,19.875 1.644,19.875 L14.650,19.875 C14.952,19.875 15.198,19.628 15.198,19.326 L15.198,9.900 C15.198,9.597 15.443,9.352 15.746,9.352 C16.049,9.352 16.294,9.597 16.294,9.900 L16.294,19.326 C16.294,20.233 15.557,20.970 14.650,20.970 L6.942,20.970 L6.942,33.903 L33.904,33.903 L33.904,30.360 C33.904,30.057 34.149,29.811 34.452,29.811 ZM29.155,7.598 L33.129,7.598 L29.155,3.624 L29.155,7.598 Z"/> </svg>