<svg 
 xmlns="http://www.w3.org/2000/svg"
 xmlns:xlink="http://www.w3.org/1999/xlink"
 width="0.319in" height="0.153in">
<path fill-rule="evenodd"  opacity="0.42" fill="rgb(255, 255, 255)"
 d="M20.558,4.891 C20.067,4.891 19.610,4.745 19.226,4.494 L16.588,7.137 C16.838,7.520 16.984,7.978 16.984,8.470 C16.984,9.819 15.889,10.916 14.542,10.916 C13.196,10.916 12.100,9.819 12.100,8.470 C12.100,7.996 12.236,7.554 12.470,7.179 L9.789,4.494 C9.406,4.745 8.949,4.891 8.458,4.891 C7.967,4.891 7.509,4.745 7.126,4.494 L4.487,7.136 C4.738,7.520 4.884,7.978 4.884,8.470 C4.884,9.819 3.789,10.916 2.442,10.916 C1.095,10.916 -0.000,9.819 -0.000,8.470 C-0.000,7.122 1.095,6.024 2.442,6.024 C2.933,6.024 3.390,6.171 3.774,6.422 L6.412,3.779 C6.162,3.395 6.016,2.937 6.016,2.446 C6.016,1.097 7.111,-0.000 8.458,-0.000 C9.804,-0.000 10.900,1.097 10.900,2.446 C10.900,2.937 10.754,3.395 10.503,3.779 L13.169,6.449 C13.560,6.181 14.033,6.024 14.542,6.024 C15.033,6.024 15.491,6.171 15.874,6.422 L18.512,3.779 C18.262,3.396 18.116,2.938 18.116,2.446 C18.116,1.097 19.211,-0.000 20.558,-0.000 C21.904,-0.000 23.000,1.097 23.000,2.446 C23.000,3.794 21.904,4.891 20.558,4.891 ZM2.442,7.035 C1.652,7.035 1.009,7.679 1.009,8.470 C1.009,9.261 1.652,9.905 2.442,9.905 C3.232,9.905 3.875,9.261 3.875,8.470 C3.875,7.679 3.232,7.035 2.442,7.035 ZM8.458,1.011 C7.668,1.011 7.025,1.655 7.025,2.446 C7.025,3.237 7.668,3.880 8.458,3.880 C9.248,3.880 9.890,3.237 9.890,2.446 C9.890,1.654 9.248,1.011 8.458,1.011 ZM14.542,7.035 C13.752,7.035 13.110,7.679 13.110,8.470 C13.110,9.261 13.752,9.905 14.542,9.905 C15.332,9.905 15.975,9.261 15.975,8.470 C15.975,7.679 15.332,7.035 14.542,7.035 ZM20.558,1.011 C19.768,1.011 19.125,1.655 19.125,2.446 C19.125,3.237 19.768,3.880 20.558,3.880 C21.348,3.880 21.991,3.237 21.991,2.446 C21.991,1.654 21.348,1.011 20.558,1.011 ZM15.772,4.724 C15.674,4.822 15.545,4.872 15.415,4.872 C15.286,4.872 15.157,4.822 15.059,4.724 C14.861,4.526 14.861,4.206 15.059,4.009 L16.085,2.981 C16.282,2.783 16.602,2.783 16.799,2.981 C16.996,3.178 16.996,3.498 16.799,3.696 L15.772,4.724 ZM7.227,6.210 C7.424,6.012 7.744,6.012 7.941,6.210 C8.138,6.407 8.138,6.727 7.941,6.925 L6.914,7.953 C6.816,8.052 6.687,8.101 6.557,8.101 C6.428,8.101 6.299,8.052 6.201,7.953 C6.003,7.756 6.003,7.435 6.201,7.238 L7.227,6.210 Z"/>
</svg>