<svg 
 xmlns="http://www.w3.org/2000/svg"
 xmlns:xlink="http://www.w3.org/1999/xlink"
 width="0.25in" height="0.25in">
<path fill-rule="evenodd"  fill="rgb(222, 227, 236)"
 d="M18.000,17.473 C18.000,17.764 17.764,18.000 17.473,18.000 L11.109,18.000 C10.818,18.000 10.582,17.764 10.582,17.473 C10.582,15.437 12.238,13.746 14.273,13.746 C16.309,13.746 18.000,15.437 18.000,17.473 ZM12.164,11.637 C12.164,10.473 13.110,9.527 14.273,9.527 C15.437,9.527 16.383,10.473 16.383,11.637 C16.383,12.800 15.437,13.746 14.273,13.746 C13.110,13.746 12.164,12.800 12.164,11.637 ZM12.164,8.473 L5.836,8.473 C5.544,8.473 5.309,8.237 5.309,7.945 C5.309,5.910 6.965,4.254 9.000,4.254 C11.035,4.254 12.691,5.910 12.691,7.945 C12.691,8.237 12.456,8.473 12.164,8.473 ZM6.891,2.144 C6.891,0.981 7.837,-0.000 9.000,-0.000 C10.163,-0.000 11.109,0.981 11.109,2.144 C11.109,3.308 10.163,4.254 9.000,4.254 C7.837,4.254 6.891,3.308 6.891,2.144 ZM3.727,13.746 C2.563,13.746 1.617,12.800 1.617,11.637 C1.617,10.473 2.563,9.527 3.727,9.527 C4.890,9.527 5.836,10.473 5.836,11.637 C5.836,12.800 4.890,13.746 3.727,13.746 ZM7.418,17.473 C7.418,17.764 7.182,18.000 6.891,18.000 L0.527,18.000 C0.236,18.000 -0.000,17.764 -0.000,17.473 C-0.000,15.437 1.691,13.746 3.727,13.746 C5.762,13.746 7.418,15.437 7.418,17.473 ZM9.000,9.527 C9.291,9.527 9.527,9.763 9.527,10.055 L9.527,11.838 L11.345,12.747 C11.606,12.877 11.711,13.194 11.581,13.455 C11.451,13.713 11.137,13.821 10.873,13.690 L9.000,12.754 L7.126,13.690 C6.863,13.821 6.548,13.713 6.419,13.455 C6.289,13.194 6.394,12.877 6.655,12.747 L8.473,11.838 L8.473,10.055 C8.473,9.763 8.708,9.527 9.000,9.527 Z"/>
</svg>