<svg 
 xmlns="http://www.w3.org/2000/svg"
 xmlns:xlink="http://www.w3.org/1999/xlink"
 width="0.222in" height="0.153in">
<path fill-rule="evenodd"  fill="rgb(48, 60, 90)"
 d="M15.678,9.491 C15.543,9.586 15.386,9.634 15.227,9.634 C15.086,9.634 14.944,9.596 14.818,9.519 C13.218,8.535 10.969,8.332 9.407,8.330 L9.407,10.074 C9.407,10.450 9.176,10.789 8.824,10.932 C8.708,10.980 8.586,11.003 8.466,11.003 C8.219,11.003 7.978,10.908 7.798,10.729 L3.643,6.608 C3.158,6.127 3.158,5.348 3.644,4.867 L7.798,0.746 C7.979,0.568 8.220,0.473 8.465,0.473 C8.586,0.473 8.708,0.496 8.824,0.543 C9.176,0.687 9.407,1.025 9.407,1.401 L9.407,3.203 C13.973,3.805 15.494,6.653 15.980,8.697 C16.052,8.998 15.932,9.312 15.678,9.491 ZM2.963,7.277 L6.076,10.366 C5.991,10.618 5.799,10.828 5.541,10.933 C5.190,11.076 4.783,10.996 4.515,10.730 L0.361,6.609 C-0.125,6.127 -0.125,5.349 0.361,4.868 L4.515,0.746 C4.784,0.480 5.190,0.400 5.541,0.544 C5.799,0.648 5.992,0.858 6.076,1.111 L2.963,4.199 C2.107,5.047 2.107,6.428 2.963,7.277 Z"/>
</svg>