<svg 
 xmlns="http://www.w3.org/2000/svg"
 xmlns:xlink="http://www.w3.org/1999/xlink"
 width="0.278in" height="0.194in">
<path fill-rule="evenodd"  fill="rgb(54, 66, 90)"
 d="M19.541,11.164 C18.913,11.767 15.636,13.709 14.478,13.978 C13.669,14.166 7.803,13.091 7.125,12.937 C6.692,12.839 6.225,13.154 5.892,13.438 C5.587,13.698 5.549,13.329 5.551,13.302 C5.636,12.004 5.793,9.519 5.872,8.304 C5.889,8.042 6.061,8.047 6.334,8.003 C7.132,7.873 8.780,7.621 9.448,7.641 C10.865,7.683 14.184,8.898 14.750,9.027 C15.320,9.156 15.468,10.135 14.421,10.415 C13.055,10.779 10.797,9.977 10.797,10.208 C10.797,10.820 13.372,11.337 14.740,11.123 C16.278,10.881 17.821,10.309 18.942,9.690 C19.758,9.240 20.515,10.228 19.541,11.164 ZM18.453,5.748 C18.756,5.946 18.908,6.327 18.799,6.693 C18.666,7.140 18.196,7.394 17.750,7.261 L11.074,5.275 C10.912,5.227 10.834,5.339 10.794,5.394 C10.021,6.478 8.617,7.007 7.271,6.607 C5.578,6.103 4.610,4.316 5.114,2.623 C5.618,0.930 7.405,-0.038 9.099,0.466 C10.386,0.849 11.253,1.973 11.374,3.234 C11.386,3.358 11.389,3.610 11.555,3.659 L13.920,4.363 C13.920,4.363 14.101,4.446 14.156,4.262 C14.234,3.998 14.470,3.207 14.470,3.207 C14.603,2.760 15.072,2.507 15.518,2.639 C15.965,2.772 16.219,3.242 16.086,3.688 C16.086,3.688 15.851,4.479 15.772,4.743 C15.719,4.923 15.901,4.952 15.901,4.952 C15.901,4.952 16.303,5.071 16.436,5.111 C16.632,5.169 16.665,4.996 16.665,4.996 L16.879,4.275 C17.012,3.829 17.482,3.575 17.928,3.708 C18.374,3.841 18.628,4.310 18.496,4.756 L18.277,5.490 C18.241,5.611 18.386,5.704 18.453,5.748 ZM8.778,1.543 C7.679,1.216 6.518,1.844 6.191,2.943 C5.864,4.042 6.492,5.202 7.592,5.530 C8.691,5.856 9.851,5.228 10.178,4.129 C10.505,3.030 9.877,1.870 8.778,1.543 ZM4.278,13.295 C4.260,13.531 4.051,13.717 3.813,13.708 L0.407,13.709 C0.170,13.700 0.024,13.504 0.083,13.274 L0.642,8.201 C0.701,7.971 0.943,7.792 1.180,7.804 L4.253,7.955 C4.491,7.967 4.670,8.170 4.652,8.407 L4.278,13.295 ZM2.444,11.337 C1.975,11.337 1.595,11.717 1.595,12.187 C1.595,12.656 1.975,13.036 2.444,13.036 C2.913,13.036 3.294,12.656 3.294,12.187 C3.294,11.717 2.914,11.337 2.444,11.337 Z"/>
</svg>