<svg xmlns="http://www.w3.org/2000/svg" xmlns:xlink="http://www.w3.org/1999/xlink" width="0.400in" height="0.400in"><path fill-rule="evenodd"  fill="rgb(157, 157, 157)" d="M39.001,34.515 C39.001,36.099 35.660,37.079 32.565,37.079 C31.160,37.079 29.749,36.878 28.599,36.522 C27.696,38.005 26.063,39.002 24.198,39.002 C22.576,39.002 21.130,38.250 20.185,37.079 L7.661,37.079 C7.483,37.079 7.307,37.073 7.132,37.062 C4.907,36.911 3.279,34.600 2.304,32.686 C-0.374,27.428 1.129,20.914 5.877,17.196 L10.433,13.891 C11.388,13.143 12.606,12.723 13.844,12.723 L18.850,12.723 C20.251,12.723 21.459,13.420 22.226,14.006 L26.861,17.144 C28.304,18.244 29.448,19.603 30.314,21.184 C31.111,21.094 31.902,21.055 32.565,21.055 C34.956,21.055 39.001,21.527 39.001,23.299 L39.001,26.824 L39.001,30.670 C39.001,30.780 38.982,30.886 38.951,30.990 L39.001,30.990 L39.001,34.515 ZM32.565,35.797 C35.603,35.797 37.556,34.866 37.721,34.470 L37.717,32.426 C36.327,33.038 34.104,33.233 32.565,33.233 C31.375,33.233 30.241,33.138 29.265,32.958 C29.280,33.039 29.287,33.123 29.298,33.206 C29.306,33.264 29.316,33.321 29.322,33.380 C29.338,33.543 29.347,33.708 29.347,33.874 C29.347,34.102 29.327,34.325 29.298,34.545 C29.290,34.598 29.282,34.649 29.274,34.701 C29.238,34.919 29.192,35.133 29.130,35.340 C29.130,35.342 29.130,35.343 29.129,35.345 C30.128,35.635 31.344,35.797 32.565,35.797 ZM28.380,30.895 C28.393,30.913 28.408,30.931 28.421,30.950 C28.508,31.074 28.588,31.202 28.664,31.334 C28.668,31.341 28.673,31.347 28.676,31.354 C29.746,31.734 31.147,31.951 32.565,31.951 C32.819,31.951 33.047,31.940 33.282,31.931 C35.906,31.801 37.569,30.989 37.721,30.624 L37.717,28.365 C37.685,28.382 37.647,28.396 37.613,28.413 C37.507,28.465 37.397,28.516 37.281,28.565 C37.223,28.589 37.163,28.613 37.104,28.636 C36.992,28.679 36.878,28.721 36.760,28.760 C36.697,28.781 36.634,28.803 36.569,28.823 C36.437,28.865 36.300,28.903 36.160,28.941 C36.107,28.955 36.055,28.970 36.001,28.984 C35.807,29.031 35.608,29.076 35.405,29.116 C35.359,29.125 35.313,29.132 35.267,29.141 C35.106,29.171 34.942,29.199 34.776,29.223 C34.702,29.234 34.627,29.244 34.553,29.254 C34.410,29.273 34.266,29.290 34.122,29.305 C34.043,29.313 33.964,29.321 33.885,29.328 C33.734,29.340 33.583,29.351 33.432,29.360 C33.362,29.364 33.293,29.369 33.223,29.372 C33.003,29.382 32.783,29.388 32.565,29.388 C32.346,29.388 32.126,29.382 31.906,29.372 C31.838,29.369 31.770,29.364 31.702,29.360 C31.548,29.351 31.396,29.340 31.244,29.327 C31.167,29.320 31.089,29.313 31.012,29.305 C30.865,29.290 30.719,29.272 30.575,29.253 C30.502,29.243 30.429,29.234 30.357,29.223 C30.188,29.198 30.022,29.170 29.858,29.140 C29.815,29.131 29.771,29.124 29.728,29.116 C29.523,29.077 29.324,29.031 29.129,28.983 C29.078,28.971 29.030,28.956 28.980,28.942 C28.837,28.905 28.697,28.866 28.561,28.823 C28.497,28.804 28.436,28.783 28.374,28.762 C28.256,28.722 28.141,28.681 28.029,28.637 C27.968,28.613 27.909,28.590 27.851,28.566 C27.737,28.518 27.629,28.467 27.522,28.416 C27.489,28.399 27.450,28.383 27.417,28.367 C27.416,29.067 27.416,29.624 27.416,29.874 C27.423,29.881 27.430,29.887 27.437,29.894 C27.515,29.957 27.589,30.025 27.663,30.093 C27.708,30.135 27.755,30.173 27.799,30.216 C27.884,30.300 27.964,30.387 28.043,30.476 C28.071,30.508 28.100,30.536 28.127,30.568 C28.216,30.673 28.299,30.783 28.380,30.895 ZM24.198,37.719 C25.757,37.719 27.100,36.793 27.711,35.465 C27.766,35.345 27.815,35.222 27.858,35.098 C27.860,35.093 27.862,35.087 27.864,35.082 C27.903,34.963 27.936,34.843 27.964,34.721 C27.967,34.708 27.971,34.696 27.974,34.683 C27.999,34.569 28.016,34.454 28.030,34.338 C28.033,34.318 28.037,34.300 28.039,34.280 C28.053,34.145 28.061,34.010 28.061,33.874 C28.061,33.741 28.054,33.610 28.041,33.479 C28.039,33.468 28.037,33.459 28.035,33.448 C28.022,33.328 28.004,33.208 27.979,33.091 C27.977,33.082 27.974,33.073 27.972,33.063 C27.947,32.945 27.916,32.827 27.879,32.711 C27.876,32.703 27.873,32.694 27.870,32.685 C27.832,32.571 27.790,32.457 27.741,32.345 C27.712,32.279 27.679,32.214 27.646,32.150 C27.504,31.869 27.328,31.607 27.123,31.370 C27.114,31.360 27.105,31.350 27.096,31.340 C27.008,31.240 26.914,31.145 26.816,31.055 C26.793,31.033 26.769,31.011 26.746,30.991 C26.647,30.905 26.545,30.824 26.438,30.747 C26.416,30.732 26.395,30.715 26.373,30.699 L26.347,30.682 C26.189,30.576 26.020,30.484 25.846,30.402 C25.657,30.313 25.463,30.239 25.265,30.182 C25.263,30.181 25.259,30.181 25.257,30.180 C25.065,30.125 24.870,30.086 24.673,30.062 C24.663,30.059 24.653,30.058 24.642,30.056 C24.455,30.035 24.266,30.030 24.076,30.035 C24.040,30.036 24.004,30.038 23.969,30.040 C23.783,30.051 23.596,30.072 23.410,30.110 C23.390,30.113 23.370,30.121 23.350,30.125 C23.200,30.158 23.054,30.202 22.912,30.253 C22.870,30.267 22.827,30.282 22.785,30.299 C22.624,30.363 22.466,30.435 22.316,30.520 C22.313,30.521 22.311,30.523 22.308,30.524 C21.645,30.902 21.097,31.475 20.750,32.153 C20.743,32.167 20.736,32.182 20.729,32.196 C20.654,32.349 20.589,32.506 20.535,32.666 C20.529,32.683 20.521,32.699 20.516,32.716 C20.465,32.876 20.428,33.041 20.399,33.208 C20.388,33.266 20.379,33.325 20.372,33.385 C20.365,33.443 20.358,33.501 20.353,33.560 C20.347,33.630 20.344,33.700 20.342,33.770 C20.340,33.820 20.339,33.869 20.339,33.920 C20.363,36.018 22.084,37.719 24.198,37.719 ZM26.108,18.182 L21.472,15.045 C20.833,14.558 19.890,14.005 18.849,14.005 L13.843,14.005 C12.893,14.005 11.957,14.327 11.209,14.912 L6.654,18.218 C2.405,21.544 1.051,27.391 3.452,32.107 C4.616,34.391 5.953,35.697 7.218,35.782 C7.364,35.791 7.512,35.797 7.661,35.797 L19.348,35.797 C19.180,35.286 19.089,34.730 19.064,34.176 C19.058,34.076 19.048,33.977 19.048,33.875 C19.048,33.851 19.052,33.828 19.052,33.804 C19.053,33.749 19.058,33.694 19.061,33.638 C19.068,33.484 19.081,33.331 19.101,33.181 C19.106,33.146 19.106,33.109 19.111,33.075 C19.115,33.046 19.126,33.020 19.131,32.991 C19.169,32.771 19.218,32.553 19.284,32.342 C19.299,32.294 19.319,32.248 19.336,32.201 C19.393,32.035 19.459,31.875 19.532,31.718 C19.566,31.647 19.599,31.576 19.635,31.507 C19.728,31.330 19.829,31.157 19.942,30.991 C19.987,30.927 20.036,30.868 20.083,30.804 C20.170,30.689 20.262,30.577 20.359,30.470 C20.416,30.406 20.470,30.342 20.530,30.282 C20.667,30.143 20.811,30.013 20.962,29.891 C21.029,29.837 21.099,29.788 21.169,29.737 C21.286,29.651 21.409,29.571 21.534,29.494 C21.600,29.455 21.663,29.412 21.730,29.376 C21.910,29.278 22.097,29.193 22.288,29.117 C22.356,29.090 22.426,29.065 22.495,29.041 C22.687,28.973 22.883,28.915 23.085,28.871 C23.102,28.867 23.118,28.860 23.136,28.856 C23.140,28.855 23.144,28.855 23.148,28.854 C23.368,28.809 23.595,28.782 23.824,28.765 C23.879,28.762 23.934,28.759 23.988,28.757 C24.058,28.755 24.127,28.747 24.197,28.747 C24.332,28.747 24.465,28.757 24.597,28.767 C24.623,28.769 24.649,28.768 24.676,28.771 C24.911,28.793 25.140,28.832 25.366,28.885 C25.396,28.892 25.426,28.900 25.456,28.908 C25.687,28.966 25.911,29.036 26.128,29.124 L26.128,26.823 L26.128,23.299 C26.128,23.178 26.150,23.065 26.186,22.956 C26.202,22.906 26.229,22.861 26.251,22.813 C26.277,22.761 26.301,22.708 26.335,22.658 C26.375,22.598 26.424,22.541 26.475,22.486 C26.501,22.457 26.527,22.429 26.556,22.401 C26.624,22.336 26.699,22.273 26.780,22.214 C26.795,22.205 26.810,22.194 26.825,22.184 C27.366,21.809 28.154,21.555 28.969,21.388 C28.219,20.137 27.259,19.061 26.108,18.182 ZM32.562,22.338 C31.526,22.338 30.658,22.414 29.933,22.522 C29.795,22.543 29.662,22.564 29.536,22.587 C29.422,22.607 29.315,22.628 29.210,22.651 C29.123,22.669 29.030,22.686 28.951,22.705 C28.777,22.747 28.620,22.790 28.476,22.834 C28.411,22.853 28.355,22.873 28.297,22.892 C28.217,22.919 28.141,22.946 28.071,22.973 C28.013,22.996 27.954,23.018 27.903,23.041 C27.855,23.062 27.813,23.083 27.772,23.104 C27.695,23.142 27.630,23.178 27.578,23.212 C27.544,23.234 27.510,23.257 27.486,23.276 C27.477,23.283 27.472,23.290 27.465,23.296 C27.477,23.309 27.487,23.321 27.504,23.334 C27.529,23.355 27.560,23.375 27.594,23.397 C27.636,23.424 27.688,23.452 27.744,23.481 C27.790,23.504 27.837,23.527 27.892,23.551 C27.959,23.581 28.039,23.611 28.121,23.642 C28.187,23.666 28.253,23.692 28.328,23.716 C28.422,23.746 28.530,23.777 28.639,23.808 C28.724,23.832 28.807,23.856 28.901,23.879 C29.023,23.908 29.161,23.936 29.298,23.963 C29.402,23.985 29.500,24.007 29.612,24.027 C29.767,24.054 29.939,24.076 30.110,24.100 C30.226,24.116 30.335,24.133 30.459,24.148 C30.662,24.170 30.885,24.186 31.108,24.203 C31.221,24.212 31.324,24.223 31.443,24.230 C31.794,24.249 32.166,24.261 32.563,24.261 C32.960,24.261 33.332,24.249 33.684,24.230 C33.802,24.223 33.905,24.211 34.019,24.203 C34.241,24.187 34.465,24.171 34.667,24.148 C34.792,24.133 34.900,24.116 35.017,24.100 C35.187,24.076 35.360,24.054 35.514,24.027 C35.626,24.007 35.725,23.985 35.828,23.963 C35.965,23.936 36.103,23.908 36.226,23.879 C36.320,23.856 36.403,23.831 36.488,23.808 C36.597,23.777 36.705,23.746 36.799,23.716 C36.874,23.691 36.940,23.666 37.006,23.642 C37.087,23.611 37.167,23.581 37.235,23.551 C37.289,23.527 37.337,23.504 37.383,23.481 C37.439,23.452 37.490,23.424 37.533,23.397 C37.567,23.375 37.597,23.354 37.622,23.334 C37.641,23.320 37.652,23.306 37.665,23.293 C37.305,22.962 35.604,22.337 32.562,22.338 ZM37.717,24.733 C37.699,24.741 37.678,24.748 37.660,24.756 C37.509,24.819 37.350,24.880 37.182,24.935 C37.173,24.938 37.165,24.941 37.156,24.944 C36.978,25.002 36.790,25.053 36.598,25.102 C36.536,25.117 36.473,25.130 36.410,25.145 C36.271,25.177 36.132,25.207 35.989,25.234 C35.920,25.247 35.852,25.260 35.782,25.273 C35.626,25.300 35.469,25.325 35.311,25.347 C35.260,25.355 35.210,25.363 35.159,25.370 C34.951,25.398 34.743,25.422 34.536,25.443 C34.485,25.447 34.434,25.451 34.383,25.456 C34.224,25.470 34.066,25.484 33.910,25.493 C33.842,25.498 33.776,25.502 33.708,25.506 C33.565,25.514 33.425,25.521 33.287,25.525 C33.228,25.527 33.169,25.530 33.110,25.532 C32.922,25.537 32.738,25.541 32.565,25.541 C32.391,25.541 32.207,25.537 32.018,25.532 C31.961,25.530 31.902,25.527 31.844,25.525 C31.705,25.521 31.564,25.514 31.420,25.506 C31.354,25.502 31.288,25.498 31.221,25.493 C31.065,25.484 30.908,25.470 30.749,25.457 C30.697,25.452 30.646,25.448 30.594,25.443 C30.387,25.423 30.179,25.399 29.971,25.371 C29.921,25.364 29.872,25.356 29.821,25.349 C29.663,25.326 29.505,25.301 29.349,25.274 C29.280,25.262 29.211,25.249 29.142,25.235 C29.000,25.209 28.861,25.178 28.723,25.147 C28.660,25.133 28.597,25.119 28.535,25.104 C28.346,25.056 28.162,25.006 27.987,24.950 C27.977,24.947 27.968,24.944 27.959,24.941 C27.788,24.884 27.627,24.822 27.473,24.757 C27.456,24.750 27.437,24.744 27.421,24.738 C27.421,25.355 27.420,26.097 27.419,26.828 C27.589,27.182 29.538,28.106 32.565,28.106 C35.603,28.106 37.556,27.175 37.721,26.777 L37.717,24.733 ZM14.544,18.491 C11.151,18.491 6.820,23.164 6.820,26.823 C6.820,27.177 6.532,27.465 6.177,27.465 C5.821,27.465 5.533,27.177 5.533,26.823 C5.533,22.421 10.417,17.210 14.544,17.210 C14.899,17.210 15.187,17.497 15.187,17.850 C15.187,18.204 14.899,18.491 14.544,18.491 ZM22.334,12.834 C21.575,12.834 20.865,12.560 20.288,12.082 L12.613,12.082 C12.258,12.082 11.969,11.795 11.969,11.441 C11.969,11.088 12.258,10.800 12.613,10.800 L19.693,10.800 L19.693,10.159 L11.969,10.159 C11.614,10.159 11.326,9.872 11.326,9.518 C11.326,9.164 11.614,8.878 11.969,8.878 L19.693,8.878 C19.812,8.878 19.919,8.918 20.015,8.975 C20.110,8.919 20.217,8.878 20.336,8.878 C20.692,8.878 20.980,9.164 20.980,9.518 L20.980,10.997 C21.712,11.714 22.973,11.713 23.700,10.988 C23.952,10.737 24.358,10.737 24.610,10.988 C24.862,11.239 24.862,11.643 24.610,11.894 C24.002,12.500 23.193,12.834 22.334,12.834 ZM19.657,6.974 C19.395,7.729 18.689,8.236 17.900,8.236 L13.117,8.236 C12.328,8.236 11.622,7.729 11.360,6.974 C11.174,6.436 10.118,4.706 9.429,4.125 C8.895,3.675 8.645,2.977 8.776,2.304 C8.905,1.642 9.370,1.119 10.018,0.905 C11.951,0.268 13.663,0.482 14.972,1.525 C15.207,1.712 15.523,1.712 15.758,1.525 C17.067,0.482 18.781,0.267 20.712,0.905 C21.360,1.118 21.824,1.642 21.953,2.303 C22.084,2.976 21.834,3.675 21.300,4.125 C20.692,4.638 19.907,6.252 19.657,6.974 ZM20.307,2.122 C18.787,1.621 17.528,1.757 16.561,2.526 C15.858,3.087 14.873,3.089 14.168,2.526 C13.583,2.061 12.890,1.827 12.095,1.827 C11.579,1.827 11.021,1.925 10.423,2.122 C10.145,2.214 10.063,2.428 10.040,2.548 C9.996,2.770 10.079,2.994 10.262,3.147 C11.116,3.869 12.310,5.782 12.578,6.557 C12.660,6.795 12.877,6.955 13.118,6.955 L17.901,6.955 C18.141,6.955 18.359,6.795 18.441,6.557 C18.606,6.080 19.485,3.977 20.468,3.147 C20.650,2.994 20.732,2.770 20.689,2.548 C20.666,2.429 20.585,2.214 20.307,2.122 Z"/></svg>