<svg 
 xmlns="http://www.w3.org/2000/svg"
 xmlns:xlink="http://www.w3.org/1999/xlink"
 width="0.306in" height="0.306in">
<path fill-rule="evenodd"  fill="rgb(222, 227, 236)"
 d="M11.000,22.000 C4.958,22.000 -0.000,17.042 -0.000,11.000 C-0.000,8.092 1.233,5.303 3.268,3.261 L2.299,3.261 C1.942,3.261 1.654,2.977 1.654,2.621 C1.654,2.265 1.942,1.977 2.299,1.977 L4.877,1.977 C5.233,1.977 5.543,2.265 5.543,2.621 L5.543,5.199 C5.543,5.555 5.255,5.844 4.898,5.844 C4.542,5.844 4.254,5.555 4.254,5.199 L4.254,4.118 C2.423,5.925 1.289,8.408 1.289,11.000 C1.289,16.331 5.669,20.711 11.000,20.711 C16.331,20.711 20.711,16.331 20.711,11.000 C20.711,5.669 16.331,1.289 11.000,1.289 C10.644,1.289 10.355,1.001 10.355,0.644 C10.355,0.288 10.644,-0.000 11.000,-0.000 C17.042,-0.000 22.000,4.958 22.000,11.000 C22.000,17.042 17.042,22.000 11.000,22.000 ZM6.466,5.555 C7.541,4.659 8.884,4.076 10.355,3.943 L10.355,4.555 C10.355,4.911 10.644,5.199 11.000,5.199 C11.356,5.199 11.644,4.911 11.644,4.555 L11.644,3.943 C13.116,4.076 14.459,4.659 15.533,5.555 L15.102,5.987 C14.850,6.239 14.850,6.646 15.102,6.898 C15.354,7.150 15.761,7.150 16.013,6.898 L16.445,6.466 C17.341,7.541 17.924,8.884 18.057,10.355 L17.445,10.355 C17.089,10.355 16.801,10.644 16.801,11.000 C16.801,11.356 17.089,11.644 17.445,11.644 L18.057,11.644 C17.924,13.116 17.341,14.459 16.445,15.533 L16.013,15.102 C15.761,14.850 15.354,14.850 15.102,15.102 C14.850,15.354 14.850,15.761 15.102,16.013 L15.533,16.445 C14.459,17.341 13.116,17.924 11.644,18.057 L11.644,17.445 C11.644,17.089 11.356,16.801 11.000,16.801 C10.644,16.801 10.355,17.089 10.355,17.445 L10.355,18.057 C8.884,17.924 7.541,17.341 6.466,16.445 L6.898,16.013 C7.150,15.761 7.150,15.354 6.898,15.102 C6.646,14.850 6.239,14.850 5.987,15.102 L5.555,15.533 C4.659,14.459 4.076,13.116 3.943,11.644 L4.555,11.644 C4.911,11.644 5.199,11.356 5.199,11.000 C5.199,10.644 4.911,10.355 4.555,10.355 L3.943,10.355 C4.076,8.884 4.659,7.541 5.555,6.466 L5.987,6.898 C6.239,7.150 6.646,7.150 6.898,6.898 C7.150,6.646 7.150,6.239 6.898,5.987 L6.466,5.555 ZM10.355,11.000 C10.355,11.171 10.423,11.335 10.544,11.456 L11.833,12.745 C12.085,12.996 12.493,12.996 12.745,12.745 C12.996,12.493 12.996,12.085 12.745,11.833 L11.644,10.733 L11.644,8.422 C11.644,8.066 11.356,7.777 11.000,7.777 C10.644,7.777 10.355,8.066 10.355,8.422 L10.355,11.000 Z"/>
</svg>