<svg 
 xmlns="http://www.w3.org/2000/svg"
 xmlns:xlink="http://www.w3.org/1999/xlink"
 width="0.208in" height="0.167in">
<path fill-rule="evenodd"  fill="rgb(27, 40, 50)"
 d="M14.480,11.112 L9.900,11.112 C9.712,11.112 9.559,10.958 9.559,10.771 L9.559,7.813 C9.559,7.625 9.712,7.472 9.900,7.472 L10.400,7.472 L10.400,6.676 C10.400,5.689 11.205,4.884 12.192,4.884 C13.178,4.884 13.983,5.689 13.983,6.676 L13.983,7.472 L14.483,7.472 C14.671,7.472 14.824,7.623 14.822,7.813 L14.822,10.771 C14.822,10.958 14.668,11.112 14.480,11.112 ZM13.300,6.673 C13.300,6.062 12.803,5.564 12.192,5.564 C11.580,5.564 11.083,6.062 11.083,6.673 L11.083,7.469 L13.300,7.469 L13.300,6.673 ZM14.139,8.152 L10.241,8.152 L10.241,10.427 L14.139,10.427 L14.139,8.152 ZM3.330,6.901 L4.970,6.901 C5.158,6.901 5.311,7.054 5.311,7.242 C5.311,7.430 5.158,7.583 4.970,7.583 L3.330,7.583 C3.142,7.583 2.988,7.430 2.988,7.242 C2.988,7.054 3.142,6.901 3.330,6.901 ZM7.390,5.123 L3.290,5.123 C3.099,5.123 2.949,4.969 2.949,4.782 C2.949,4.594 3.102,4.441 3.290,4.441 L7.390,4.441 C7.577,4.441 7.731,4.594 7.731,4.782 C7.731,4.969 7.577,5.123 7.390,5.123 ZM7.429,6.360 L3.330,6.360 C3.142,6.360 2.988,6.207 2.988,6.019 C2.988,5.831 3.142,5.677 3.330,5.677 L7.429,5.677 C7.617,5.677 7.771,5.831 7.771,6.019 C7.771,6.207 7.620,6.360 7.429,6.360 ZM13.579,4.509 C13.392,4.509 13.238,4.355 13.238,4.167 L13.238,3.485 L1.624,3.485 L1.624,8.678 C1.624,8.829 1.746,8.951 1.897,8.951 L8.481,8.951 C8.672,8.951 8.825,9.105 8.825,9.292 C8.825,9.480 8.672,9.634 8.484,9.634 L1.897,9.634 C1.371,9.634 0.941,9.204 0.941,8.678 L0.941,1.707 C0.941,1.182 1.368,0.752 1.897,0.752 L12.965,0.752 C13.491,0.752 13.920,1.182 13.920,1.707 L13.920,4.167 C13.920,4.355 13.767,4.509 13.579,4.509 ZM13.238,1.707 C13.238,1.557 13.116,1.434 12.965,1.434 L1.897,1.434 C1.746,1.434 1.621,1.557 1.621,1.707 L1.621,2.802 L13.238,2.802 L13.238,1.707 Z"/>
</svg>