<svg
 xmlns="http://www.w3.org/2000/svg"
 xmlns:xlink="http://www.w3.org/1999/xlink"
 width="0.208in" height="0.153in">
<path fill-rule="evenodd"  fill="white"
 d="M14.452,10.886 L9.672,10.886 C9.476,10.886 9.316,10.726 9.316,10.530 L9.316,7.443 C9.316,7.248 9.476,7.087 9.672,7.087 L10.194,7.087 L10.194,6.256 C10.194,5.227 11.034,4.387 12.063,4.387 C13.093,4.387 13.932,5.227 13.932,6.256 L13.932,7.087 L14.455,7.087 C14.650,7.087 14.811,7.245 14.808,7.443 L14.808,10.530 C14.808,10.726 14.647,10.886 14.452,10.886 ZM13.220,6.254 C13.220,5.616 12.701,5.096 12.063,5.096 C11.425,5.096 10.906,5.616 10.906,6.254 L10.906,7.085 L13.220,7.085 L13.220,6.254 ZM14.096,7.797 L10.028,7.797 L10.028,10.171 L14.096,10.171 L14.096,7.797 ZM2.815,6.491 L4.527,6.491 C4.723,6.491 4.883,6.651 4.883,6.847 C4.883,7.043 4.723,7.203 4.527,7.203 L2.815,7.203 C2.619,7.203 2.459,7.043 2.459,6.847 C2.459,6.651 2.619,6.491 2.815,6.491 ZM7.052,4.636 L2.773,4.636 C2.575,4.636 2.417,4.476 2.417,4.280 C2.417,4.084 2.577,3.924 2.773,3.924 L7.052,3.924 C7.248,3.924 7.408,4.084 7.408,4.280 C7.408,4.476 7.248,4.636 7.052,4.636 ZM7.093,5.927 L2.815,5.927 C2.619,5.927 2.459,5.767 2.459,5.571 C2.459,5.375 2.619,5.215 2.815,5.215 L7.093,5.215 C7.289,5.215 7.449,5.375 7.449,5.571 C7.449,5.767 7.292,5.927 7.093,5.927 ZM13.511,3.995 C13.315,3.995 13.155,3.835 13.155,3.639 L13.155,2.927 L1.035,2.927 L1.035,8.346 C1.035,8.503 1.162,8.631 1.319,8.631 L8.191,8.631 C8.390,8.631 8.550,8.791 8.550,8.987 C8.550,9.183 8.390,9.343 8.194,9.343 L1.319,9.343 C0.770,9.343 0.323,8.895 0.323,8.346 L0.323,1.072 C0.323,0.523 0.768,0.074 1.319,0.074 L12.870,0.074 C13.419,0.074 13.867,0.523 13.867,1.072 L13.867,3.639 C13.867,3.835 13.707,3.995 13.511,3.995 ZM13.155,1.072 C13.155,0.915 13.027,0.787 12.870,0.787 L1.319,0.787 C1.162,0.787 1.032,0.915 1.032,1.072 L1.032,2.214 L13.155,2.214 L13.155,1.072 Z"/>
</svg>
