<svg 
 xmlns="http://www.w3.org/2000/svg"
 xmlns:xlink="http://www.w3.org/1999/xlink"
 width="0.264in" height="0.264in">
<path fill-rule="evenodd"  opacity="0.851" fill="rgb(246, 246, 246)"
 d="M15.270,14.679 C14.614,13.429 13.698,12.579 12.281,12.335 C11.178,12.145 10.041,12.299 8.938,12.408 C7.839,12.517 6.692,12.650 5.603,12.392 C4.832,12.209 4.232,11.832 3.745,11.312 L1.125,18.413 L-0.000,17.997 L2.912,10.107 C3.991,7.184 5.069,4.262 6.148,1.340 C6.313,0.893 6.478,0.447 6.643,-0.000 C7.241,1.140 8.052,1.981 9.334,2.285 C10.422,2.543 11.570,2.410 12.669,2.302 C13.772,2.193 14.908,2.038 16.011,2.228 C17.429,2.473 18.344,3.323 19.000,4.573 C17.757,7.941 16.513,11.310 15.270,14.679 ZM15.000,5.360 C15.219,4.766 15.439,4.171 15.658,3.576 C14.927,3.458 14.214,3.459 13.476,3.504 C13.257,4.099 13.037,4.694 12.818,5.288 C13.555,5.243 14.269,5.242 15.000,5.360 C14.760,6.009 14.521,6.658 14.282,7.306 C13.551,7.188 12.837,7.189 12.099,7.234 C12.339,6.585 12.578,5.937 12.818,5.288 C12.055,5.350 11.294,5.438 10.531,5.499 C10.751,4.904 10.970,4.310 11.190,3.715 C10.452,3.760 9.738,3.761 9.007,3.643 C8.788,4.238 8.568,4.832 8.349,5.427 C7.631,5.289 7.036,4.976 6.481,4.507 C6.242,5.156 6.002,5.804 5.763,6.453 C6.317,6.921 6.913,7.235 7.631,7.373 C7.870,6.724 8.109,6.076 8.349,5.427 C9.080,5.545 9.793,5.544 10.531,5.499 C10.292,6.148 10.052,6.796 9.813,7.445 C9.075,7.490 8.362,7.491 7.631,7.373 C7.391,8.022 7.152,8.670 6.912,9.319 C6.194,9.181 5.599,8.867 5.045,8.399 C4.825,8.993 4.605,9.588 4.386,10.183 C4.940,10.652 5.536,10.965 6.254,11.103 C6.473,10.508 6.693,9.914 6.912,9.319 C7.643,9.437 8.357,9.436 9.095,9.391 C8.875,9.986 8.655,10.580 8.436,11.175 C9.199,11.114 9.960,11.026 10.723,10.964 C10.942,10.370 11.162,9.775 11.381,9.180 C12.119,9.135 12.832,9.134 13.563,9.252 C13.344,9.847 13.124,10.442 12.905,11.036 C13.623,11.174 14.218,11.488 14.772,11.957 C14.992,11.362 15.212,10.767 15.431,10.172 C14.876,9.704 14.281,9.390 13.563,9.252 C13.803,8.603 14.042,7.955 14.282,7.306 C14.999,7.444 15.595,7.758 16.149,8.226 C16.389,7.578 16.628,6.929 16.868,6.281 C16.313,5.812 15.718,5.499 15.000,5.360 ZM9.095,9.391 C9.334,8.742 9.573,8.094 9.813,7.445 C10.576,7.383 11.336,7.296 12.099,7.234 C11.860,7.883 11.621,8.531 11.381,9.180 C10.618,9.242 9.858,9.329 9.095,9.391 Z"/>
</svg>