<svg 
 xmlns="http://www.w3.org/2000/svg"
 xmlns:xlink="http://www.w3.org/1999/xlink"
 width="0.650in" height="0.611in">
<path fill-rule="evenodd"  fill="rgb(147, 162, 216)"
 d="M38.536,43.999 L22.711,43.999 C22.710,43.999 22.709,43.999 22.708,43.999 C22.707,43.999 22.706,43.999 22.705,43.999 L18.584,43.999 C18.583,43.999 18.582,43.999 18.581,43.999 C18.580,43.999 18.579,43.999 18.578,43.999 L2.753,43.999 C1.235,43.999 0.000,42.881 0.000,41.506 L0.000,39.801 C0.000,38.322 0.467,36.823 1.316,35.581 C2.244,34.224 3.538,33.281 5.058,32.856 C5.072,32.852 5.087,32.849 5.102,32.845 L10.592,31.698 L12.070,29.460 C12.077,29.448 12.085,29.437 12.094,29.426 C12.317,29.127 12.658,28.931 13.029,28.886 C13.399,28.841 13.777,28.950 14.066,29.187 C14.071,29.190 14.075,29.194 14.079,29.197 L20.644,34.843 L27.210,29.197 C27.214,29.194 27.218,29.190 27.223,29.187 C27.512,28.950 27.890,28.841 28.260,28.886 C28.631,28.931 28.971,29.127 29.195,29.426 C29.204,29.437 29.212,29.448 29.219,29.460 L30.697,31.698 L36.187,32.845 C36.202,32.849 36.217,32.852 36.231,32.856 C37.751,33.281 39.045,34.224 39.973,35.581 C40.822,36.823 41.289,38.322 41.289,39.801 L41.289,41.506 C41.289,42.881 40.054,43.999 38.536,43.999 ZM21.870,42.624 L21.456,40.558 C21.415,40.561 21.374,40.562 21.333,40.562 L19.956,40.562 C19.915,40.562 19.874,40.561 19.833,40.558 L19.419,42.624 L21.870,42.624 ZM5.407,34.186 C2.761,34.939 1.376,37.577 1.376,39.801 L1.376,41.506 C1.376,42.123 1.994,42.624 2.753,42.624 L18.016,42.624 L18.541,39.999 C18.336,39.805 18.169,39.571 18.057,39.307 L17.002,40.361 C16.873,40.490 16.697,40.562 16.516,40.562 C16.498,40.562 16.480,40.562 16.462,40.560 C16.261,40.544 16.077,40.442 15.959,40.279 L10.716,33.077 L5.407,34.186 ZM13.196,30.252 L11.847,32.294 L16.598,38.820 L18.093,37.327 C18.093,37.327 18.094,37.327 18.094,37.327 L19.634,35.788 L13.196,30.252 ZM19.268,38.097 L19.268,38.500 C19.268,38.879 19.577,39.188 19.956,39.188 L21.333,39.188 C21.712,39.188 22.021,38.879 22.021,38.500 L22.021,38.500 L22.021,38.097 L20.645,36.722 L19.268,38.097 ZM28.093,30.252 L21.655,35.788 L23.195,37.327 C23.195,37.327 23.196,37.327 23.196,37.327 L24.691,38.820 L29.442,32.294 L28.093,30.252 ZM39.913,39.801 C39.913,37.577 38.528,34.939 35.882,34.186 L30.573,33.077 L25.330,40.279 C25.212,40.442 25.028,40.545 24.827,40.560 C24.809,40.562 24.791,40.562 24.773,40.562 C24.592,40.562 24.416,40.490 24.287,40.361 L23.232,39.307 C23.120,39.571 22.953,39.805 22.748,39.999 L23.273,42.624 L38.536,42.624 C39.295,42.624 39.913,42.123 39.913,41.506 L39.913,39.801 ZM29.376,27.281 C28.582,27.665 27.764,27.856 26.960,27.856 C26.849,27.856 26.739,27.851 26.628,27.843 C26.620,27.851 26.613,27.860 26.604,27.867 C24.831,29.426 22.772,30.251 20.651,30.251 C17.912,30.251 15.302,28.887 13.300,26.411 C12.261,25.124 11.463,23.612 10.953,22.003 L10.322,22.003 L10.322,30.252 C10.322,30.632 10.014,30.940 9.634,30.940 C9.254,30.940 8.946,30.632 8.946,30.252 L8.946,21.884 C8.145,21.601 7.570,20.837 7.570,19.940 L7.570,15.816 C7.570,14.679 8.496,13.753 9.634,13.753 L9.749,13.753 C9.371,11.813 8.946,9.252 8.946,7.565 C8.946,3.922 11.092,1.378 14.166,1.378 C14.213,1.378 14.260,1.383 14.305,1.392 C17.302,-0.742 21.134,0.024 24.843,0.768 C27.055,1.212 29.144,1.631 30.869,1.385 C30.872,1.385 30.874,1.385 30.876,1.384 C30.892,1.382 30.908,1.381 30.924,1.380 C30.931,1.380 30.938,1.379 30.945,1.378 C30.960,1.378 30.975,1.378 30.990,1.379 C30.998,1.379 31.007,1.379 31.015,1.380 C31.028,1.381 31.041,1.383 31.054,1.384 C31.063,1.385 31.073,1.386 31.082,1.388 C31.094,1.390 31.105,1.392 31.116,1.395 C31.127,1.398 31.138,1.400 31.148,1.402 C31.159,1.406 31.169,1.409 31.179,1.412 C31.190,1.416 31.201,1.419 31.211,1.423 C31.222,1.427 31.233,1.432 31.243,1.437 C31.252,1.441 31.262,1.445 31.271,1.449 C31.283,1.455 31.295,1.462 31.307,1.468 C31.314,1.472 31.321,1.476 31.328,1.481 C31.341,1.488 31.353,1.497 31.366,1.506 C31.371,1.510 31.377,1.513 31.382,1.518 C31.395,1.527 31.406,1.537 31.418,1.547 C31.423,1.552 31.428,1.556 31.433,1.560 C31.444,1.570 31.454,1.581 31.464,1.591 C31.469,1.597 31.475,1.602 31.480,1.608 C31.489,1.618 31.496,1.627 31.504,1.637 C31.511,1.645 31.517,1.653 31.523,1.661 C31.529,1.670 31.535,1.678 31.540,1.687 C31.548,1.698 31.555,1.708 31.561,1.720 C31.566,1.727 31.569,1.735 31.573,1.742 C31.580,1.755 31.587,1.768 31.593,1.782 C31.594,1.784 31.596,1.787 31.597,1.789 C32.207,3.176 32.898,7.944 31.373,13.753 L31.655,13.753 C32.793,13.753 33.719,14.679 33.719,15.816 L33.719,19.940 C33.719,23.075 31.974,26.025 29.376,27.281 ZM10.301,16.368 C10.259,16.189 10.158,15.743 10.028,15.129 L9.634,15.129 C9.255,15.129 8.946,15.437 8.946,15.816 L8.946,19.940 C8.946,20.320 9.255,20.628 9.634,20.628 L10.592,20.628 C10.401,19.715 10.301,18.783 10.301,17.855 L10.301,16.368 ZM30.495,2.806 C30.253,2.824 30.007,2.833 29.759,2.833 C28.145,2.833 26.398,2.483 24.572,2.116 C21.090,1.418 17.490,0.695 14.963,2.613 C14.783,2.749 14.558,2.783 14.357,2.725 C14.296,2.743 14.232,2.753 14.166,2.753 C12.253,2.753 10.322,4.241 10.322,7.565 C10.322,9.013 10.674,11.232 11.017,13.048 C11.623,11.063 12.402,9.439 12.455,9.328 C12.456,9.327 12.457,9.326 12.457,9.325 C12.464,9.311 12.471,9.298 12.479,9.285 C12.483,9.278 12.486,9.271 12.491,9.264 C12.497,9.254 12.503,9.245 12.510,9.236 C12.517,9.227 12.523,9.217 12.530,9.207 C12.531,9.206 12.533,9.204 12.534,9.202 C12.570,9.157 12.612,9.116 12.657,9.082 C12.662,9.078 12.667,9.073 12.673,9.069 C12.673,9.069 12.673,9.069 12.674,9.068 C12.737,9.023 12.810,8.988 12.888,8.967 C12.897,8.964 12.905,8.961 12.914,8.959 C12.923,8.957 12.933,8.955 12.943,8.953 C12.956,8.951 12.969,8.948 12.982,8.946 C12.984,8.946 12.985,8.946 12.987,8.945 C22.903,7.671 28.981,10.948 29.235,11.088 C29.370,11.163 29.477,11.281 29.537,11.423 L30.165,12.918 C31.319,8.178 30.918,4.331 30.495,2.806 ZM32.343,19.940 L32.343,15.816 C32.343,15.437 32.034,15.129 31.655,15.129 L30.983,15.129 L30.983,17.861 C30.983,18.784 30.884,19.714 30.694,20.628 L31.655,20.628 C32.034,20.628 32.343,20.320 32.343,19.940 ZM31.655,22.003 L30.335,22.003 C29.989,23.097 29.512,24.149 28.913,25.115 C28.782,25.325 28.557,25.441 28.327,25.441 C28.203,25.441 28.078,25.407 27.965,25.337 C27.642,25.137 27.543,24.714 27.743,24.391 C28.945,22.454 29.607,20.134 29.607,17.861 L29.607,15.138 L28.366,12.189 C27.876,11.951 26.516,11.345 24.444,10.839 C22.082,10.263 18.294,9.706 13.539,10.264 C13.067,11.317 11.677,14.623 11.677,17.072 L11.677,17.855 C11.677,20.625 12.659,23.428 14.371,25.547 C16.106,27.694 18.337,28.876 20.651,28.876 C22.143,28.876 23.608,28.379 24.937,27.434 C24.493,27.242 24.064,26.987 23.658,26.666 C23.637,26.650 23.617,26.632 23.599,26.613 C23.329,26.742 23.027,26.815 22.709,26.815 C21.571,26.815 20.645,25.890 20.645,24.753 C20.645,23.616 21.571,22.691 22.709,22.691 C23.847,22.691 24.773,23.616 24.773,24.753 C24.773,25.069 24.702,25.368 24.574,25.636 C25.835,26.600 27.325,26.745 28.777,26.043 C30.315,25.299 31.513,23.753 32.044,21.966 C31.918,21.990 31.788,22.003 31.655,22.003 ZM23.397,24.753 C23.397,24.374 23.088,24.065 22.709,24.065 C22.330,24.065 22.021,24.374 22.021,24.753 C22.021,25.132 22.330,25.440 22.709,25.440 C23.088,25.440 23.397,25.132 23.397,24.753 Z"/>
</svg>