<svg 
 xmlns="http://www.w3.org/2000/svg"
 xmlns:xlink="http://www.w3.org/1999/xlink"
 width="0.514in" height="0.681in">
<path fill-rule="evenodd"  fill="rgb(147, 162, 216)"
 d="M35.854,45.458 C35.975,45.673 35.986,45.933 35.882,46.157 C35.777,46.383 35.569,46.544 35.324,46.588 L33.337,46.947 L31.583,48.766 C31.438,48.916 31.238,49.000 31.032,49.000 C31.000,49.000 30.968,48.998 30.936,48.994 C30.696,48.963 30.485,48.822 30.366,48.611 L28.851,45.937 L26.257,45.937 L24.727,48.614 C24.607,48.823 24.396,48.964 24.157,48.994 C24.125,48.998 24.094,49.000 24.062,49.000 C23.856,49.000 23.656,48.916 23.511,48.766 L21.757,46.947 L19.770,46.588 C19.524,46.543 19.316,46.382 19.211,46.155 C19.179,46.086 19.159,46.012 19.149,45.937 L2.297,45.937 C1.030,45.937 -0.000,44.907 -0.000,43.640 L-0.000,2.297 C-0.000,1.030 1.030,-0.000 2.297,-0.000 L34.453,-0.000 C35.720,-0.000 36.750,1.030 36.750,2.297 L36.750,43.640 C36.750,44.353 36.413,45.026 35.854,45.458 ZM31.193,46.964 L32.407,45.707 C32.519,45.591 32.664,45.513 32.822,45.484 L33.982,45.274 L31.682,41.279 C30.885,42.004 29.898,42.522 28.804,42.748 L31.193,46.964 ZM32.156,36.750 C32.156,34.217 30.095,32.156 27.562,32.156 C25.030,32.156 22.969,34.217 22.969,36.750 C22.969,39.283 25.030,41.344 27.562,41.344 C30.095,41.344 32.156,39.283 32.156,36.750 ZM27.984,44.406 L27.559,43.657 L27.132,44.406 L27.984,44.406 ZM22.272,45.484 C22.431,45.513 22.575,45.591 22.687,45.707 L23.904,46.967 L26.316,42.747 C25.223,42.520 24.236,42.001 23.440,41.276 L21.117,45.275 L22.272,45.484 ZM35.219,2.297 C35.219,1.874 34.875,1.531 34.453,1.531 L2.297,1.531 C1.875,1.531 1.531,1.874 1.531,2.297 L1.531,43.640 C1.531,44.063 1.875,44.406 2.297,44.406 L19.851,44.406 L22.394,40.030 C21.789,39.080 21.437,37.956 21.437,36.750 C21.437,33.372 24.185,30.624 27.562,30.624 C30.940,30.624 33.687,33.372 33.687,36.750 C33.687,37.956 33.335,39.082 32.730,40.031 L35.068,44.092 C35.164,43.962 35.219,43.804 35.219,43.640 L35.219,2.297 ZM32.922,31.390 C32.499,31.390 32.156,31.047 32.156,30.624 L32.156,7.579 C30.658,7.274 29.476,6.091 29.171,4.593 L7.579,4.593 C7.274,6.091 6.091,7.274 4.594,7.579 L4.594,38.357 C6.091,38.663 7.274,39.846 7.579,41.344 L18.375,41.344 C18.798,41.344 19.141,41.686 19.141,42.109 C19.141,42.532 18.798,42.874 18.375,42.874 L6.891,42.874 C6.468,42.874 6.125,42.532 6.125,42.109 C6.125,40.842 5.095,39.812 3.828,39.812 C3.405,39.812 3.062,39.469 3.062,39.046 L3.062,6.890 C3.062,6.468 3.405,6.125 3.828,6.125 C5.095,6.125 6.125,5.094 6.125,3.828 C6.125,3.405 6.468,3.062 6.891,3.062 L29.859,3.062 C30.282,3.062 30.625,3.405 30.625,3.828 C30.625,5.094 31.655,6.125 32.922,6.125 C33.345,6.125 33.687,6.468 33.687,6.890 L33.687,30.624 C33.687,31.047 33.345,31.390 32.922,31.390 ZM13.781,28.327 C13.781,27.905 14.124,27.562 14.547,27.562 L26.031,27.562 C26.454,27.562 26.797,27.905 26.797,28.327 C26.797,28.750 26.454,29.093 26.031,29.093 L14.547,29.093 C14.124,29.093 13.781,28.750 13.781,28.327 ZM11.484,29.093 L10.719,29.093 C10.296,29.093 9.953,28.750 9.953,28.327 C9.953,27.905 10.296,27.562 10.719,27.562 L11.484,27.562 C11.907,27.562 12.250,27.905 12.250,28.327 C12.250,28.750 11.907,29.093 11.484,29.093 ZM11.484,21.437 L10.719,21.437 C10.296,21.437 9.953,21.094 9.953,20.671 C9.953,20.248 10.296,19.906 10.719,19.906 L11.484,19.906 C11.907,19.906 12.250,20.248 12.250,20.671 C12.250,21.094 11.907,21.437 11.484,21.437 ZM11.484,25.265 L10.719,25.265 C10.296,25.265 9.953,24.922 9.953,24.499 C9.953,24.076 10.296,23.734 10.719,23.734 L11.484,23.734 C11.907,23.734 12.250,24.076 12.250,24.499 C12.250,24.922 11.907,25.265 11.484,25.265 ZM16.078,35.984 C16.078,36.407 15.735,36.750 15.312,36.750 L8.422,36.750 C7.999,36.750 7.656,36.407 7.656,35.984 C7.656,35.561 7.999,35.218 8.422,35.218 L15.312,35.218 C15.735,35.218 16.078,35.561 16.078,35.984 ZM26.031,21.437 L14.547,21.437 C14.124,21.437 13.781,21.094 13.781,20.671 C13.781,20.248 14.124,19.906 14.547,19.906 L26.031,19.906 C26.454,19.906 26.797,20.248 26.797,20.671 C26.797,21.094 26.454,21.437 26.031,21.437 ZM26.031,25.265 L14.547,25.265 C14.124,25.265 13.781,24.922 13.781,24.499 C13.781,24.076 14.124,23.734 14.547,23.734 L26.031,23.734 C26.454,23.734 26.797,24.076 26.797,24.499 C26.797,24.922 26.454,25.265 26.031,25.265 ZM12.250,11.484 C11.827,11.484 11.484,11.141 11.484,10.718 C11.484,10.296 11.827,9.953 12.250,9.953 L24.500,9.953 C24.923,9.953 25.266,10.296 25.266,10.718 C25.266,11.141 24.923,11.484 24.500,11.484 L12.250,11.484 ZM7.656,14.547 C7.656,14.124 7.999,13.781 8.422,13.781 L28.328,13.781 C28.751,13.781 29.094,14.124 29.094,14.547 C29.094,14.969 28.751,15.312 28.328,15.312 L8.422,15.312 C7.999,15.312 7.656,14.969 7.656,14.547 ZM29.859,37.515 C29.437,37.515 29.094,37.173 29.094,36.750 C29.094,35.905 28.407,35.218 27.562,35.218 C27.140,35.218 26.797,34.875 26.797,34.453 C26.797,34.030 27.140,33.687 27.562,33.687 C29.251,33.687 30.625,35.061 30.625,36.750 C30.625,37.173 30.282,37.515 29.859,37.515 Z"/>
</svg>