<svg 
 xmlns="http://www.w3.org/2000/svg"
 xmlns:xlink="http://www.w3.org/1999/xlink"
 width="1.014in" height="1.014in">
<path fill-rule="evenodd"  fill="rgb(49, 71, 88)"
 d="M69.600,45.430 C71.597,58.313 61.533,63.119 61.384,63.119 L60.013,63.878 L60.009,63.867 C58.467,67.689 56.135,70.395 53.009,71.782 C51.334,72.693 49.507,72.998 47.527,72.998 C42.744,72.998 38.357,71.026 36.672,70.179 C34.849,71.099 30.744,72.845 26.362,72.845 C23.165,72.845 19.815,71.933 17.074,69.198 C15.273,67.401 14.160,65.579 13.526,63.829 L7.481,57.343 C4.557,52.965 3.740,48.868 4.893,45.185 L4.588,45.641 C1.238,41.841 -0.589,37.282 0.172,33.634 C1.086,28.619 5.654,25.275 7.481,24.211 C7.823,15.440 13.554,12.902 16.404,12.180 L16.769,11.597 C19.206,5.518 22.556,1.718 26.819,0.502 C31.312,-0.796 35.252,1.021 36.933,1.969 C39.130,1.091 45.263,-0.904 50.268,1.718 C53.770,3.542 55.902,7.038 56.816,12.205 C60.927,13.421 67.017,16.917 66.408,23.907 C68.083,25.427 72.651,30.139 72.956,36.066 C73.238,39.449 72.078,42.570 69.600,45.430 ZM27.580,3.390 C24.535,4.302 21.946,7.037 19.967,11.445 C22.099,12.965 26.058,16.308 25.296,20.260 L22.251,19.652 C22.578,17.801 20.638,15.793 18.951,14.524 C17.106,14.790 10.374,16.596 10.374,25.123 L10.374,25.883 L9.613,26.339 C9.613,26.339 3.979,29.379 3.065,34.090 C2.628,36.711 3.592,39.610 6.082,42.520 C9.301,37.093 16.059,34.681 16.465,34.546 L17.531,37.434 C17.531,37.434 9.917,40.170 8.090,45.793 C7.024,48.680 7.785,52.024 10.222,55.671 L12.912,58.519 C13.159,56.482 13.909,54.786 14.638,53.696 L17.074,55.519 C16.922,55.672 13.267,61.143 19.206,67.070 C24.262,72.117 32.465,68.890 35.193,67.561 L35.193,4.474 C33.812,3.756 30.739,2.489 27.580,3.390 ZM69.758,36.218 C69.453,30.443 63.667,25.731 63.667,25.731 L63.058,25.123 L63.211,24.212 C64.276,16.765 55.445,14.941 55.140,14.789 L54.075,14.637 L53.922,13.573 C53.313,8.861 51.486,5.822 48.745,4.302 C44.939,2.326 40.066,3.846 38.239,4.606 L38.239,26.608 C41.494,25.419 47.446,23.710 51.145,24.931 C51.781,23.089 52.795,21.133 54.379,19.196 L56.816,21.172 C51.639,27.403 53.618,33.786 53.770,33.938 L50.725,34.698 C50.634,34.518 49.790,31.702 50.402,27.883 C48.004,26.817 42.235,28.371 38.239,29.976 L38.239,67.526 C40.371,68.590 46.766,71.326 51.791,69.046 C54.939,67.700 57.051,64.434 58.133,59.548 L58.034,59.319 C56.968,56.280 55.598,54.608 53.771,54.152 C50.877,53.544 47.071,56.431 45.853,57.647 L43.721,55.519 C43.873,55.367 49.202,50.048 54.380,51.264 C57.273,51.872 59.405,54.304 60.775,58.255 L61.384,59.623 C63.390,58.155 66.921,54.693 66.720,48.108 C64.595,49.635 62.491,50.152 60.470,49.592 C55.140,48.224 52.856,39.865 52.552,38.954 L55.445,38.194 C55.902,40.321 58.034,45.945 61.079,46.704 C62.601,47.160 64.581,46.249 66.560,43.969 C68.844,41.537 69.910,38.954 69.758,36.218 ZM27.733,39.106 C28.798,29.987 20.576,27.707 20.271,27.555 L21.033,24.667 C24.839,25.579 31.844,30.139 30.778,39.409 L27.733,39.106 ZM27.580,47.160 L29.255,49.744 C29.255,49.744 25.753,52.176 25.449,55.215 C25.296,56.735 26.058,58.407 27.733,59.927 L25.601,62.055 C23.317,59.775 22.251,57.343 22.403,54.912 C22.860,50.352 27.428,47.312 27.580,47.160 Z"/>
</svg>