<svg 
 xmlns="http://www.w3.org/2000/svg"
 xmlns:xlink="http://www.w3.org/1999/xlink"
 width="1in" height="0.986in">
<path fill-rule="evenodd"  fill="rgb(49, 71, 88)"
 d="M56.477,36.151 C55.146,38.417 53.279,40.630 51.112,42.735 C47.717,62.525 35.220,67.650 34.788,67.938 L33.333,68.521 L29.146,57.717 C26.809,58.936 25.250,59.665 25.036,59.773 L24.017,60.210 L22.915,59.210 C21.873,62.510 17.990,68.088 3.639,69.833 L1.601,70.125 L2.038,68.084 C4.935,55.118 9.051,50.629 11.747,49.075 L11.645,48.982 C10.906,48.072 11.192,46.202 12.494,43.390 L-0.000,40.963 L1.455,39.068 C13.024,24.027 23.239,22.746 26.471,22.797 C32.374,15.324 39.795,9.520 48.471,5.531 C58.951,0.719 68.995,0.282 69.432,0.136 L70.887,0.136 L71.033,1.594 C71.033,1.885 71.470,10.634 56.477,36.151 ZM34.934,64.584 C37.802,62.887 44.403,57.915 47.425,46.005 C42.236,50.242 36.243,53.855 31.760,56.317 L34.934,64.584 ZM5.386,66.772 C20.669,64.293 20.378,57.148 20.378,57.002 L20.472,56.993 L14.125,51.233 C12.983,51.575 8.645,53.712 5.386,66.772 ZM5.240,39.068 L13.847,40.766 C15.942,37.036 19.301,32.137 23.924,26.079 C20.091,26.856 13.145,29.604 5.240,39.068 ZM28.529,25.215 C15.866,41.109 14.410,46.212 14.265,47.378 L24.599,56.710 C28.821,54.669 47.889,45.045 54.002,34.693 C57.495,28.722 60.123,23.707 62.102,19.536 L49.219,8.573 C41.017,12.499 33.937,18.088 28.529,25.215 ZM52.179,7.266 L63.368,16.788 C66.574,9.610 67.623,5.377 67.976,3.344 C65.113,3.604 58.877,4.566 52.179,7.266 ZM44.832,32.068 C44.687,32.214 44.687,32.214 44.541,32.214 C43.086,32.214 41.630,31.631 40.465,30.610 C39.301,29.590 38.719,28.277 38.573,26.674 C38.428,23.465 41.048,20.841 44.250,20.549 C45.851,20.403 47.452,20.987 48.617,22.008 C49.781,23.028 50.363,24.340 50.509,25.945 C50.655,29.152 48.035,31.777 44.832,32.068 ZM47.743,26.382 C47.743,25.653 47.452,25.070 46.870,24.486 C46.142,23.903 45.414,23.757 44.687,23.757 L44.541,23.757 C42.794,23.903 41.484,25.215 41.630,26.819 C41.630,27.549 41.921,28.132 42.503,28.715 C43.086,29.298 43.959,29.590 44.832,29.444 C46.579,29.298 47.889,27.986 47.743,26.382 ZM32.169,44.608 C32.023,44.754 32.023,44.754 31.877,44.754 C30.422,44.754 28.966,44.171 27.802,43.150 C26.637,42.130 26.055,40.817 25.910,39.213 C25.764,36.005 28.384,33.380 31.586,33.089 C33.187,32.943 34.789,33.527 35.953,34.547 C37.118,35.568 37.700,36.880 37.845,38.484 C37.991,41.692 35.371,44.316 32.169,44.608 ZM35.080,38.921 C35.080,38.193 34.789,37.609 34.206,37.026 C33.478,36.443 32.751,36.297 32.023,36.297 L31.877,36.297 C30.131,36.443 28.820,37.755 28.966,39.359 C28.966,40.088 29.257,40.672 29.840,41.255 C30.422,41.838 31.295,42.130 32.169,41.984 C33.915,41.838 35.225,40.525 35.080,38.921 Z"/>
</svg>