<svg 
 xmlns="http://www.w3.org/2000/svg"
 xmlns:xlink="http://www.w3.org/1999/xlink"
 width="1.083in" height="1.083in">
<path fill-rule="evenodd"  fill="rgb(49, 71, 88)"
 d="M76.855,23.048 C74.793,23.048 73.115,24.726 73.115,26.788 C73.115,27.421 72.603,27.933 71.970,27.933 C71.338,27.933 70.826,27.421 70.826,26.788 C70.826,24.726 69.148,23.048 67.086,23.048 C66.454,23.048 65.941,22.536 65.941,21.904 C65.941,21.272 66.454,20.759 67.086,20.759 C69.148,20.759 70.826,19.081 70.826,17.019 C70.826,16.386 71.338,15.874 71.970,15.874 C72.603,15.874 73.115,16.386 73.115,17.019 C73.115,19.081 74.793,20.759 76.855,20.759 C77.488,20.759 78.000,21.272 78.000,21.904 C78.000,22.536 77.488,23.048 76.855,23.048 ZM71.971,20.550 C71.594,21.069 71.137,21.527 70.617,21.904 C71.136,22.280 71.594,22.738 71.971,23.257 C72.347,22.738 72.805,22.280 73.324,21.904 C72.805,21.527 72.347,21.070 71.971,20.550 ZM68.265,37.501 C68.393,36.991 68.851,36.633 69.376,36.633 L75.481,36.633 C76.114,36.633 76.626,37.146 76.626,37.779 L76.626,42.663 C76.626,43.295 76.113,43.808 75.481,43.808 L69.158,43.808 L73.061,49.272 C73.795,50.300 74.184,51.512 74.184,52.776 L74.184,67.086 C74.184,69.069 73.221,70.830 71.739,71.930 C71.740,71.944 71.741,71.957 71.741,71.970 L71.741,75.634 C71.741,76.938 70.680,77.999 69.375,77.999 L62.049,77.999 C60.744,77.999 59.683,76.939 59.683,75.634 L59.683,73.115 L18.012,73.115 L18.012,75.634 C18.012,76.938 16.950,77.999 15.646,77.999 L8.319,77.999 C7.014,77.999 5.953,76.939 5.953,75.634 L5.953,71.970 C5.953,71.957 5.955,71.944 5.955,71.930 C4.473,70.830 3.511,69.069 3.511,67.086 L3.511,52.776 C3.511,51.512 3.899,50.300 4.634,49.272 L8.537,43.808 L2.213,43.808 C1.581,43.808 1.069,43.295 1.069,42.663 L1.069,37.779 C1.069,37.146 1.581,36.633 2.213,36.633 L8.319,36.633 C8.844,36.633 9.302,36.991 9.430,37.501 L10.234,40.718 L15.858,24.781 C16.708,22.375 18.992,20.759 21.544,20.759 L56.151,20.759 C58.702,20.759 60.987,22.375 61.836,24.781 L67.461,40.718 L68.265,37.501 ZM74.337,41.518 L74.337,38.923 L70.269,38.923 L69.621,41.518 L74.337,41.518 ZM7.425,38.923 L3.358,38.923 L3.358,41.518 L8.074,41.518 L7.425,38.923 ZM61.973,75.634 C61.973,75.676 62.007,75.710 62.049,75.710 L69.376,75.710 C69.418,75.710 69.452,75.676 69.452,75.634 L69.452,73.115 L68.154,73.115 L61.973,73.115 L61.973,75.634 ZM8.243,75.634 C8.243,75.676 8.277,75.710 8.319,75.710 L15.646,75.710 C15.688,75.710 15.722,75.676 15.722,75.634 L15.722,73.115 L9.540,73.115 L8.243,73.115 L8.243,75.634 ZM9.540,70.826 L68.155,70.826 C69.817,70.826 71.229,69.734 71.714,68.230 L5.980,68.230 C6.465,69.734 7.877,70.826 9.540,70.826 ZM29.002,58.462 L29.002,61.056 L48.693,61.056 L48.693,58.462 L29.002,58.462 ZM48.513,56.172 C48.028,54.668 46.616,53.576 44.953,53.576 L32.742,53.576 C31.079,53.576 29.667,54.668 29.182,56.172 L48.513,56.172 ZM29.002,63.346 L29.002,65.941 L48.693,65.941 L48.693,63.346 L29.002,63.346 ZM58.385,41.518 L65.315,41.518 L59.677,25.543 C59.151,24.051 57.733,23.048 56.151,23.048 L21.544,23.048 C19.961,23.048 18.544,24.051 18.017,25.543 L12.379,41.518 L53.501,41.518 C54.133,41.518 54.646,42.031 54.646,42.663 C54.646,43.295 54.133,43.808 53.501,43.808 L11.350,43.808 L6.497,50.603 C6.041,51.241 5.800,51.992 5.800,52.776 L5.800,65.941 L26.712,65.941 L26.712,57.316 C26.712,53.992 29.417,51.287 32.742,51.287 L44.953,51.287 C48.278,51.287 50.982,53.992 50.982,57.316 L50.982,65.941 L71.894,65.941 L71.894,52.776 C71.894,51.992 71.654,51.241 71.198,50.603 L66.344,43.808 L58.385,43.808 C57.753,43.808 57.241,43.295 57.241,42.663 C57.241,42.031 57.753,41.518 58.385,41.518 ZM65.636,51.211 C65.636,51.843 65.124,52.356 64.491,52.356 L57.164,52.356 C56.532,52.356 56.020,51.843 56.020,51.211 C56.020,50.579 56.532,50.066 57.164,50.066 L64.491,50.066 C65.124,50.066 65.636,50.579 65.636,51.211 ZM14.860,38.619 L19.313,26.001 C19.646,25.056 20.543,24.422 21.544,24.422 L56.151,24.422 C57.152,24.422 58.049,25.056 58.382,26.001 L62.835,38.619 C62.959,38.969 62.905,39.358 62.690,39.661 C62.475,39.964 62.127,40.144 61.756,40.144 L15.939,40.144 C15.163,40.144 14.601,39.351 14.860,38.619 ZM60.138,37.854 L56.223,26.762 C56.212,26.733 56.182,26.712 56.151,26.712 L21.544,26.712 C21.513,26.712 21.482,26.733 21.472,26.762 L17.557,37.854 L60.138,37.854 ZM60.828,53.729 C64.894,53.729 68.078,55.842 68.078,58.538 C68.078,61.234 64.894,63.346 60.828,63.346 C56.762,63.346 53.577,61.234 53.577,58.538 C53.577,55.842 56.762,53.729 60.828,53.729 ZM60.828,61.056 C63.667,61.056 65.789,59.727 65.789,58.538 C65.789,57.349 63.667,56.019 60.828,56.019 C57.988,56.019 55.867,57.349 55.867,58.538 C55.867,59.727 57.988,61.056 60.828,61.056 ZM16.867,63.346 C12.801,63.346 9.616,61.234 9.616,58.538 C9.616,55.842 12.801,53.729 16.867,53.729 C20.933,53.729 24.117,55.842 24.117,58.538 C24.117,61.234 20.933,63.346 16.867,63.346 ZM16.867,56.019 C14.028,56.019 11.906,57.349 11.906,58.538 C11.906,59.727 14.028,61.056 16.867,61.056 C19.706,61.056 21.828,59.727 21.828,58.538 C21.828,57.349 19.706,56.019 16.867,56.019 ZM20.530,52.356 L13.204,52.356 C12.571,52.356 12.059,51.843 12.059,51.211 C12.059,50.579 12.571,50.066 13.204,50.066 L20.530,50.066 C21.163,50.066 21.675,50.579 21.675,51.211 C21.675,51.843 21.163,52.356 20.530,52.356 ZM45.106,8.395 C42.370,8.395 40.145,10.620 40.145,13.356 C40.145,13.988 39.632,14.501 39.000,14.501 C38.368,14.501 37.855,13.988 37.855,13.356 C37.855,10.620 35.630,8.395 32.894,8.395 C32.262,8.395 31.749,7.883 31.749,7.250 C31.749,6.618 32.262,6.105 32.894,6.105 C35.630,6.105 37.855,3.880 37.855,1.145 C37.855,0.512 38.368,-0.001 39.000,-0.001 C39.632,-0.001 40.145,0.512 40.145,1.144 C40.145,3.880 42.370,6.105 45.106,6.105 C45.738,6.105 46.251,6.618 46.251,7.250 C46.251,7.883 45.738,8.395 45.106,8.395 ZM39.000,5.051 C38.434,5.932 37.682,6.684 36.801,7.250 C37.682,7.816 38.434,8.568 39.000,9.449 C39.566,8.568 40.318,7.816 41.199,7.250 C40.318,6.684 39.566,5.932 39.000,5.051 ZM10.914,23.048 C8.852,23.048 7.174,24.726 7.174,26.788 C7.174,27.421 6.662,27.933 6.029,27.933 C5.397,27.933 4.885,27.421 4.885,26.788 C4.885,24.726 3.207,23.048 1.145,23.048 C0.513,23.048 -0.000,22.536 -0.000,21.904 C-0.000,21.272 0.513,20.759 1.145,20.759 C3.207,20.759 4.885,19.081 4.885,17.019 C4.885,16.386 5.397,15.874 6.029,15.874 C6.662,15.874 7.174,16.386 7.174,17.019 C7.174,19.081 8.852,20.759 10.914,20.759 C11.546,20.759 12.059,21.272 12.059,21.904 C12.059,22.536 11.546,23.048 10.914,23.048 ZM6.029,20.550 C5.653,21.069 5.195,21.527 4.676,21.904 C5.195,22.280 5.653,22.738 6.029,23.257 C6.406,22.738 6.864,22.280 7.383,21.904 C6.864,21.527 6.406,21.070 6.029,20.550 Z"/>
</svg>