<svg 
 xmlns="http://www.w3.org/2000/svg"
 xmlns:xlink="http://www.w3.org/1999/xlink"
 width="0.25in" height="0.25in">
<path fill-rule="evenodd"  fill="rgb(252, 252, 252)"
 d="M9.766,17.970 C9.718,17.392 9.666,16.813 9.615,16.219 C11.704,15.987 13.413,15.080 14.687,13.427 C15.969,11.768 16.404,9.873 16.091,7.771 C16.695,7.668 17.273,7.564 17.856,7.465 C18.824,13.420 14.138,17.816 9.766,17.970 ZM14.695,4.629 C14.249,4.050 13.719,3.553 13.122,3.114 C13.472,2.612 13.811,2.133 14.153,1.642 C15.697,2.752 16.783,4.168 17.450,5.946 C16.872,6.156 16.319,6.359 15.759,6.561 C15.490,5.853 15.144,5.212 14.695,4.629 ZM1.790,8.398 C1.205,8.350 0.619,8.298 -0.000,8.243 C0.365,5.204 1.779,2.845 4.387,1.292 C7.084,-0.316 9.906,-0.375 12.801,0.846 C12.540,1.410 12.289,1.941 12.042,2.476 C7.180,0.285 2.111,3.807 1.790,8.398 ZM8.359,16.259 C8.311,16.824 8.259,17.406 8.208,18.000 C3.385,17.609 0.188,13.479 0.052,9.810 C0.630,9.762 1.208,9.711 1.765,9.663 C2.402,13.442 4.586,15.629 8.359,16.259 ZM8.152,14.169 L8.152,13.468 C7.548,13.354 6.962,13.118 6.436,12.760 L5.942,13.254 C5.754,13.439 5.456,13.439 5.268,13.254 L4.748,12.734 C4.564,12.546 4.564,12.247 4.748,12.059 L5.235,11.562 C4.877,11.038 4.642,10.452 4.527,9.847 L3.827,9.847 C3.566,9.847 3.352,9.633 3.352,9.371 L3.352,8.634 C3.352,8.372 3.566,8.158 3.827,8.158 L4.531,8.158 C4.645,7.557 4.881,6.974 5.242,6.451 L4.741,5.949 C4.557,5.761 4.557,5.463 4.741,5.275 L5.260,4.751 C5.448,4.567 5.747,4.567 5.935,4.751 L6.439,5.252 C6.962,4.898 7.544,4.662 8.141,4.552 L8.141,3.829 C8.141,3.567 8.355,3.353 8.616,3.353 L9.353,3.353 C9.615,3.353 9.828,3.567 9.828,3.829 L9.828,4.555 C10.425,4.670 11.004,4.906 11.523,5.260 L12.039,4.744 C12.227,4.559 12.525,4.559 12.713,4.744 L13.240,5.267 C13.424,5.455 13.424,5.754 13.240,5.942 L12.724,6.458 C13.078,6.978 13.313,7.553 13.428,8.151 L14.153,8.151 C14.415,8.151 14.628,8.365 14.628,8.626 L14.628,9.364 C14.628,9.626 14.415,9.840 14.153,9.840 L13.431,9.840 C13.321,10.437 13.089,11.020 12.735,11.543 L13.243,12.052 C13.428,12.240 13.428,12.539 13.243,12.727 L12.724,13.247 C12.536,13.431 12.238,13.431 12.050,13.247 L11.549,12.745 C11.026,13.107 10.444,13.346 9.843,13.461 L9.843,14.165 C9.843,14.427 9.630,14.641 9.364,14.644 L8.627,14.644 C8.366,14.644 8.152,14.431 8.152,14.169 ZM10.727,10.736 C11.685,9.777 11.681,8.221 10.724,7.262 C9.766,6.303 8.211,6.307 7.253,7.266 C6.296,8.224 6.299,9.781 7.257,10.739 C8.219,11.698 9.773,11.694 10.727,10.736 Z"/>
</svg>