<svg 
 xmlns="http://www.w3.org/2000/svg"
 xmlns:xlink="http://www.w3.org/1999/xlink"
 width="0.5in" height="0.639in">
<path fill-rule="evenodd"  fill="rgb(147, 162, 216)"
 d="M33.772,45.999 L2.156,45.999 C0.967,45.999 -0.000,45.032 -0.000,43.843 L-0.000,2.156 C-0.000,0.967 0.967,-0.000 2.156,-0.000 L33.772,-0.000 C34.961,-0.000 35.928,0.967 35.928,2.156 L35.928,43.843 C35.928,45.032 34.961,45.999 33.772,45.999 ZM34.491,2.156 C34.491,1.759 34.169,1.437 33.772,1.437 L2.156,1.437 C1.759,1.437 1.437,1.759 1.437,2.156 L1.437,20.125 L34.491,20.125 L34.491,2.156 ZM34.491,21.562 L1.437,21.562 L1.437,43.843 C1.437,44.240 1.759,44.562 2.156,44.562 L33.772,44.562 C34.169,44.562 34.491,44.240 34.491,43.843 L34.491,21.562 ZM30.898,40.968 L28.024,40.968 C27.627,40.968 27.305,40.647 27.305,40.250 C27.305,39.853 27.627,39.531 28.024,39.531 L30.898,39.531 C31.295,39.531 31.617,39.853 31.617,40.250 C31.617,40.647 31.295,40.968 30.898,40.968 ZM30.898,38.093 L29.461,38.093 C29.064,38.093 28.742,37.771 28.742,37.375 C28.742,36.978 29.064,36.656 29.461,36.656 L30.898,36.656 C31.295,36.656 31.617,36.978 31.617,37.375 C31.617,37.771 31.295,38.093 30.898,38.093 ZM30.898,28.031 L10.060,28.031 C9.663,28.031 9.341,27.709 9.341,27.312 C9.341,26.915 9.663,26.593 10.060,26.593 L30.898,26.593 C31.295,26.593 31.617,26.915 31.617,27.312 C31.617,27.709 31.295,28.031 30.898,28.031 ZM30.898,25.156 L10.060,25.156 C9.663,25.156 9.341,24.834 9.341,24.437 C9.341,24.040 9.663,23.718 10.060,23.718 L30.898,23.718 C31.295,23.718 31.617,24.040 31.617,24.437 C31.617,24.834 31.295,25.156 30.898,25.156 ZM6.467,28.031 L5.030,28.031 C4.633,28.031 4.311,27.709 4.311,27.312 C4.311,26.915 4.633,26.593 5.030,26.593 L6.467,26.593 C6.864,26.593 7.186,26.915 7.186,27.312 C7.186,27.709 6.864,28.031 6.467,28.031 ZM6.467,25.156 L5.030,25.156 C4.633,25.156 4.311,24.834 4.311,24.437 C4.311,24.040 4.633,23.718 5.030,23.718 L6.467,23.718 C6.864,23.718 7.186,24.040 7.186,24.437 C7.186,24.834 6.864,25.156 6.467,25.156 ZM5.030,30.906 L22.275,30.906 C22.672,30.906 22.994,31.228 22.994,31.625 C22.994,32.021 22.672,32.343 22.275,32.343 L5.030,32.343 C4.633,32.343 4.311,32.021 4.311,31.625 C4.311,31.228 4.633,30.906 5.030,30.906 ZM5.030,33.781 L16.527,33.781 C16.924,33.781 17.245,34.103 17.245,34.500 C17.245,34.896 16.924,35.218 16.527,35.218 L5.030,35.218 C4.633,35.218 4.311,34.896 4.311,34.500 C4.311,34.103 4.633,33.781 5.030,33.781 ZM5.030,36.656 L19.401,36.656 C19.798,36.656 20.120,36.978 20.120,37.375 C20.120,37.771 19.798,38.093 19.401,38.093 L5.030,38.093 C4.633,38.093 4.311,37.771 4.311,37.375 C4.311,36.978 4.633,36.656 5.030,36.656 ZM5.030,39.531 L12.934,39.531 C13.331,39.531 13.653,39.853 13.653,40.250 C13.653,40.647 13.331,40.968 12.934,40.968 L5.030,40.968 C4.633,40.968 4.311,40.647 4.311,40.250 C4.311,39.853 4.633,39.531 5.030,39.531 ZM7.179,12.242 L7.789,12.242 C8.038,12.242 8.270,12.371 8.401,12.584 C8.820,13.265 9.425,13.656 10.060,13.656 C10.695,13.656 11.300,13.265 11.719,12.584 C11.849,12.371 12.081,12.242 12.331,12.242 L12.940,12.242 C13.724,12.242 14.466,12.589 15.029,13.220 C15.517,13.768 15.808,14.467 15.808,15.093 L15.808,16.653 C15.808,17.378 15.218,17.968 14.493,17.968 L5.629,17.968 C4.903,17.968 4.311,17.377 4.311,16.650 L4.311,15.093 C4.311,13.775 5.564,12.242 7.179,12.242 ZM5.748,16.531 L14.371,16.531 L14.371,15.093 C14.371,14.608 13.814,13.679 12.940,13.679 L12.710,13.679 C12.030,14.583 11.083,15.093 10.060,15.093 C9.037,15.093 8.090,14.583 7.410,13.679 L7.179,13.679 C6.306,13.679 5.748,14.608 5.748,15.093 L5.748,15.093 L5.748,16.531 ZM17.964,5.031 L25.868,5.031 C26.265,5.031 26.587,5.353 26.587,5.750 C26.587,6.146 26.265,6.468 25.868,6.468 L17.964,6.468 C17.567,6.468 17.245,6.146 17.245,5.750 C17.245,5.353 17.567,5.031 17.964,5.031 ZM17.964,7.906 L30.180,7.906 C30.576,7.906 30.898,8.228 30.898,8.625 C30.898,9.021 30.576,9.343 30.180,9.343 L17.964,9.343 C17.567,9.343 17.245,9.021 17.245,8.625 C17.245,8.228 17.567,7.906 17.964,7.906 ZM17.964,10.781 L20.120,10.781 C20.516,10.781 20.838,11.103 20.838,11.500 C20.838,11.897 20.516,12.218 20.120,12.218 L17.964,12.218 C17.567,12.218 17.245,11.897 17.245,11.500 C17.245,11.103 17.567,10.781 17.964,10.781 ZM22.994,10.781 L25.150,10.781 C25.546,10.781 25.868,11.103 25.868,11.500 C25.868,11.897 25.546,12.218 25.150,12.218 L22.994,12.218 C22.597,12.218 22.275,11.897 22.275,11.500 C22.275,11.103 22.597,10.781 22.994,10.781 ZM28.024,10.781 L30.180,10.781 C30.576,10.781 30.898,11.103 30.898,11.500 C30.898,11.897 30.576,12.218 30.180,12.218 L28.024,12.218 C27.627,12.218 27.305,11.897 27.305,11.500 C27.305,11.103 27.627,10.781 28.024,10.781 ZM10.060,12.218 C8.079,12.218 6.467,10.606 6.467,8.625 L6.467,7.906 C6.467,5.924 8.079,4.312 10.060,4.312 C12.041,4.312 13.653,5.924 13.653,7.906 L13.653,8.625 C13.653,10.606 12.041,12.218 10.060,12.218 ZM12.215,7.906 C12.215,6.717 11.249,5.750 10.060,5.750 C8.871,5.750 7.904,6.717 7.904,7.906 L7.904,8.625 C7.904,9.813 8.871,10.781 10.060,10.781 C11.249,10.781 12.215,9.813 12.215,8.625 L12.215,7.906 Z"/>
</svg>