<svg 
 xmlns="http://www.w3.org/2000/svg"
 xmlns:xlink="http://www.w3.org/1999/xlink"
 width="0.222in" height="0.222in">
<path fill-rule="evenodd"  opacity="0.851" fill="rgb(240, 239, 240)"
 d="M14.674,5.998 L13.272,7.094 C13.289,7.263 13.304,7.458 13.304,7.665 C13.304,7.677 13.301,7.731 13.299,7.743 C13.289,7.835 13.240,7.938 13.166,7.993 C13.091,8.049 12.995,8.089 12.905,8.073 C12.181,7.941 11.541,7.987 10.893,8.181 C10.789,8.210 10.677,8.190 10.591,8.123 C10.507,8.056 10.459,7.952 10.465,7.843 C10.467,7.807 10.471,7.772 10.476,7.737 C10.482,6.023 9.133,4.675 7.475,4.675 C5.816,4.675 4.467,6.024 4.467,7.682 C4.467,9.340 5.816,10.689 7.475,10.689 C7.565,10.677 7.601,10.673 7.637,10.671 C7.745,10.667 7.849,10.712 7.916,10.797 C7.983,10.883 8.005,10.995 7.974,11.099 C7.854,11.503 7.793,11.919 7.793,12.333 C7.793,13.223 8.063,14.079 8.574,14.809 C8.644,14.911 8.653,15.044 8.596,15.154 C8.538,15.264 8.425,15.333 8.300,15.333 L6.002,15.333 C5.651,15.333 5.355,15.075 5.311,14.733 L5.061,12.980 C4.720,12.826 4.390,12.634 4.076,12.408 L2.423,13.072 C2.062,13.205 1.717,13.053 1.558,12.761 L0.095,10.231 C-0.076,9.919 -0.003,9.545 0.265,9.333 L1.666,8.238 C1.645,8.027 1.634,7.842 1.634,7.667 C1.634,7.491 1.644,7.307 1.667,7.095 L0.266,6.001 C-0.008,5.785 -0.080,5.397 0.096,5.099 L1.561,2.565 C1.720,2.275 2.102,2.137 2.419,2.259 L4.076,2.925 C4.405,2.691 4.729,2.503 5.060,2.353 L5.312,0.594 C5.355,0.257 5.651,-0.000 6.002,-0.000 L8.936,-0.000 C9.287,-0.000 9.584,0.258 9.627,0.600 L9.878,2.353 C10.219,2.507 10.550,2.699 10.864,2.925 L12.517,2.261 C12.876,2.127 13.222,2.280 13.381,2.572 L14.844,5.101 C15.014,5.414 14.941,5.789 14.674,5.998 ZM12.127,8.667 C14.149,8.667 15.795,10.311 15.795,12.333 C15.795,14.355 14.150,16.000 12.127,16.000 C10.105,16.000 8.460,14.355 8.460,12.333 C8.460,10.311 10.105,8.667 12.127,8.667 ZM11.894,14.566 C11.954,14.633 12.041,14.666 12.128,14.666 C12.215,14.666 12.301,14.633 12.361,14.566 C12.421,14.507 12.461,14.420 12.461,14.333 C12.461,14.246 12.421,14.159 12.361,14.099 C12.235,13.973 12.014,13.973 11.894,14.099 C11.828,14.159 11.794,14.246 11.794,14.333 C11.794,14.419 11.828,14.506 11.894,14.566 ZM10.766,11.602 C10.949,11.623 11.111,11.481 11.126,11.298 C11.155,10.950 11.604,10.667 12.127,10.667 C12.669,10.667 13.127,10.973 13.127,11.334 C13.127,11.659 12.811,11.869 12.133,11.994 L12.060,12.008 C11.906,12.040 11.794,12.176 11.794,12.334 L11.794,13.001 C11.794,13.184 11.943,13.334 12.127,13.334 C12.311,13.334 12.461,13.185 12.461,13.001 L12.461,12.605 C13.346,12.397 13.794,11.970 13.794,11.333 C13.794,10.598 13.045,10.000 12.126,10.000 C11.236,10.000 10.520,10.534 10.462,11.242 C10.447,11.425 10.583,11.587 10.766,11.602 Z"/>
</svg>