<svg 
 xmlns="http://www.w3.org/2000/svg"
 xmlns:xlink="http://www.w3.org/1999/xlink"
 width="0.264in" height="0.181in">
<path fill-rule="evenodd"  fill="rgb(60, 72, 101)"
 d="M16.973,4.750 C16.961,4.736 16.951,4.722 16.936,4.708 L16.302,4.098 C16.828,3.979 17.394,3.539 17.394,3.088 C17.394,2.563 16.664,2.376 16.040,2.376 C15.388,2.376 15.312,2.822 15.304,3.137 L13.668,1.563 C13.336,1.235 12.705,0.977 12.234,0.977 L9.048,0.977 L9.047,0.977 L5.860,0.977 C5.389,0.977 4.759,1.235 4.426,1.563 L2.791,3.137 C2.782,2.822 2.707,2.376 2.055,2.376 C1.431,2.376 0.700,2.563 0.700,3.088 C0.700,3.539 1.267,3.979 1.792,4.098 L1.158,4.708 C1.144,4.722 1.134,4.736 1.121,4.750 C0.443,5.329 -0.000,6.401 -0.000,7.180 L-0.000,9.494 C-0.000,10.056 0.222,10.566 0.580,10.946 L0.580,11.843 C0.580,12.368 1.021,12.795 1.562,12.795 L2.749,12.795 C3.290,12.795 3.730,12.368 3.730,11.843 L3.730,11.613 L9.047,11.613 L9.048,11.613 L14.364,11.613 L14.364,11.843 C14.364,12.368 14.804,12.795 15.346,12.795 L16.533,12.795 C17.074,12.795 17.514,12.368 17.514,11.843 L17.514,10.946 C17.873,10.566 18.095,10.056 18.095,9.494 L18.095,7.180 C18.095,6.401 17.652,5.329 16.973,4.750 ZM5.027,2.263 C5.257,2.071 5.660,1.926 5.860,1.926 L9.047,1.926 L9.048,1.926 L12.235,1.926 C12.435,1.926 12.837,2.071 13.067,2.263 L15.213,4.337 L9.048,4.337 L9.047,4.337 L2.882,4.337 L5.027,2.263 ZM0.736,6.830 C0.736,6.260 1.183,5.798 1.734,5.798 C2.286,5.798 4.088,6.853 4.088,7.423 C4.088,7.993 2.286,7.861 1.734,7.861 C1.183,7.861 0.736,7.400 0.736,6.830 ZM3.731,10.598 L3.540,10.598 L3.350,10.598 L2.222,10.600 C1.909,10.503 1.688,10.389 1.532,10.267 C1.453,10.206 1.392,10.142 1.345,10.078 C1.297,10.014 1.262,9.951 1.240,9.887 C1.100,9.491 1.390,9.128 1.390,9.128 L3.315,9.128 L4.599,10.598 L3.731,10.598 L3.731,10.598 ZM11.816,10.599 L9.048,10.599 L9.047,10.599 L6.279,10.599 C5.702,10.599 5.233,10.132 5.233,9.556 L9.047,9.556 L9.048,9.556 L12.862,9.556 C12.862,10.132 12.393,10.599 11.816,10.599 ZM12.059,8.844 L9.048,8.844 L9.047,8.844 L6.036,8.844 C5.408,8.844 4.898,8.072 4.898,7.119 L9.047,7.119 L9.048,7.119 L13.197,7.119 C13.197,8.072 12.687,8.844 12.059,8.844 ZM16.855,9.887 C16.832,9.951 16.797,10.014 16.750,10.078 C16.703,10.142 16.642,10.206 16.563,10.268 C16.407,10.390 16.186,10.504 15.873,10.601 L14.745,10.599 L14.554,10.599 L14.364,10.599 L13.496,10.599 L14.780,9.128 L16.705,9.128 C16.705,9.128 16.995,9.491 16.855,9.887 ZM16.360,7.861 C15.809,7.861 14.007,7.992 14.007,7.423 C14.007,6.854 15.809,5.798 16.360,5.798 C16.912,5.798 17.359,6.260 17.359,6.830 C17.359,7.400 16.912,7.861 16.360,7.861 Z"/>
</svg>