<svg 
 xmlns="http://www.w3.org/2000/svg"
 xmlns:xlink="http://www.w3.org/1999/xlink"
 width="0.350in" height="0.158in">
<path fill-rule="evenodd"  fill="rgb(254, 254, 128)"
 d="M26.321,14.766 L4.003,14.766 C2.006,14.766 0.369,13.113 0.369,11.089 L0.369,4.609 C0.369,2.589 2.006,0.932 4.003,0.932 L26.321,0.932 C28.319,0.932 29.955,2.589 29.955,4.609 L29.955,11.089 C29.955,13.113 28.319,14.766 26.321,14.766 ZM9.291,6.020 L8.125,6.579 C8.003,6.638 7.823,6.729 7.588,6.861 C7.522,6.901 7.381,6.972 7.167,7.081 C7.274,6.685 7.346,6.332 7.378,6.020 L7.528,4.739 L5.677,4.739 L5.842,6.020 C5.873,6.252 5.939,6.605 6.043,7.081 C5.557,6.789 5.252,6.612 5.129,6.556 L3.963,6.020 L3.360,7.811 L4.660,8.024 C5.079,8.104 5.418,8.152 5.676,8.176 C5.423,8.362 5.167,8.589 4.903,8.854 L3.964,9.813 L5.516,10.959 L6.144,9.813 C6.217,9.694 6.363,9.376 6.583,8.854 C6.783,9.329 6.926,9.650 7.018,9.813 L7.637,10.959 L9.147,9.813 L8.275,8.854 C8.090,8.650 7.844,8.426 7.528,8.176 C7.993,8.159 8.343,8.129 8.579,8.083 L9.869,7.811 L9.291,6.020 ZM17.839,6.020 L16.672,6.579 C16.550,6.638 16.369,6.729 16.136,6.861 C16.068,6.901 15.927,6.972 15.715,7.081 C15.820,6.685 15.891,6.332 15.925,6.020 L16.076,4.740 L14.223,4.740 L14.390,6.020 C14.418,6.252 14.485,6.605 14.591,7.081 C14.106,6.789 13.799,6.612 13.678,6.556 L12.511,6.020 L11.908,7.811 L13.208,8.024 C13.627,8.104 13.967,8.152 14.224,8.176 C13.970,8.362 13.715,8.589 13.451,8.854 L12.512,9.813 L14.063,10.959 L14.693,9.813 C14.765,9.694 14.910,9.376 15.131,8.854 C15.331,9.329 15.474,9.650 15.565,9.813 L16.184,10.959 L17.695,9.813 L16.822,8.854 C16.637,8.650 16.390,8.426 16.076,8.176 C16.541,8.159 16.890,8.129 17.126,8.083 L18.417,7.811 L17.839,6.020 ZM26.398,8.060 C26.398,7.666 26.079,7.344 25.690,7.344 L25.594,7.344 L25.594,6.414 C25.594,5.361 24.748,4.506 23.708,4.506 C22.669,4.506 21.823,5.362 21.823,6.414 L21.823,7.344 L21.727,7.344 C21.338,7.344 21.019,7.666 21.019,8.060 L21.019,10.475 C21.019,10.870 21.338,11.192 21.727,11.192 L25.690,11.192 C26.079,11.192 26.398,10.870 26.398,10.475 L26.398,8.060 ZM22.768,6.415 C22.768,5.888 23.189,5.461 23.708,5.461 C24.227,5.461 24.651,5.888 24.651,6.415 L24.651,7.344 L22.768,7.344 L22.768,6.415 Z"/>
</svg>