<svg xmlns="http://www.w3.org/2000/svg" xmlns:xlink="http://www.w3.org/1999/xlink" width="0.415in" height="0.400in"><path fill-rule="evenodd"  fill="rgb(157, 157, 157)" d="M35.333,25.379 L35.333,17.333 L20.667,17.333 L20.667,10.620 C23.293,10.290 25.333,8.048 25.333,5.333 C25.333,2.392 22.941,-0.001 20.000,-0.001 C17.059,-0.001 14.667,2.392 14.667,5.333 C14.667,8.048 16.707,10.290 19.333,10.620 L19.333,17.333 L4.667,17.333 L4.667,25.379 C2.040,25.709 -0.000,27.951 -0.000,30.666 C-0.000,33.607 2.393,36.000 5.333,36.000 C8.274,36.000 10.667,33.607 10.667,30.666 C10.667,27.951 8.627,25.709 6.000,25.379 L6.000,18.666 L19.333,18.666 L19.333,25.379 C16.707,25.709 14.667,27.951 14.667,30.666 C14.667,33.607 17.059,36.000 20.000,36.000 C22.941,36.000 25.333,33.607 25.333,30.666 C25.333,27.951 23.293,25.709 20.667,25.379 L20.667,18.666 L34.000,18.666 L34.000,25.379 C31.373,25.709 29.333,27.951 29.333,30.666 C29.333,33.607 31.726,36.000 34.667,36.000 C37.607,36.000 40.000,33.607 40.000,30.666 C40.000,27.951 37.960,25.709 35.333,25.379 ZM16.000,5.333 C16.000,3.127 17.794,1.333 20.000,1.333 C22.206,1.333 24.000,3.127 24.000,5.333 C24.000,7.539 22.206,9.333 20.000,9.333 C17.794,9.333 16.000,7.539 16.000,5.333 ZM9.333,30.666 C9.333,32.872 7.539,34.666 5.333,34.666 C3.127,34.666 1.333,32.872 1.333,30.666 C1.333,28.460 3.127,26.666 5.333,26.666 C7.539,26.666 9.333,28.460 9.333,30.666 ZM24.000,30.666 C24.000,32.872 22.206,34.666 20.000,34.666 C17.794,34.666 16.000,32.872 16.000,30.666 C16.000,28.460 17.794,26.666 20.000,26.666 C22.206,26.666 24.000,28.460 24.000,30.666 ZM34.667,34.666 C32.461,34.666 30.667,32.872 30.667,30.666 C30.667,28.460 32.461,26.666 34.667,26.666 C36.873,26.666 38.667,28.460 38.667,30.666 C38.667,32.872 36.873,34.666 34.667,34.666 Z"/></svg>