<svg 
 xmlns="http://www.w3.org/2000/svg"
 xmlns:xlink="http://www.w3.org/1999/xlink"
 width="0.333in" height="0.222in">
<path fill-rule="evenodd"  fill="#1b2832"
 d="M23.373,11.814 C23.366,11.959 23.245,12.073 23.101,12.073 C23.097,12.073 23.092,12.072 23.088,12.072 L19.826,11.922 C19.754,11.918 19.686,11.887 19.637,11.834 C19.589,11.780 19.563,11.709 19.566,11.637 C19.572,11.515 19.575,11.402 19.575,11.290 C19.575,10.534 19.462,9.788 19.238,9.075 C19.193,8.932 19.273,8.779 19.416,8.734 L22.533,7.759 C22.676,7.714 22.829,7.794 22.874,7.937 C23.213,9.019 23.385,10.147 23.385,11.290 C23.385,11.461 23.381,11.632 23.373,11.814 ZM21.709,5.922 L18.905,7.596 C18.862,7.622 18.814,7.635 18.766,7.635 C18.673,7.635 18.583,7.587 18.532,7.502 C18.086,6.755 17.516,6.098 16.839,5.548 C16.783,5.502 16.747,5.437 16.740,5.365 C16.733,5.293 16.754,5.221 16.800,5.165 L18.860,2.633 C18.906,2.577 18.972,2.542 19.043,2.535 C19.116,2.527 19.187,2.549 19.243,2.594 C20.266,3.426 21.127,4.419 21.803,5.549 C21.840,5.611 21.851,5.685 21.833,5.754 C21.815,5.824 21.771,5.884 21.709,5.922 ZM15.745,4.495 C15.713,4.560 15.658,4.610 15.589,4.634 C15.560,4.644 15.530,4.649 15.500,4.649 C15.459,4.649 15.419,4.640 15.381,4.622 C14.600,4.245 13.764,4.012 12.897,3.928 C12.747,3.913 12.638,3.781 12.652,3.631 L12.967,0.383 C12.974,0.311 13.009,0.245 13.065,0.199 C13.121,0.153 13.192,0.131 13.264,0.138 C14.579,0.266 15.848,0.620 17.036,1.192 C17.171,1.257 17.228,1.420 17.163,1.555 L15.745,4.495 ZM13.968,11.460 C14.450,11.942 14.715,12.582 14.715,13.264 C14.715,13.945 14.450,14.586 13.968,15.068 C13.485,15.549 12.844,15.814 12.163,15.814 C11.481,15.814 10.840,15.549 10.358,15.068 C9.875,14.586 9.610,13.945 9.610,13.264 C9.610,13.175 9.615,13.087 9.623,13.000 L7.212,8.483 C7.153,8.373 7.175,8.236 7.265,8.150 C7.356,8.063 7.493,8.047 7.601,8.111 L12.022,10.717 C12.069,10.714 12.116,10.713 12.163,10.713 C12.844,10.713 13.485,10.979 13.968,11.460 ZM11.166,3.961 C10.304,4.078 9.478,4.343 8.710,4.750 C8.669,4.772 8.625,4.782 8.582,4.782 C8.485,4.782 8.391,4.730 8.342,4.638 L6.811,1.754 C6.741,1.622 6.791,1.457 6.924,1.387 C8.090,0.769 9.345,0.365 10.653,0.188 C10.802,0.168 10.940,0.272 10.960,0.421 L11.399,3.655 C11.419,3.804 11.314,3.941 11.166,3.961 ZM7.379,5.545 C7.375,5.617 7.342,5.684 7.288,5.732 C6.632,6.307 6.088,6.986 5.671,7.749 C5.622,7.839 5.528,7.890 5.432,7.890 C5.388,7.890 5.343,7.880 5.302,7.857 L2.436,6.292 C2.373,6.257 2.326,6.199 2.305,6.129 C2.285,6.061 2.293,5.986 2.328,5.922 C2.959,4.769 3.781,3.743 4.772,2.873 C4.826,2.825 4.897,2.800 4.969,2.805 C5.041,2.810 5.109,2.843 5.156,2.897 L7.312,5.348 C7.360,5.402 7.384,5.473 7.379,5.545 ZM5.027,9.347 C4.856,9.977 4.770,10.631 4.770,11.290 C4.770,11.402 4.772,11.515 4.778,11.638 C4.781,11.710 4.756,11.780 4.707,11.834 C4.659,11.887 4.591,11.919 4.519,11.922 L1.256,12.072 C1.252,12.073 1.248,12.073 1.244,12.073 C1.099,12.073 0.979,11.959 0.972,11.814 C0.963,11.632 0.959,11.461 0.959,11.290 C0.959,10.294 1.091,9.305 1.350,8.350 C1.369,8.281 1.414,8.221 1.477,8.186 C1.540,8.150 1.614,8.140 1.684,8.159 L4.836,9.014 C4.981,9.053 5.066,9.202 5.027,9.347 Z"/>
</svg>