<svg xmlns="http://www.w3.org/2000/svg" xmlns:xlink="http://www.w3.org/1999/xlink" width="0.540in" height="0.540in"> <path fill-rule="evenodd"  fill="rgb(162, 162, 162)" d="M49.109,32.535 C50.519,41.631 43.414,45.023 43.309,45.023 L42.341,45.560 L42.338,45.552 C41.250,48.250 39.603,50.161 37.396,51.140 C36.213,51.783 34.923,51.998 33.526,51.998 C30.149,51.998 27.052,50.607 25.862,50.009 C24.575,50.657 21.677,51.891 18.583,51.891 C16.326,51.891 13.961,51.247 12.026,49.315 C10.754,48.047 9.968,46.760 9.521,45.525 L5.253,40.946 C3.189,37.855 2.612,34.962 3.425,32.362 L3.210,32.684 C0.845,30.001 -0.445,26.783 0.093,24.207 C0.738,20.666 3.963,18.306 5.253,17.554 C5.495,11.362 9.541,9.570 11.553,9.061 L11.811,8.649 C13.531,4.357 15.896,1.674 18.906,0.816 C22.078,-0.101 24.860,1.182 26.046,1.852 C27.597,1.231 31.927,-0.177 35.461,1.674 C37.934,2.962 39.439,5.430 40.084,9.078 C42.986,9.936 47.286,12.405 46.856,17.340 C48.039,18.413 51.264,21.739 51.479,25.925 C51.678,28.313 50.859,30.516 49.109,32.535 ZM19.443,2.854 C17.293,3.498 15.466,5.430 14.068,8.541 C15.573,9.614 18.368,11.975 17.831,14.765 L15.681,14.336 C15.912,13.029 14.542,11.611 13.351,10.715 C12.049,10.903 7.295,12.178 7.295,18.198 L7.295,18.735 L6.758,19.057 C6.758,19.057 2.780,21.203 2.135,24.529 C1.827,26.379 2.507,28.426 4.265,30.481 C6.538,26.649 11.309,24.946 11.596,24.851 L12.348,26.890 C12.348,26.890 6.973,28.821 5.683,32.791 C4.930,34.830 5.468,37.191 7.188,39.766 L9.087,41.776 C9.261,40.338 9.791,39.141 10.305,38.371 L12.026,39.658 C11.918,39.766 9.338,43.629 13.531,47.813 C17.100,51.376 22.892,49.098 24.818,48.160 L24.818,3.620 C23.843,3.113 21.673,2.218 19.443,2.854 ZM49.221,26.031 C49.006,21.954 44.921,18.628 44.921,18.628 L44.491,18.198 L44.599,17.554 C45.351,12.297 39.116,11.010 38.901,10.902 L38.148,10.795 L38.041,10.043 C37.611,6.717 36.321,4.571 34.386,3.498 C31.698,2.103 28.258,3.176 26.968,3.713 L26.968,19.246 C29.267,18.406 33.469,17.201 36.080,18.062 C36.529,16.762 37.245,15.381 38.364,14.014 L40.084,15.409 C36.429,19.808 37.826,24.314 37.934,24.422 L35.784,24.958 C35.720,24.831 35.124,22.843 35.555,20.147 C33.862,19.394 29.790,20.491 26.968,21.624 L26.968,48.135 C28.473,48.886 32.988,50.818 36.536,49.208 C38.758,48.258 40.250,45.952 41.014,42.502 L40.944,42.341 C40.191,40.195 39.224,39.015 37.934,38.693 C35.891,38.264 33.204,40.303 32.344,41.161 L30.839,39.658 C30.946,39.551 34.709,35.795 38.364,36.654 C40.406,37.083 41.911,38.800 42.879,41.590 L43.309,42.555 C44.725,41.519 47.218,39.075 47.076,34.425 C45.576,35.504 44.090,35.869 42.663,35.474 C38.901,34.508 37.288,28.606 37.073,27.963 L39.116,27.426 C39.438,28.929 40.943,32.898 43.093,33.435 C44.168,33.757 45.566,33.113 46.964,31.504 C48.576,29.787 49.329,27.963 49.221,26.031 ZM19.551,28.070 C20.303,21.632 14.498,20.023 14.283,19.915 L14.821,17.877 C17.508,18.520 22.453,21.739 21.701,28.285 L19.551,28.070 ZM19.443,33.757 L20.626,35.581 C20.626,35.581 18.153,37.298 17.938,39.444 C17.831,40.517 18.368,41.697 19.551,42.770 L18.046,44.272 C16.433,42.663 15.681,40.946 15.788,39.229 C16.111,36.010 19.336,33.865 19.443,33.757 Z"/></svg>