<svg 
 xmlns="http://www.w3.org/2000/svg"
 xmlns:xlink="http://www.w3.org/1999/xlink"
 width="0.375in" height="0.278in">
<path fill-rule="evenodd"  opacity="0.439" fill="rgb(15, 17, 37)"
 d="M21.191,19.363 L16.897,19.363 L15.740,19.363 L15.491,19.363 L15.491,13.604 L17.375,13.604 C17.852,13.604 18.135,13.061 17.852,12.670 L14.188,7.601 C13.954,7.275 13.471,7.275 13.238,7.601 L9.573,12.670 C9.291,13.061 9.568,13.604 10.051,13.604 L11.935,13.604 L11.935,19.363 L11.685,19.363 L10.529,19.363 L5.550,19.363 C2.700,19.206 0.431,16.541 0.431,13.653 C0.431,11.661 1.511,9.924 3.113,8.985 C2.966,8.588 2.890,8.165 2.890,7.720 C2.890,5.685 4.535,4.040 6.571,4.040 C7.011,4.040 7.434,4.116 7.830,4.262 C9.009,1.766 11.549,0.034 14.503,0.034 C18.325,0.040 21.473,2.965 21.832,6.694 C24.769,7.199 27.000,9.918 27.000,12.996 C27.000,16.285 24.438,19.135 21.191,19.363 Z"/>
</svg>