<svg 
 xmlns="http://www.w3.org/2000/svg"
 xmlns:xlink="http://www.w3.org/1999/xlink"
 width="0.208in" height="0.236in">
<path fill-rule="evenodd"  fill="rgb(236, 237, 240)"
 d="M7.145,16.542 C3.275,16.542 0.126,13.396 0.126,9.527 C0.126,7.268 1.225,5.134 3.066,3.818 C3.564,3.462 4.256,3.577 4.612,4.075 C4.968,4.573 4.853,5.265 4.355,5.620 C3.095,6.521 2.343,7.982 2.343,9.527 C2.343,12.174 4.497,14.327 7.145,14.327 C9.793,14.327 11.948,12.174 11.948,9.527 C11.948,7.982 11.195,6.521 9.935,5.620 C9.437,5.265 9.322,4.573 9.678,4.075 C10.034,3.577 10.726,3.462 11.224,3.818 C13.065,5.134 14.164,7.268 14.164,9.527 C14.164,13.396 11.015,16.542 7.145,16.542 ZM7.145,9.213 C6.533,9.213 6.037,8.717 6.037,8.105 L6.037,1.829 C6.037,1.217 6.533,0.721 7.145,0.721 C7.757,0.721 8.253,1.217 8.253,1.829 L8.253,8.105 C8.253,8.717 7.757,9.213 7.145,9.213 Z"/>
</svg>