<svg 
 xmlns="http://www.w3.org/2000/svg"
 xmlns:xlink="http://www.w3.org/1999/xlink"
 width="0.264in" height="0.181in">
<path fill-rule="evenodd"  fill="rgb(236, 237, 240)"
 d="M18.990,0.263 C18.990,0.262 18.989,0.261 18.989,0.261 C18.982,0.221 18.968,0.185 18.947,0.152 C18.947,0.152 18.947,0.151 18.947,0.151 C18.947,0.150 18.946,0.150 18.946,0.149 C18.926,0.118 18.902,0.092 18.872,0.069 C18.866,0.064 18.860,0.061 18.854,0.056 C18.830,0.041 18.806,0.028 18.778,0.019 C18.761,0.013 18.743,0.011 18.725,0.009 C18.711,0.007 18.699,0.000 18.684,0.000 L18.683,0.000 C18.671,-0.000 18.662,0.001 18.653,0.002 C18.650,0.002 18.648,0.002 18.645,0.002 C18.642,0.003 18.639,0.002 18.636,0.003 C18.627,0.004 18.619,0.006 18.611,0.008 L0.247,3.811 C0.117,3.838 0.017,3.944 -0.002,4.077 C-0.021,4.209 0.046,4.339 0.164,4.402 L5.424,7.183 L6.347,12.314 C6.347,12.318 6.348,12.322 6.347,12.326 C6.344,12.351 6.344,12.376 6.347,12.401 C6.349,12.414 6.350,12.426 6.353,12.438 C6.360,12.468 6.372,12.496 6.388,12.523 C6.391,12.528 6.391,12.534 6.395,12.539 C6.396,12.541 6.397,12.542 6.398,12.543 C6.403,12.549 6.408,12.554 6.413,12.560 C6.428,12.578 6.443,12.595 6.461,12.609 C6.464,12.612 6.466,12.615 6.469,12.617 C6.474,12.621 6.479,12.622 6.484,12.625 C6.503,12.638 6.523,12.648 6.544,12.656 C6.553,12.659 6.561,12.663 6.570,12.666 C6.598,12.674 6.627,12.680 6.657,12.680 C6.658,12.680 6.658,12.680 6.658,12.680 L6.658,12.680 L6.658,12.680 C6.659,12.680 6.661,12.679 6.662,12.679 C6.667,12.680 6.673,12.680 6.678,12.680 C6.766,12.680 6.845,12.640 6.903,12.580 L10.408,10.239 L14.077,12.629 C14.129,12.662 14.189,12.680 14.250,12.680 C14.283,12.680 14.317,12.674 14.349,12.664 C14.440,12.633 14.513,12.563 14.546,12.472 L18.954,0.481 C18.984,0.434 19.001,0.377 19.001,0.316 C19.000,0.298 18.993,0.281 18.990,0.263 ZM15.325,2.394 L7.736,7.987 C7.723,7.996 7.713,8.007 7.703,8.018 C7.699,8.022 7.694,8.025 7.691,8.029 C7.684,8.037 7.678,8.044 7.672,8.052 C7.667,8.059 7.662,8.067 7.657,8.075 C7.645,8.094 7.636,8.114 7.628,8.135 C7.626,8.139 7.624,8.142 7.623,8.146 C7.622,8.148 7.621,8.148 7.621,8.149 L6.751,10.983 L6.062,7.150 L15.325,2.394 ZM7.241,11.592 L8.103,8.738 L9.446,9.613 L9.830,9.863 L8.525,10.734 L7.241,11.592 Z"/>
</svg>