<svg 
 xmlns="http://www.w3.org/2000/svg"
 xmlns:xlink="http://www.w3.org/1999/xlink"
 width="0.222in" height="0.222in">
<path fill-rule="evenodd"  fill="rgb(236, 237, 240)"
 d="M14.409,5.711 L13.077,6.753 C13.093,6.914 13.107,7.099 13.107,7.296 C13.107,7.308 13.104,7.359 13.103,7.370 C13.093,7.458 13.046,7.556 12.976,7.608 C12.905,7.661 12.813,7.699 12.728,7.684 C12.039,7.559 11.431,7.602 10.815,7.786 C10.716,7.814 10.609,7.795 10.528,7.731 C10.448,7.668 10.403,7.569 10.408,7.466 C10.410,7.431 10.414,7.398 10.418,7.364 C10.424,5.735 9.142,4.453 7.565,4.453 C5.988,4.453 4.706,5.736 4.706,7.312 C4.706,8.888 5.988,10.171 7.565,10.171 C7.651,10.160 7.685,10.156 7.719,10.154 C7.822,10.150 7.920,10.193 7.984,10.274 C8.049,10.355 8.069,10.462 8.040,10.561 C7.926,10.945 7.868,11.340 7.868,11.734 C7.868,12.580 8.124,13.394 8.610,14.088 C8.677,14.185 8.685,14.311 8.631,14.416 C8.576,14.521 8.468,14.586 8.350,14.586 L6.165,14.586 C5.832,14.586 5.549,14.341 5.508,14.016 L5.270,12.349 C4.946,12.203 4.632,12.020 4.333,11.805 L2.762,12.437 C2.419,12.563 2.091,12.418 1.939,12.141 L0.548,9.736 C0.386,9.439 0.456,9.083 0.710,8.882 L2.043,7.841 C2.023,7.640 2.012,7.464 2.012,7.298 C2.012,7.131 2.022,6.955 2.043,6.755 L0.711,5.714 C0.451,5.508 0.382,5.140 0.550,4.856 L1.943,2.447 C2.094,2.171 2.457,2.040 2.759,2.157 L4.334,2.789 C4.647,2.568 4.955,2.388 5.269,2.245 L5.509,0.574 C5.549,0.253 5.832,0.009 6.164,0.009 L8.954,0.009 C9.288,0.009 9.570,0.254 9.611,0.579 L9.850,2.245 C10.174,2.392 10.488,2.574 10.787,2.789 L12.358,2.158 C12.700,2.031 13.029,2.176 13.180,2.454 L14.571,4.859 C14.733,5.156 14.663,5.512 14.409,5.711 ZM11.988,8.248 C13.910,8.248 15.475,9.812 15.475,11.734 C15.475,13.657 13.911,15.220 11.988,15.220 C10.065,15.220 8.501,13.657 8.501,11.734 C8.501,9.812 10.065,8.248 11.988,8.248 ZM11.767,13.857 C11.824,13.920 11.906,13.952 11.989,13.952 C12.071,13.952 12.154,13.920 12.211,13.857 C12.268,13.801 12.306,13.718 12.306,13.635 C12.306,13.553 12.268,13.470 12.211,13.413 C12.090,13.293 11.881,13.293 11.767,13.413 C11.704,13.470 11.672,13.553 11.672,13.635 C11.672,13.718 11.704,13.800 11.767,13.857 ZM10.694,11.039 C10.868,11.059 11.022,10.924 11.037,10.750 C11.064,10.419 11.491,10.150 11.988,10.150 C12.503,10.150 12.939,10.441 12.939,10.784 C12.939,11.094 12.639,11.293 11.994,11.412 L11.925,11.425 C11.778,11.456 11.672,11.585 11.672,11.735 L11.671,12.369 C11.671,12.543 11.813,12.686 11.988,12.686 C12.163,12.686 12.305,12.544 12.305,12.369 L12.306,11.993 C13.147,11.795 13.573,11.389 13.573,10.784 C13.573,10.084 12.861,9.516 11.987,9.516 C11.141,9.516 10.460,10.024 10.405,10.697 C10.391,10.871 10.520,11.025 10.694,11.039 Z"/>
</svg>