<svg 
 xmlns="http://www.w3.org/2000/svg"
 xmlns:xlink="http://www.w3.org/1999/xlink"
 width="0.25in" height="0.167in">
<path fill-rule="evenodd"  fill="rgb(255, 255, 255)"
 d="M16.884,3.998 C16.872,3.984 16.862,3.970 16.848,3.957 L16.217,3.349 C16.740,3.231 17.303,2.794 17.303,2.345 C17.303,1.822 16.576,1.637 15.956,1.637 C15.307,1.637 15.232,2.080 15.224,2.394 L13.597,0.828 C13.266,0.501 12.639,0.244 12.170,0.244 L9.000,0.244 L9.000,0.244 L5.829,0.244 C5.361,0.244 4.734,0.501 4.403,0.828 L2.776,2.394 C2.768,2.080 2.692,1.637 2.044,1.637 C1.423,1.637 0.696,1.822 0.696,2.345 C0.696,2.794 1.260,3.231 1.783,3.349 L1.152,3.957 C1.138,3.970 1.128,3.984 1.116,3.998 C0.441,4.574 -0.000,5.641 -0.000,6.416 L-0.000,8.717 C-0.000,9.277 0.221,9.783 0.577,10.161 L0.577,11.054 C0.577,11.576 1.015,12.001 1.554,12.001 L2.735,12.001 C3.273,12.001 3.711,11.576 3.711,11.054 L3.711,10.825 L9.000,10.825 L9.000,10.825 L14.289,10.825 L14.289,11.054 C14.289,11.576 14.726,12.001 15.266,12.001 L16.446,12.001 C16.985,12.001 17.422,11.576 17.422,11.054 L17.422,10.161 C17.779,9.783 18.000,9.277 18.000,8.717 L18.000,6.416 C18.000,5.641 17.559,4.574 16.884,3.998 ZM5.001,1.524 C5.230,1.334 5.630,1.189 5.829,1.189 L9.000,1.189 L9.000,1.189 L12.171,1.189 C12.370,1.189 12.770,1.334 12.999,1.524 L15.133,3.588 L9.000,3.588 L9.000,3.588 L2.867,3.588 L5.001,1.524 ZM0.732,6.067 C0.732,5.500 1.177,5.040 1.725,5.040 C2.274,5.040 4.066,6.090 4.066,6.657 C4.066,7.224 2.274,7.093 1.725,7.093 C1.177,7.093 0.732,6.634 0.732,6.067 ZM3.711,9.816 L3.522,9.816 L3.333,9.816 L2.210,9.817 C1.899,9.721 1.679,9.608 1.524,9.486 C1.445,9.425 1.385,9.361 1.338,9.298 C1.291,9.234 1.256,9.171 1.233,9.108 C1.094,8.714 1.382,8.353 1.382,8.353 L3.298,8.353 L4.575,9.815 L3.711,9.815 L3.711,9.816 ZM11.754,9.816 L9.000,9.816 L9.000,9.816 L6.246,9.816 C5.672,9.816 5.205,9.352 5.205,8.779 L9.000,8.779 L9.000,8.779 L12.794,8.779 C12.794,9.352 12.328,9.816 11.754,9.816 ZM11.996,8.071 L9.000,8.071 L9.000,8.071 L6.004,8.071 C5.380,8.071 4.873,7.302 4.873,6.355 L9.000,6.355 L9.000,6.355 L13.127,6.355 C13.127,7.303 12.620,8.071 11.996,8.071 ZM16.767,9.108 C16.744,9.171 16.709,9.235 16.662,9.298 C16.615,9.362 16.555,9.425 16.476,9.487 C16.321,9.608 16.101,9.722 15.789,9.818 L14.667,9.816 L14.478,9.816 L14.289,9.816 L13.425,9.816 L14.702,8.353 L16.617,8.353 C16.617,8.353 16.906,8.714 16.767,9.108 ZM16.274,7.093 C15.726,7.093 13.934,7.223 13.934,6.657 C13.934,6.091 15.726,5.040 16.274,5.040 C16.823,5.040 17.268,5.500 17.268,6.067 C17.268,6.634 16.823,7.093 16.274,7.093 Z"/>
</svg>