<svg xmlns="http://www.w3.org/2000/svg" xmlns:xlink="http://www.w3.org/1999/xlink" width="0.344in" height="0.350in"> <path fill-rule="evenodd"  fill="rgb(255, 255, 255)" d="M27.728,41.377 C27.690,41.435 27.666,41.507 27.662,41.576 L27.292,47.608 C27.280,47.819 27.105,48.000 26.894,48.000 L12.114,48.000 C11.965,48.000 11.828,47.900 11.759,47.769 L1.234,27.610 C-0.101,25.406 1.778,23.341 3.701,23.342 C4.551,23.342 5.404,23.746 5.995,24.721 L7.332,26.789 C7.610,27.217 8.015,27.409 8.435,27.409 C9.127,27.409 9.769,26.889 9.769,26.049 L9.769,11.748 C9.769,9.889 11.154,8.960 12.548,8.960 C13.942,8.960 15.327,9.889 15.327,11.748 L15.327,19.878 C15.327,20.105 15.560,20.278 15.771,20.278 C15.811,20.278 15.899,20.272 15.940,20.259 C16.329,20.133 16.904,19.995 17.548,19.995 C18.654,19.995 19.965,20.403 20.886,21.984 C20.964,22.118 21.104,22.197 21.251,22.197 C21.297,22.197 21.345,22.189 21.391,22.172 C21.762,22.035 22.409,21.846 23.151,21.846 C24.184,21.846 25.400,22.213 26.308,23.598 C26.524,23.928 26.890,24.128 27.285,24.150 C28.537,24.222 31.203,24.826 31.838,28.607 C32.447,32.238 31.397,35.820 27.728,41.377 ZM17.432,8.926 C17.432,9.399 17.362,9.856 17.234,10.287 C16.644,8.304 14.862,6.939 12.634,6.939 C10.439,6.939 8.677,8.265 8.061,10.201 C7.949,9.795 7.888,9.368 7.888,8.926 C7.888,6.291 10.024,4.154 12.660,4.154 C15.296,4.154 17.432,6.291 17.432,8.926 ZM19.460,14.709 C19.261,14.944 18.976,15.064 18.690,15.064 C18.459,15.064 18.226,14.985 18.036,14.824 C17.611,14.462 17.559,13.824 17.921,13.399 C18.981,12.153 19.565,10.565 19.565,8.926 C19.565,5.119 16.467,2.021 12.660,2.021 C8.852,2.021 5.755,5.119 5.755,8.926 C5.755,10.563 6.337,12.150 7.396,13.396 C7.757,13.821 7.706,14.459 7.280,14.820 C6.855,15.182 6.218,15.130 5.856,14.705 C4.487,13.094 3.733,11.042 3.733,8.926 C3.733,4.004 7.738,-0.000 12.660,-0.000 C17.582,-0.000 21.586,4.004 21.586,8.926 C21.586,11.044 20.831,13.098 19.460,14.709 Z"/>
</svg>