<svg 
 xmlns="http://www.w3.org/2000/svg"
 xmlns:xlink="http://www.w3.org/1999/xlink"
 width="0.125in" height="0.125in">
<path fill-rule="evenodd"  fill="white"
 d="M0.541,3.833 C0.601,3.773 0.670,3.743 0.749,3.743 C0.827,3.743 0.896,3.773 0.956,3.833 L4.500,7.377 L8.044,3.833 C8.104,3.773 8.173,3.743 8.251,3.743 C8.329,3.743 8.399,3.773 8.459,3.833 L8.910,4.284 C8.970,4.344 9.000,4.413 9.000,4.491 C9.000,4.569 8.970,4.639 8.910,4.698 L4.707,8.901 C4.647,8.961 4.578,8.991 4.500,8.991 C4.422,8.991 4.353,8.961 4.293,8.901 L0.090,4.698 C0.030,4.639 0.000,4.569 0.000,4.491 C0.000,4.413 0.030,4.344 0.090,4.284 L0.541,3.833 ZM4.707,5.438 C4.647,5.498 4.578,5.528 4.500,5.528 C4.422,5.528 4.353,5.498 4.293,5.438 L0.090,1.235 C0.030,1.176 0.000,1.106 0.000,1.028 C0.000,0.950 0.030,0.881 0.090,0.821 L0.541,0.370 C0.601,0.310 0.670,0.280 0.749,0.280 C0.827,0.280 0.896,0.310 0.956,0.370 L4.500,3.914 L8.044,0.370 C8.104,0.310 8.173,0.280 8.251,0.280 C8.329,0.280 8.399,0.310 8.459,0.370 L8.910,0.821 C8.970,0.881 9.000,0.950 9.000,1.028 C9.000,1.106 8.970,1.176 8.910,1.236 L4.707,5.438 Z"/>
</svg>