<svg xmlns="http://www.w3.org/2000/svg" xmlns:xlink="http://www.w3.org/1999/xlink" width="0.155in" height="0.039in"> <path fill-rule="evenodd"  fill="rgb(22, 28, 58)" d="M23.552,1.471 L0.736,1.471 C0.329,1.471 -0.000,1.142 -0.000,0.736 C-0.000,0.329 0.329,-0.000 0.736,-0.000 L23.552,-0.000 C23.958,-0.000 24.288,0.329 24.288,0.736 C24.288,1.142 23.958,1.471 23.552,1.471 ZM0.736,2.944 L23.552,2.944 C23.958,2.944 24.288,3.273 24.288,3.680 C24.288,4.086 23.958,4.416 23.552,4.416 L0.736,4.416 C0.329,4.416 -0.000,4.086 -0.000,3.680 C-0.000,3.273 0.329,2.944 0.736,2.944 Z"/></svg>